<svg width="127" height="126" viewBox="0 0 127 126" xmlns="http://www.w3.org/2000/svg" xmlns:xlink="http://www.w3.org/1999/xlink"><title>Page 1</title><defs><filter x="-45%" y="-43.3%" width="189.9%" height="186.6%" filterUnits="objectBoundingBox" id="a"><feGaussianBlur stdDeviation="11.557" in="SourceGraphic"/></filter><path id="b" d="M77.095 79.321H0V.184h77.095z"/></defs><g fill="none" fill-rule="evenodd"><path d="M75.453 38.289c-2.295-14.796-13.57-26.51-27.814-28.895l-5.366-5.576-5.367 5.575c-14.244 2.385-25.52 14.1-27.816 28.896l-5.366 5.575 5.366 5.574c2.295 14.797 13.572 26.512 27.816 28.896l5.367 5.575 5.367-5.576c14.242-2.385 25.518-14.098 27.813-28.894l5.366-5.575-5.366-5.575z" fill="#2084BB" filter="url(#a)" transform="translate(22 18)"/><path d="M88.766 57.887c0 15.998-12.634 28.966-28.219 28.966-15.584 0-28.218-12.968-28.218-28.966 0-15.997 12.634-28.965 28.218-28.965 15.585 0 28.219 12.968 28.219 28.965" fill="#FFE500"/><g transform="translate(22 18.135)"><mask id="c" fill="#fff"><use xlink:href="#b"/></mask><path d="M38.547 67.797c-15.065 0-27.326-12.58-27.326-28.044 0-8.56 3.763-16.235 9.66-21.383v23.985c0 9.993 7.954 18.126 17.69 18.126s17.69-8.133 17.69-18.126V18.371c5.896 5.148 9.635 12.822 9.635 21.382 0 15.463-12.284 28.044-27.349 28.044zm0-56.089c6.707 0 12.857 2.496 17.617 6.627-.256.254-1.892 1.885-5.425 5.571-3.06-2.892-5.962-3.825-5.962-3.825v22.915c0 3.529-2.77 6.398-6.208 6.398-3.437 0-6.205-2.87-6.205-6.398V20.073s-3.298 1.185-5.993 3.84c-3.644-3.74-5.148-5.302-5.418-5.586 4.759-4.127 10.892-6.619 17.594-6.619zM71.73 34.244C69.434 19.624 58.16 8.05 43.916 5.694L38.548.183l-5.366 5.509C18.938 8.049 7.662 19.623 5.366 34.245L0 39.753l5.366 5.508c2.295 14.62 13.572 26.196 27.816 28.551l5.366 5.51 5.368-5.51c14.242-2.357 25.517-13.93 27.813-28.55l5.366-5.51-5.366-5.508z" fill="#4BAADF" mask="url(#c)"/></g></g></svg>