<svg width="69" height="71" viewBox="0 0 69 71" xmlns="http://www.w3.org/2000/svg"><title>Logo</title><g fill="none" fill-rule="evenodd"><path d="M59.062 35.455c0 14.22-11.176 25.747-24.962 25.747-13.787 0-24.963-11.527-24.963-25.747S20.313 9.71 34.1 9.71c13.786 0 24.962 11.527 24.962 25.746" fill="#FFE600"/><path d="M34.1 60.384c-13.327 0-24.173-11.183-24.173-24.929 0-7.608 3.328-14.43 8.545-19.006v21.32c0 8.882 7.036 16.112 15.648 16.112 8.613 0 15.649-7.23 15.649-16.112v-21.32c5.216 4.576 8.524 11.398 8.524 19.006 0 13.746-10.867 24.929-24.194 24.929zm0-49.857c5.933 0 11.372 2.218 15.583 5.891-.226.226-1.673 1.675-4.798 4.952-2.707-2.57-5.274-3.4-5.274-3.4v20.368c0 3.137-2.45 5.688-5.492 5.688-3.04 0-5.49-2.55-5.49-5.688V17.962s-2.916 1.054-5.301 3.413a968.139 968.139 0 0 1-4.793-4.965c4.21-3.668 9.635-5.883 15.564-5.883zM63.451 30.56C61.422 17.564 51.448 7.275 38.848 5.18L34.101.283 29.353 5.18C16.753 7.274 6.777 17.563 4.747 30.56L0 35.454l4.747 4.897c2.03 12.996 12.006 23.285 24.606 25.379l4.748 4.897 4.747-4.897c12.6-2.095 22.574-12.384 24.604-25.38l4.747-4.896-4.747-4.896z" fill="#4BAADF"/></g></svg>