<svg width="91" height="92" viewBox="0 0 91 92" xmlns="http://www.w3.org/2000/svg"><title>Group</title><path d="M45.5 0C20.406 0 0 20.63 0 46s20.406 46 45.5 46S91 71.37 91 46 70.594 0 45.5 0zm-3.243 8.017v37.985c0 .789.313 1.476.824 1.993l26.569 26.86c-6.591 5.736-15.17 9.222-24.568 9.222-20.833 0-37.661-17.013-37.661-38.075 0-20.1 15.33-36.528 34.836-37.985zm7.22.241c11.17.835 20.895 6.838 26.849 15.66l-26.848 15.66V8.257zm34.527 38.13c0 9.217-3.316 17.629-8.82 24.093l-23.26-23.517 28.484-16.62c2.306 4.845 3.596 10.297 3.596 16.043z" fill="#FFF"/></svg>