<svg width="100" height="58" viewBox="0 0 100 58" xmlns="http://www.w3.org/2000/svg"><title>Combined Shape</title><path d="M91.167 29.178C76.631 14.641 61.807 7.71 47.118 8.566 24.88 9.864 9.951 28.445 9.802 28.634L0 24.888C.747 23.943 18.616 1.714 46.39.093 64.8-.974 82.834 7.176 100 24.344l-8.833 4.834zM50.242 57.326c-11.307 0-20.506-9.199-20.506-20.506s9.199-20.506 20.506-20.506 20.504 9.199 20.504 20.506-9.197 20.506-20.504 20.506zm0-32.765c-6.76 0-12.258 5.499-12.258 12.26 0 6.76 5.499 12.259 12.258 12.259C57 49.08 62.5 43.581 62.5 36.821c0-6.763-5.499-12.26-12.257-12.26z" fill="#FFF"/></svg>