<svg width="80" height="85" viewBox="0 0 80 85" xmlns="http://www.w3.org/2000/svg"><title>Combined Shape</title><path d="M4.889 78.045H63.11v6.624H4.89v-6.624zM16.778 8.058h6.666v12.695h-6.666V8.058zM30.667.331h6.666v19.98h-6.666V.332zm13.889 7.727h6.666v12.364h-6.666V8.058zm23.777 26.273c6.111 0 11.223 4.857 11.223 11.04 0 6.18-5 11.148-11.223 11.148h-5.777C56.666 66.123 46.11 72.526 34 72.526 15.556 72.526.556 57.623.556 39.299V26.052h66.888v8.28h.89zM60.778 39.3v-6.624H7.222V39.3c0 14.682 12 26.604 26.778 26.604 14.778 0 26.778-11.922 26.778-26.604zm7.555 10.707c2.445 0 4.556-1.987 4.556-4.525 0-2.54-2-4.526-4.556-4.526h-.889c-.222 3.2-.777 6.181-1.777 9.051h2.666z" fill="#FFF"/></svg>