<svg width="61" height="85" viewBox="0 0 61 85" xmlns="http://www.w3.org/2000/svg"><title>hotel</title><g fill="#FFF"><path d="M60.925 84.87H.075V.13h60.85v84.74zm-55.04-5.535h49.38V5.925H5.885v73.41z"/><path d="M12.587 10.653h5.81v5.767h-5.81zm15.492 0h5.81v5.767h-5.81zm14.524 0h5.81v5.767h-5.81zm-30.016 13.57h5.81v5.767h-5.81zm15.492 0h5.81v5.767h-5.81zm14.524 0h5.81v5.767h-5.81zM12.587 37.699h5.81v5.767h-5.81zm15.492 0h5.81v5.767h-5.81zm14.524 0h5.81v5.767h-5.81zM12.587 51.221h5.81v5.767h-5.81zm15.492 0h5.81v5.767h-5.81zm14.524-.028h5.81v5.795h-5.81zm0 33.677H19.365V64.716h23.238V84.87zm-17.428-4.258h11.619v-10.1h-11.62v10.1z"/></g></svg>