<svg width="80" height="67" viewBox="0 0 80 67" xmlns="http://www.w3.org/2000/svg"><title>Shape</title><path d="M24.373 0v11.36H0V67h80V11.36H55.627V0H24.373zm5.625 5.68h20.004v5.68H29.998V5.68zm30.504 49.952L52.04 42.429l-4.819 4.819-.315 5.731-2.687 2.687-.511-8.696-8.697-.511 2.688-2.687 5.731-.316 4.819-4.819-13.203-8.461 1.716-1.716 16.375 5.289 7.422-7.422s4.03-4.03 5.926-2.135c1.896 1.896-2.135 5.926-2.135 5.926l-7.42 7.422 5.288 16.376-1.715 1.716zM5.625 17.039H74V61.32H5.625V17.04z" fill="#FFF"/></svg>