<svg width="89" height="86" viewBox="0 0 89 86" xmlns="http://www.w3.org/2000/svg"><title>Combined Shape</title><path d="M76.325 35.763c-1.625 11.862-11.7 20.962-24.05 21.125H35.05c-9.75 0-17.875 7.962-17.875 17.875H11C11 61.437 21.887 50.55 35.212 50.55h17.063c8.938 0 16.25-6.337 17.712-14.787H57.8l15.6-18.525L89 35.763H76.325zM20.262 21.138a4.875 4.875 0 1 1 0-9.75 4.875 4.875 0 0 1 0 9.75zm26 21.774a4.875 4.875 0 1 1 0-9.75 4.875 4.875 0 0 1 0 9.75zM80.4 70.45v6.5h-8.45v8.45h-6.5v-8.45H57v-6.5h8.45V62h6.5v8.45h8.45zm-23-62v6.5h-8.45v8.45h-6.5v-8.45H34v-6.5h8.45V0h6.5v8.45h8.45zM21.271 43.675l-4.596 4.596-5.975-5.975-5.975 5.975-4.596-4.596L6.104 37.7.129 31.725l4.596-4.596 5.975 5.975 5.975-5.975 4.596 4.596-5.975 5.975 5.975 5.975zm62.854 20.688a4.875 4.875 0 1 1 0-9.75 4.875 4.875 0 0 1 0 9.75zM37 79.8a4.875 4.875 0 1 1 0-9.75 4.875 4.875 0 0 1 0 9.75z" fill="#FFF"/></svg>