<svg width="68" height="68" viewBox="0 0 68 68" xmlns="http://www.w3.org/2000/svg"><title>Group</title><g fill="#FFF"><path d="M50.66 38.42c-7.82 0-13.94 6.12-13.94 13.94 0 7.82 6.12 13.94 13.94 13.94 7.82 0 13.94-6.12 13.94-13.94 0-7.82-6.46-13.94-13.94-13.94zm0 20.74c-3.74 0-6.8-3.06-6.8-6.8 0-3.74 3.06-6.8 6.8-6.8 3.74 0 6.8 3.06 6.8 6.8 0 3.74-3.06 6.8-6.8 6.8zM15.98 31.62c7.82 0 13.94-6.12 13.94-13.94 0-7.82-6.46-13.94-13.94-13.94-7.82 0-13.94 6.12-13.94 13.94 0 7.82 6.12 13.94 13.94 13.94zm0-21.08c3.74 0 6.8 3.06 6.8 6.8 0 3.74-3.06 6.8-6.8 6.8-3.74 0-6.8-3.06-6.8-6.8 0-3.74 2.72-6.8 6.8-6.8z"/><path d="M47.26 0v6.8h8.84L0 63.24 4.76 68 61.2 11.9v8.84H68V0z"/></g></svg>