<svg width="84" height="96" viewBox="0 0 84 96" xmlns="http://www.w3.org/2000/svg"><title>hotel</title><g transform="translate(0 3)" fill="none" fill-rule="evenodd"><path d="M57.918 92.876H.07V12.094h34.61l-3.905 18.912 11.242 15.05 15.9 3.895v42.925zM5.594 87.6h46.943V49.573l-9.935-4.599-9.169-11.145-1.497-16.21H5.594v69.98z" fill="#FFF" fill-rule="nonzero"/><path fill="#FFF" fill-rule="nonzero" d="M11.966 22.126h5.523v5.498h-5.523zm0 12.936h5.523v5.498h-5.523zm0 12.846h5.523v5.498h-5.523zm14.727 0h5.523v5.498h-5.523zM11.966 60.799h5.523v5.498h-5.523zm14.727 0h5.523v5.498h-5.523zm13.807-.027h5.523v5.525H40.5zm0 32.104H18.41V73.663H40.5v19.213zm-16.568-4.059h11.045v-9.629H23.932v9.63z"/><ellipse stroke="#FFF" stroke-width="6" cx="56.148" cy="24.861" rx="24.852" ry="24.861"/><path fill="#FFF" d="M66.047 14.498l4.264 3.212-17.423 23.125-10.692-15.217 4.374-3.064 6.467 9.216z"/></g></svg>