<svg width="89" height="86" viewBox="0 0 89 86" xmlns="http://www.w3.org/2000/svg"><title>noun_1091876_cc</title><g transform="translate(-6)" fill="#FFF"><path d="M82.325 35.763H95L79.4 17.238 63.8 35.763h12.188c-1.463 8.45-8.775 14.787-17.713 14.787H41.212C27.887 50.55 17 61.438 17 74.763h6.175c0-9.913 8.125-17.876 17.875-17.876h17.225c12.35-.162 22.425-9.262 24.05-21.124z"/><circle cx="26.262" cy="16.262" r="4.875"/><circle cx="52.263" cy="38.038" r="4.875"/><path d="M86.4 70.45h-8.45V62h-6.5v8.45H63v6.5h8.45v8.45h6.5v-8.45h8.45zm-23-62h-8.45V0h-6.5v8.45H40v6.5h8.45v8.45h6.5v-8.45h8.45zM27.271 43.675L21.296 37.7l5.975-5.975-4.596-4.596-5.975 5.975-5.975-5.975-4.596 4.596 5.975 5.975-5.975 5.975 4.596 4.596 5.975-5.975 5.975 5.975z"/><circle cx="90.125" cy="59.487" r="4.875"/><circle cx="43" cy="74.925" r="4.875"/></g></svg>