<svg width="80" height="85" viewBox="0 0 80 85" xmlns="http://www.w3.org/2000/svg"><title>Group</title><path d="M4.889 78.045h58.222v6.623H4.889zM16.778 8.058h6.667v12.695h-6.667zM30.667.331h6.667v19.981h-6.667zm13.889 7.727h6.667v12.364h-6.667zm23.777 26.273h-.889v-8.28H.556V39.3c0 18.324 15 33.227 33.444 33.227 12.111 0 22.667-6.403 28.556-16.007h5.777c6.223 0 11.223-4.967 11.223-11.149 0-6.182-5.112-11.039-11.223-11.039zM60.778 39.3c0 14.682-12 26.604-26.778 26.604-14.778 0-26.778-11.922-26.778-26.604v-6.624h53.556V39.3zm7.555 10.707h-2.666c1-2.87 1.555-5.85 1.777-9.051h.89c2.555 0 4.555 1.987 4.555 4.526 0 2.538-2.111 4.525-4.556 4.525z" fill="#FFF"/></svg>