<svg width="68" height="68" viewBox="0 0 68 68" xmlns="http://www.w3.org/2000/svg"><title>Combined Shape</title><path d="M50.66 38.42c-7.82 0-13.94 6.12-13.94 13.94 0 7.82 6.12 13.94 13.94 13.94 7.82 0 13.94-6.12 13.94-13.94 0-7.82-6.46-13.94-13.94-13.94zm0 20.74c-3.74 0-6.8-3.06-6.8-6.8 0-3.74 3.06-6.8 6.8-6.8 3.74 0 6.8 3.06 6.8 6.8 0 3.74-3.06 6.8-6.8 6.8zM15.98 31.62c-7.82 0-13.94-6.12-13.94-13.94 0-7.82 6.12-13.94 13.94-13.94 7.48 0 13.94 6.12 13.94 13.94 0 7.82-6.12 13.94-13.94 13.94zm0-21.08c-4.08 0-6.8 3.06-6.8 6.8 0 3.74 3.06 6.8 6.8 6.8 3.74 0 6.8-3.06 6.8-6.8 0-3.74-3.06-6.8-6.8-6.8zM47.26 0H68v20.74h-6.8V11.9L4.76 68 0 63.24 56.1 6.8h-8.84V0z" fill="#FFF"/></svg>