<svg width="84" height="96" viewBox="0 0 84 96" xmlns="http://www.w3.org/2000/svg"><title>Combined Shape</title><path d="M52.537 55.49C38.86 53.72 28.295 42.026 28.295 27.862c0-2.505.331-4.933.95-7.242H5.595V90.6H18.41V76.663H40.5V90.6h12.037V55.491zm5.38.177v40.21H.072V15.093h31.314C36.014 6.13 45.365 0 56.148 0 71.53 0 84 12.474 84 27.861c0 14.793-11.524 26.893-26.082 27.806zm-45.95-30.541h5.523v5.498h-5.523v-5.498zm0 12.936h5.523v5.497h-5.523v-5.497zm0 12.846h5.523v5.498h-5.523v-5.498zm14.727 0h5.523v5.498h-5.523v-5.498zM11.966 63.8h5.523v5.498h-5.523V63.8zm14.727 0h5.523v5.498h-5.523V63.8zm13.807-.027h5.523v5.525H40.5v-5.525zM23.932 91.817h11.045v-9.629H23.932v9.63zm32.216-42.094C68.216 49.723 78 39.935 78 27.86 78 15.787 68.216 6 56.148 6c-12.069 0-21.853 9.787-21.853 21.861s9.784 21.862 21.853 21.862zm9.9-32.225l4.263 3.212-17.423 23.125-10.692-15.217 4.374-3.064 6.467 9.216 13.01-17.272z" fill="#FFF"/></svg>