<svg width="94" height="90" viewBox="0 0 94 90" xmlns="http://www.w3.org/2000/svg"><title>Combined Shape</title><path d="M77.683 28.667a7.667 7.667 0 0 1-3.547-13.715L63.525.87.025 48.72l10.612 14.083a7.667 7.667 0 0 1 9.227 12.245L30.475 89.13l63.5-47.85-10.612-14.083a7.639 7.639 0 0 1-5.68 1.47zM70.935 48.91l-3.817-4.889-5.776 4.184 3.64 5.047-32.998 25.14-2.615-3.471c.516-1.22.876-2.516 1.065-3.864 1.177-8.372-4.677-16.141-13.05-17.318-1.347-.19-2.692-.2-4.007-.04l-2.615-3.47 33.512-25.347 3.72 5.294 5.901-3.97-3.92-5.526 12.04-9.073 2.616 3.47a15.4 15.4 0 0 0-1.065 3.863c-1.177 8.372 4.677 16.141 13.05 17.318 1.347.19 2.692.2 4.008.04l2.614 3.471-12.303 9.141zm-13.894-7.095l-4.213-5.59 5.59-4.213 4.213 5.59-5.59 4.213z" fill="#FFF"/></svg>