<svg width="79" height="80" viewBox="0 0 79 80" xmlns="http://www.w3.org/2000/svg"><title>noun_790479_cc</title><g fill="#FFF"><path d="M58.855 45.2c-9.085 0-16.195 7.2-16.195 16.4S49.77 78 58.855 78 75.05 70.8 75.05 61.6s-7.505-16.4-16.195-16.4zm0 24.4c-4.345 0-7.9-3.6-7.9-8s3.555-8 7.9-8c4.345 0 7.9 3.6 7.9 8s-3.555 8-7.9 8zm-40.29-32.4c9.085 0 16.195-7.2 16.195-16.4S27.255 4.4 18.565 4.4C9.48 4.4 2.37 11.6 2.37 20.8s7.11 16.4 16.195 16.4zm0-24.8c4.345 0 7.9 3.6 7.9 8s-3.555 8-7.9 8c-4.345 0-7.9-3.6-7.9-8s3.16-8 7.9-8z"/><path d="M54.905 0v8h10.27L0 74.4 5.53 80 71.1 14v10.4H79V0z"/></g></svg>