<svg width="78" height="78" viewBox="0 0 78 78" xmlns="http://www.w3.org/2000/svg"><title>Shape</title><path d="M39 0C17.491 0 0 17.491 0 39s17.491 39 39 39 39-17.491 39-39S60.509 0 39 0zm-2.78 6.797v32.205c0 .668.268 1.251.707 1.69L59.7 63.465c-5.65 4.862-13.002 7.818-21.058 7.818-17.857 0-32.281-14.424-32.281-32.281 0-17.041 13.14-30.97 29.86-32.205zm6.19.205c9.574.707 17.909 5.797 23.012 13.276L42.41 33.555V7.002zm29.593 32.326c0 7.815-2.842 14.947-7.559 20.427L44.506 39.817l24.415-14.09a31.314 31.314 0 0 1 3.082 13.601z" fill="#FFF"/></svg>