<svg width="90" height="77" viewBox="0 0 90 77" xmlns="http://www.w3.org/2000/svg"><title>Shape</title><path d="M88.522 3.11C86.556.503 83.097-.22 79.555.194c-3.542.413-7.422 1.98-10.98 4.66L59.28 11.86 23.069.613 9.379 10.928l29.615 16.384-12.227 10.334-14.535-3.622L.297 43.018l17.28 10.48 1.431 1.953 1.523 1.967 5.465 19.384 11.781-8.878.525-14.97 13.304-8.905 7.586 32.983L72.71 66.845l-.658-38.037 9.296-7.005c3.558-2.68 6.133-5.978 7.507-9.269 1.373-3.29 1.632-6.815-.333-9.423zm-5.127 3.864c.635.842.264 2.472-.993 4.733-1.258 2.261-3.412 3.873-6.232 5.998l-10 7.546.809 37.941-4.626 3.486-7.11-30.973-22.556 14.957-.539 14.974-2.472 1.863-3.649-13.31-3.82-5.071-11.8-7.19 2.473-1.862 14.544 3.612 20.593-17.562-27.814-15.372 4.626-3.486 36.165 11.124 10.004-7.54c2.821-2.125 4.86-3.662 7.532-4.273 2.672-.61 4.23-.437 4.865.405z" fill="#FFF"/></svg>