<svg width="71" height="101" viewBox="0 0 71 101" xmlns="http://www.w3.org/2000/svg"><title>hotel</title><g fill="#3D1617"><path d="M70.913 100.846H.087V.154h70.826v100.692zM6.849 94.268h57.476V7.041H6.85v87.227z"/><path d="M14.651 12.659h6.762v6.853h-6.762zm18.032 0h6.762v6.853h-6.762zm16.904 0h6.762v6.853h-6.762zM14.651 28.782h6.762v6.853h-6.762zm18.032 0h6.762v6.853h-6.762zm16.904 0h6.762v6.853h-6.762zM14.651 44.795h6.762v6.853h-6.762zm18.032 0h6.762v6.853h-6.762zm16.904 0h6.762v6.853h-6.762zM14.651 60.863h6.762v6.853h-6.762zm18.032 0h6.762v6.853h-6.762zm16.904-.033h6.762v6.886h-6.762zm0 40.016H22.54V76.898h27.047v23.948zm-20.285-5.06h13.523V83.784H29.302v12.002z"/></g></svg>