<?xml version="1.0" encoding="UTF-8"?>
<svg width="61px" height="85px" viewBox="0 0 61 85" version="1.1" xmlns="http://www.w3.org/2000/svg" xmlns:xlink="http://www.w3.org/1999/xlink">
    <!-- Generator: Sketch 47 (45396) - http://www.bohemiancoding.com/sketch -->
    <title>Combined Shape</title>
    <desc>Created with Sketch.</desc>
    <defs></defs>
    <g id="Page-1" stroke="none" stroke-width="1" fill="none" fill-rule="evenodd">
        <g id="Partner_ALL" transform="translate(-85.000000, -4819.000000)" fill-rule="nonzero" fill="#FFFFFF">
            <g id="Page-Copy-6" transform="translate(0.000000, 2730.000000)">
                <g id="hotel" transform="translate(85.000000, 2089.000000)">
                    <g id="Group">
                        <path d="M60.9252451,84.8700133 L0.074754902,84.8700133 L0.074754902,0.129986702 L60.9252451,0.129986702 L60.9252451,84.8700133 Z M5.88427871,79.3345322 L55.2652311,79.3345322 L55.2652311,5.92544125 L5.88427871,5.92544125 L5.88427871,79.3345322 Z M12.5873016,10.653258 L18.3968254,10.653258 L18.3968254,16.4204545 L12.5873016,16.4204545 L12.5873016,10.653258 Z M28.0793651,10.653258 L33.8888889,10.653258 L33.8888889,16.4204545 L28.0793651,16.4204545 L28.0793651,10.653258 Z M42.6031746,10.653258 L48.4126984,10.653258 L48.4126984,16.4204545 L42.6031746,16.4204545 L42.6031746,10.653258 Z M12.5873016,24.2227394 L18.3968254,24.2227394 L18.3968254,29.9899359 L12.5873016,29.9899359 L12.5873016,24.2227394 Z M28.0793651,24.2227394 L33.8888889,24.2227394 L33.8888889,29.9899359 L28.0793651,29.9899359 L28.0793651,24.2227394 Z M42.6031746,24.2227394 L48.4126984,24.2227394 L48.4126984,29.9899359 L42.6031746,29.9899359 L42.6031746,24.2227394 Z M12.5873016,37.6987125 L18.3968254,37.6987125 L18.3968254,43.4659091 L12.5873016,43.4659091 L12.5873016,37.6987125 Z M28.0793651,37.6987125 L33.8888889,37.6987125 L33.8888889,43.4659091 L28.0793651,43.4659091 L28.0793651,37.6987125 Z M42.6031746,37.6987125 L48.4126984,37.6987125 L48.4126984,43.4659091 L42.6031746,43.4659091 L42.6031746,37.6987125 Z M12.5873016,51.2214398 L18.3968254,51.2214398 L18.3968254,56.9886364 L12.5873016,56.9886364 L12.5873016,51.2214398 Z M28.0793651,51.2214398 L33.8888889,51.2214398 L33.8888889,56.9886364 L28.0793651,56.9886364 L28.0793651,51.2214398 Z M42.6031746,51.1931818 L48.4126984,51.1931818 L48.4126984,56.9886364 L42.6031746,56.9886364 L42.6031746,51.1931818 Z M42.6031746,84.8700133 L19.3650794,84.8700133 L19.3650794,64.7159091 L42.6031746,64.7159091 L42.6031746,84.8700133 Z M25.1746032,80.612104 L36.7936508,80.612104 L36.7936508,70.5113636 L25.1746032,70.5113636 L25.1746032,80.612104 Z" id="Combined-Shape"></path>
                    </g>
                </g>
            </g>
        </g>
    </g>
</svg>