<?xml version="1.0" encoding="UTF-8"?>
<svg width="93px" height="79px" viewBox="0 0 93 79" version="1.1" xmlns="http://www.w3.org/2000/svg" xmlns:xlink="http://www.w3.org/1999/xlink">
    <!-- Generator: Sketch 47 (45396) - http://www.bohemiancoding.com/sketch -->
    <title>Shape</title>
    <desc>Created with Sketch.</desc>
    <defs></defs>
    <g id="Page-1" stroke="none" stroke-width="1" fill="none" fill-rule="evenodd">
        <g id="Partner_ALL" transform="translate(-263.000000, -980.000000)" fill-rule="nonzero" fill="#FFFFFF">
            <g id="Group-10" transform="translate(263.000000, 963.000000)">
                <path d="M28.3337239,17 L28.3337239,30.393614 L0,30.393614 L0,96 L93,96 L93,30.393614 L64.6662761,30.393614 L64.6662761,17 L28.3337239,17 Z M35,24 L58,24 L58,31 L35,31 L35,24 Z M70.7396954,81.9587894 L60.8472214,66.575945 L55.2673207,72.1558457 L54.9258983,78.816012 L51.814606,81.9273044 L51.1821513,71.8177916 L41.0726385,71.1853369 L44.1839309,68.0740446 L50.8441543,67.7326793 L56.424055,62.1527786 L41.0412106,52.2603046 L43.0276935,50.2738217 L62.0842068,56.4926268 L70.6779399,47.8988936 C70.6779399,47.8988936 75.344766,43.2320676 77.5563206,45.4436223 C79.7679324,47.655234 75.1011064,52.3220601 75.1011064,52.3220601 L66.5073732,60.9157932 L72.7261783,79.9723065 L70.7396954,81.9587894 Z M7,37 L86,37 L86,89 L7,89 L7,37 Z" id="Shape"></path>
            </g>
        </g>
    </g>
</svg>