<?xml version="1.0" encoding="UTF-8"?>
<svg width="72px" height="86px" viewBox="0 0 72 86" version="1.1" xmlns="http://www.w3.org/2000/svg" xmlns:xlink="http://www.w3.org/1999/xlink">
    <!-- Generator: Sketch 47 (45396) - http://www.bohemiancoding.com/sketch -->
    <title>Combined Shape</title>
    <desc>Created with Sketch.</desc>
    <defs></defs>
    <g id="Page-1" stroke="none" stroke-width="1" fill="none" fill-rule="evenodd">
        <g id="Tourist_ALL" transform="translate(-568.000000, -4808.000000)" fill="#FFFFFF">
            <g id="Page-Copy-3" transform="translate(0.000000, 4480.000000)">
                <path d="M575.504472,355.876745 L575.504472,394.297885 L607.701589,394.297885 L607.701589,335.702115 L575.504472,335.702115 L575.504472,348.326183 L599.798604,348.326183 L599.798604,355.876745 L575.504472,355.876745 Z M600.574413,401.298148 L600.6375,406.179301 L632.632423,405.976883 L632.749166,347.288846 L614.701852,347.458906 L614.701852,359.263158 L623.817391,359.263158 L623.817391,366.842105 L614.701852,366.842105 L614.701852,401.298148 L600.574413,401.298148 Z M614.701852,340.180685 L639.686809,340.133479 L639.777955,413.138356 L593.487295,413.059282 L593.499715,401.298148 L568.504209,401.298148 L568.504209,328.701852 L614.701852,328.701852 L614.701852,340.180685 Z" id="Combined-Shape"></path>
            </g>
        </g>
    </g>
</svg>