<?xml version="1.0" encoding="UTF-8"?>
<svg width="80px" height="85px" viewBox="0 0 80 85" version="1.1" xmlns="http://www.w3.org/2000/svg" xmlns:xlink="http://www.w3.org/1999/xlink">
    <!-- Generator: Sketch 47 (45396) - http://www.bohemiancoding.com/sketch -->
    <title>Group</title>
    <desc>Created with Sketch.</desc>
    <defs></defs>
    <g id="Page-1" stroke="none" stroke-width="1" fill="none" fill-rule="evenodd">
        <g id="Tourist_ALL" transform="translate(-572.000000, -8470.000000)" fill-rule="nonzero" fill="#FFFFFF">
            <g id="Page-Copy-7" transform="translate(-64.000000, 8009.000000)">
                <g id="restaurant" transform="translate(636.000000, 461.000000)">
                    <g id="Group">
                        <rect id="Rectangle-path" x="4.88888889" y="78.0454545" width="58.2222222" height="6.62337662"></rect>
                        <rect id="Rectangle-path" x="16.7777778" y="8.05844156" width="6.66666667" height="12.6948052"></rect>
                        <rect id="Rectangle-path" x="30.6666667" y="0.331168831" width="6.66666667" height="19.9805195"></rect>
                        <rect id="Rectangle-path" x="44.5555556" y="8.05844156" width="6.66666667" height="12.3636364"></rect>
                        <path d="M68.3333333,34.3311688 L67.4444444,34.3311688 L67.4444444,26.0519481 L0.555555556,26.0519481 L0.555555556,39.2987013 C0.555555556,57.6233766 15.5555556,72.525974 34,72.525974 C46.1111111,72.525974 56.6666667,66.1233766 62.5555556,56.5194805 L68.3333333,56.5194805 C74.5555556,56.5194805 79.5555556,51.5519481 79.5555556,45.3701299 C79.5555556,39.1883117 74.4444444,34.3311688 68.3333333,34.3311688 Z M60.7777778,39.2987013 C60.7777778,53.9805195 48.7777778,65.9025974 34,65.9025974 C19.2222222,65.9025974 7.22222222,53.9805195 7.22222222,39.2987013 L7.22222222,32.6753247 L60.7777778,32.6753247 L60.7777778,39.2987013 Z M68.3333333,50.0064935 L65.6666667,50.0064935 C66.6666667,47.1363636 67.2222222,44.1558442 67.4444444,40.9545455 L68.3333333,40.9545455 C70.8888889,40.9545455 72.8888889,42.9415584 72.8888889,45.4805195 C72.8888889,48.0194805 70.7777778,50.0064935 68.3333333,50.0064935 Z" id="Shape"></path>
                    </g>
                </g>
            </g>
        </g>
    </g>
</svg>