<?xml version="1.0" encoding="UTF-8"?>
<svg width="72px" height="86px" viewBox="0 0 72 86" version="1.1" xmlns="http://www.w3.org/2000/svg" xmlns:xlink="http://www.w3.org/1999/xlink">
    <!-- Generator: Sketch 47 (45396) - http://www.bohemiancoding.com/sketch -->
    <title>Group 9</title>
    <desc>Created with Sketch.</desc>
    <defs></defs>
    <g id="Page-1" stroke="none" stroke-width="1" fill="none" fill-rule="evenodd">
        <g id="Tourist_ALL" transform="translate(-568.000000, -4808.000000)" fill="#FFFFFF">
            <g id="Page-Copy-3" transform="translate(0.000000, 4480.000000)">
                <g id="Group-9" transform="translate(531.000000, 304.000000)">
                    <g id="tour-copy" transform="translate(61.000000, 60.996429) rotate(-45.000000) translate(-61.000000, -60.996429) translate(18.500000, 18.496429)" fill-rule="nonzero">
                        <path d="M51.830808,0.502525317 L0.497474683,51.8358587 L33.1641413,84.5025253 L84.4974747,33.169192 L51.830808,0.502525317 Z M33.1641413,74.6026587 L10.3973413,51.8358587 L51.830808,10.402392 L74.597608,33.169192 L33.1641413,74.6026587 Z" id="Shape"></path>
                        <rect id="Rectangle-path" transform="translate(48.160396, 29.760952) rotate(-135.000000) translate(-48.160396, -29.760952) " x="35.418823" y="25.9856714" width="25.4831461" height="7.5505618"></rect>
                    </g>
                    <g id="Group-3" transform="translate(35.000000, 23.000000)">
                        <polygon id="Path-11" transform="translate(54.411900, 54.672125) scale(1, -1) rotate(-53.000000) translate(-54.411900, -54.672125) " points="55.4014 29.0321493 62.0836697 24.1308008 81.177037 49.8049001 34.3769442 85.2174787 23.426947 70.3978435 17.6270681 74.7997393 32.8375921 95.0643333 91.1967319 51.2016942 63.2751661 14.2799173 51.1710897 23.4210486"></polygon>
                        <rect id="Rectangle-path" fill-rule="nonzero" transform="translate(51.182609, 36.052632) rotate(-180.000000) translate(-51.182609, -36.052632) " x="44.5478261" y="32.2631579" width="13.2695652" height="7.57894737"></rect>
                    </g>
                </g>
            </g>
        </g>
    </g>
</svg>