<?xml version="1.0" encoding="UTF-8"?>
<svg width="71px" height="101px" viewBox="0 0 71 101" version="1.1" xmlns="http://www.w3.org/2000/svg" xmlns:xlink="http://www.w3.org/1999/xlink">
    <!-- Generator: Sketch 47 (45396) - http://www.bohemiancoding.com/sketch -->
    <title>hotel</title>
    <desc>Created with Sketch.</desc>
    <defs></defs>
    <g id="Page-1" stroke="none" stroke-width="1" fill="none" fill-rule="evenodd">
        <g id="Partner_ALL" transform="translate(-762.000000, -1246.000000)" fill-rule="nonzero" fill="#3D1617">
            <g id="Group-12" transform="translate(762.000000, 1246.000000)">
                <g id="hotel">
                    <g id="Group">
                        <path d="M70.9129902,100.845545 L0.0870098039,100.845545 L0.0870098039,0.154454787 L70.9129902,0.154454787 L70.9129902,100.845545 Z M6.84891457,94.2680912 L64.325105,94.2680912 L64.325105,7.04081842 L6.84891457,7.04081842 L6.84891457,94.2680912 Z" id="Shape"></path>
                        <rect id="Rectangle-path" x="14.6507937" y="12.6585771" width="6.76190476" height="6.85278651"></rect>
                        <rect id="Rectangle-path" x="32.6825397" y="12.6585771" width="6.76190476" height="6.85278651"></rect>
                        <rect id="Rectangle-path" x="49.5873016" y="12.6585771" width="6.76190476" height="6.85278651"></rect>
                        <rect id="Rectangle-path" x="14.6507937" y="28.7823138" width="6.76190476" height="6.85278651"></rect>
                        <rect id="Rectangle-path" x="32.6825397" y="28.7823138" width="6.76190476" height="6.85278651"></rect>
                        <rect id="Rectangle-path" x="49.5873016" y="28.7823138" width="6.76190476" height="6.85278651"></rect>
                        <rect id="Rectangle-path" x="14.6507937" y="44.7949408" width="6.76190476" height="6.85278651"></rect>
                        <rect id="Rectangle-path" x="32.6825397" y="44.7949408" width="6.76190476" height="6.85278651"></rect>
                        <rect id="Rectangle-path" x="49.5873016" y="44.7949408" width="6.76190476" height="6.85278651"></rect>
                        <rect id="Rectangle-path" x="14.6507937" y="60.8631226" width="6.76190476" height="6.85278651"></rect>
                        <rect id="Rectangle-path" x="32.6825397" y="60.8631226" width="6.76190476" height="6.85278651"></rect>
                        <rect id="Rectangle-path" x="49.5873016" y="60.8295455" width="6.76190476" height="6.88636364"></rect>
                        <path d="M49.5873016,100.845545 L22.5396825,100.845545 L22.5396825,76.8977273 L49.5873016,76.8977273 L49.5873016,100.845545 Z M29.3015873,95.7861471 L42.8253968,95.7861471 L42.8253968,83.7840909 L29.3015873,83.7840909 L29.3015873,95.7861471 Z" id="Shape"></path>
                    </g>
                </g>
            </g>
        </g>
    </g>
</svg>