<?xml version="1.0" encoding="UTF-8"?>
<svg width="80px" height="67px" viewBox="0 0 80 67" version="1.1" xmlns="http://www.w3.org/2000/svg" xmlns:xlink="http://www.w3.org/1999/xlink">
    <!-- Generator: Sketch 47 (45396) - http://www.bohemiancoding.com/sketch -->
    <title>Shape</title>
    <desc>Created with Sketch.</desc>
    <defs></defs>
    <g id="Page-1" stroke="none" stroke-width="1" fill="none" fill-rule="evenodd">
        <g id="Partner_ALL" transform="translate(-75.000000, -2120.000000)" fill-rule="nonzero" fill="#FFFFFF">
            <g id="Page" transform="translate(0.000000, 1820.000000)">
                <path d="M99.3730959,300 L99.3730959,311.359141 L75,311.359141 L75,367 L155,367 L155,311.359141 L130.626904,311.359141 L130.626904,300 L99.3730959,300 Z M104.997656,305.679571 L125.002344,305.679571 L125.002344,311.359141 L104.997656,311.359141 L104.997656,305.679571 Z M135.501748,355.631766 L127.04031,342.428645 L122.221305,347.24765 L121.905925,352.979097 L119.2189,355.666122 L118.707565,346.970055 L110.011499,346.458721 L112.698524,343.771696 L118.430019,343.456365 L123.249025,338.637359 L110.045904,330.175922 L111.761502,328.460323 L128.137338,333.749046 L135.559198,326.327186 C135.559198,326.327186 139.589639,322.296745 141.485257,324.192364 C143.380924,326.088031 139.350483,330.118472 139.350483,330.118472 L131.928623,337.540332 L137.217347,353.916167 L135.501748,355.631766 Z M80.6245606,317.038712 L149,317.038712 L149,361.320429 L80.6245606,361.320429 L80.6245606,317.038712 Z" id="Shape"></path>
            </g>
        </g>
    </g>
</svg>