<?xml version="1.0" encoding="UTF-8"?>
<svg width="80px" height="85px" viewBox="0 0 80 85" version="1.1" xmlns="http://www.w3.org/2000/svg" xmlns:xlink="http://www.w3.org/1999/xlink">
    <!-- Generator: Sketch 47 (45396) - http://www.bohemiancoding.com/sketch -->
    <title>Combined Shape</title>
    <desc>Created with Sketch.</desc>
    <defs></defs>
    <g id="Page-1" stroke="none" stroke-width="1" fill="none" fill-rule="evenodd">
        <g id="Tourist_ALL" transform="translate(-572.000000, -8470.000000)" fill-rule="nonzero" fill="#FFFFFF">
            <g id="Page-Copy-7" transform="translate(-64.000000, 8009.000000)">
                <g id="restaurant" transform="translate(636.000000, 461.000000)">
                    <g id="Group">
                        <path d="M4.88888889,78.0454545 L63.1111111,78.0454545 L63.1111111,84.6688312 L4.88888889,84.6688312 L4.88888889,78.0454545 Z M16.7777778,8.05844156 L23.4444444,8.05844156 L23.4444444,20.7532468 L16.7777778,20.7532468 L16.7777778,8.05844156 Z M30.6666667,0.331168831 L37.3333333,0.331168831 L37.3333333,20.3116883 L30.6666667,20.3116883 L30.6666667,0.331168831 Z M44.5555556,8.05844156 L51.2222222,8.05844156 L51.2222222,20.4220779 L44.5555556,20.4220779 L44.5555556,8.05844156 Z M68.3333333,34.3311688 C74.4444444,34.3311688 79.5555556,39.1883117 79.5555556,45.3701299 C79.5555556,51.5519481 74.5555556,56.5194805 68.3333333,56.5194805 L62.5555556,56.5194805 C56.6666667,66.1233766 46.1111111,72.525974 34,72.525974 C15.5555556,72.525974 0.555555556,57.6233766 0.555555556,39.2987013 L0.555555556,26.0519481 L67.4444444,26.0519481 L67.4444444,34.3311688 L68.3333333,34.3311688 Z M60.7777778,39.2987013 L60.7777778,32.6753247 L7.22222222,32.6753247 L7.22222222,39.2987013 C7.22222222,53.9805195 19.2222222,65.9025974 34,65.9025974 C48.7777778,65.9025974 60.7777778,53.9805195 60.7777778,39.2987013 Z M68.3333333,50.0064935 C70.7777778,50.0064935 72.8888889,48.0194805 72.8888889,45.4805195 C72.8888889,42.9415584 70.8888889,40.9545455 68.3333333,40.9545455 L67.4444444,40.9545455 C67.2222222,44.1558442 66.6666667,47.1363636 65.6666667,50.0064935 L68.3333333,50.0064935 Z" id="Combined-Shape"></path>
                    </g>
                </g>
            </g>
        </g>
    </g>
</svg>