<?xml version="1.0" encoding="UTF-8"?>
<svg width="84px" height="96px" viewBox="0 0 84 96" version="1.1" xmlns="http://www.w3.org/2000/svg" xmlns:xlink="http://www.w3.org/1999/xlink">
    <!-- Generator: Sketch 47 (45396) - http://www.bohemiancoding.com/sketch -->
    <title>Combined Shape</title>
    <desc>Created with Sketch.</desc>
    <defs></defs>
    <g id="Page-1" stroke="none" stroke-width="1" fill="none" fill-rule="evenodd">
        <g id="Tourist_ALL" transform="translate(-575.000000, -6625.000000)" fill-rule="nonzero" fill="#FFFFFF">
            <g id="Page-Copy-5" transform="translate(0.000000, 6300.000000)">
                <g id="hotel" transform="translate(575.000000, 325.000000)">
                    <g id="Group">
                        <path d="M52.5369736,55.4907931 C38.8601883,53.7198043 28.2954545,42.0245776 28.2954545,27.8613861 C28.2954545,25.3562838 28.6259666,22.9283904 29.2457518,20.6189646 L5.59379178,20.6189646 L5.59379178,90.5991626 L18.4090909,90.5991626 L18.4090909,76.6633663 L40.5,76.6633663 L40.5,90.5991626 L52.5369736,90.5991626 L52.5369736,55.4907931 Z M57.9175719,55.6674319 L57.9175719,95.8760849 L0.0710645054,95.8760849 L0.0710645054,15.0942121 L31.3852826,15.0942121 C36.013924,6.12905461 45.3651942,0 56.1477273,0 C71.530359,0 84,12.4742136 84,27.8613861 C84,42.6539004 72.4755476,54.7542557 57.9175719,55.6674319 Z M11.9659091,25.125948 L17.4886364,25.125948 L17.4886364,30.6237624 L11.9659091,30.6237624 L11.9659091,25.125948 Z M11.9659091,38.0616073 L17.4886364,38.0616073 L17.4886364,43.5594217 L11.9659091,43.5594217 L11.9659091,38.0616073 Z M11.9659091,50.9081262 L17.4886364,50.9081262 L17.4886364,56.4059406 L11.9659091,56.4059406 L11.9659091,50.9081262 Z M26.6931818,50.9081262 L32.2159091,50.9081262 L32.2159091,56.4059406 L26.6931818,56.4059406 L26.6931818,50.9081262 Z M11.9659091,63.7992153 L17.4886364,63.7992153 L17.4886364,69.2970297 L11.9659091,69.2970297 L11.9659091,63.7992153 Z M26.6931818,63.7992153 L32.2159091,63.7992153 L32.2159091,69.2970297 L26.6931818,69.2970297 L26.6931818,63.7992153 Z M40.5,63.7722772 L46.0227273,63.7722772 L46.0227273,69.2970297 L40.5,69.2970297 L40.5,63.7722772 Z M23.9318182,91.8170598 L34.9772727,91.8170598 L34.9772727,82.1881188 L23.9318182,82.1881188 L23.9318182,91.8170598 Z M56.1477273,49.7227723 C68.216158,49.7227723 78,39.9353425 78,27.8613861 C78,15.7874298 68.216158,6 56.1477273,6 C44.0792966,6 34.2954545,15.7874298 34.2954545,27.8613861 C34.2954545,39.9353425 44.0792966,49.7227723 56.1477273,49.7227723 Z M66.0474415,17.4975549 L70.310654,20.7101159 L52.8880342,43.8353469 L42.1955154,28.6182072 L46.5701918,25.5542343 L53.0373286,34.7702909 L66.0474415,17.4975549 Z" id="Combined-Shape"></path>
                    </g>
                </g>
            </g>
        </g>
    </g>
</svg>