<?xml version="1.0" encoding="UTF-8"?>
<svg width="61px" height="85px" viewBox="0 0 61 85" version="1.1" xmlns="http://www.w3.org/2000/svg" xmlns:xlink="http://www.w3.org/1999/xlink">
    <!-- Generator: Sketch 47 (45396) - http://www.bohemiancoding.com/sketch -->
    <title>hotel</title>
    <desc>Created with Sketch.</desc>
    <defs></defs>
    <g id="Page-1" stroke="none" stroke-width="1" fill="none" fill-rule="evenodd">
        <g id="Partner_ALL" transform="translate(-85.000000, -4875.000000)" fill-rule="nonzero" fill="#FFFFFF">
            <g id="Page-Copy-3" transform="translate(0.000000, 2786.000000)">
                <g id="hotel" transform="translate(85.000000, 2089.000000)">
                    <g id="Group">
                        <path d="M60.9252451,84.8700133 L0.074754902,84.8700133 L0.074754902,0.129986702 L60.9252451,0.129986702 L60.9252451,84.8700133 Z M5.88427871,79.3345322 L55.2652311,79.3345322 L55.2652311,5.92544125 L5.88427871,5.92544125 L5.88427871,79.3345322 Z" id="Shape"></path>
                        <rect id="Rectangle-path" x="12.5873016" y="10.653258" width="5.80952381" height="5.76719657"></rect>
                        <rect id="Rectangle-path" x="28.0793651" y="10.653258" width="5.80952381" height="5.76719657"></rect>
                        <rect id="Rectangle-path" x="42.6031746" y="10.653258" width="5.80952381" height="5.76719657"></rect>
                        <rect id="Rectangle-path" x="12.5873016" y="24.2227394" width="5.80952381" height="5.76719657"></rect>
                        <rect id="Rectangle-path" x="28.0793651" y="24.2227394" width="5.80952381" height="5.76719657"></rect>
                        <rect id="Rectangle-path" x="42.6031746" y="24.2227394" width="5.80952381" height="5.76719657"></rect>
                        <rect id="Rectangle-path" x="12.5873016" y="37.6987125" width="5.80952381" height="5.76719657"></rect>
                        <rect id="Rectangle-path" x="28.0793651" y="37.6987125" width="5.80952381" height="5.76719657"></rect>
                        <rect id="Rectangle-path" x="42.6031746" y="37.6987125" width="5.80952381" height="5.76719657"></rect>
                        <rect id="Rectangle-path" x="12.5873016" y="51.2214398" width="5.80952381" height="5.76719657"></rect>
                        <rect id="Rectangle-path" x="28.0793651" y="51.2214398" width="5.80952381" height="5.76719657"></rect>
                        <rect id="Rectangle-path" x="42.6031746" y="51.1931818" width="5.80952381" height="5.79545455"></rect>
                        <path d="M42.6031746,84.8700133 L19.3650794,84.8700133 L19.3650794,64.7159091 L42.6031746,64.7159091 L42.6031746,84.8700133 Z M25.1746032,80.612104 L36.7936508,80.612104 L36.7936508,70.5113636 L25.1746032,70.5113636 L25.1746032,80.612104 Z" id="Shape"></path>
                    </g>
                </g>
            </g>
        </g>
    </g>
</svg>