<?xml version="1.0" encoding="UTF-8"?>
<svg width="91px" height="92px" viewBox="0 0 91 92" version="1.1" xmlns="http://www.w3.org/2000/svg" xmlns:xlink="http://www.w3.org/1999/xlink">
    <!-- Generator: Sketch 47 (45396) - http://www.bohemiancoding.com/sketch -->
    <title>Group</title>
    <desc>Created with Sketch.</desc>
    <defs></defs>
    <g id="Page-1" stroke="none" stroke-width="1" fill="none" fill-rule="evenodd">
        <g id="Partner_ALL" transform="translate(-265.000000, -1518.000000)" fill-rule="nonzero" fill="#FFFFFF">
            <g id="Group-13" transform="translate(265.000000, 1518.000000)">
                <g id="Group">
                    <path d="M45.5,0 C20.4062554,0 0,20.6305588 0,45.999925 C0,71.3694112 20.4062554,92 45.5,92 C70.5937446,92 91,71.3694112 91,45.999925 C91,20.6305588 70.5937446,0 45.5,0 Z M42.2572017,8.01680067 L42.2572017,46.0021848 C42.2572017,46.7908064 42.5698808,47.4784349 43.0810325,47.9952034 L69.6496215,74.8557403 C63.0585988,80.5907374 54.4804963,84.0769493 45.0817643,84.0769493 C24.2488262,84.0769493 7.42092948,67.0640448 7.42092948,46.0021848 C7.42092948,25.9022052 22.7501133,9.47373741 42.2572017,8.01680067 Z M49.4778474,8.25848003 C60.6474804,9.09271776 70.3719467,15.0959393 76.32578,23.9178472 L49.4778474,39.5772776 L49.4778474,8.25848003 Z M84.0040166,46.3871179 C84.0040166,55.6050897 80.6881442,64.0168861 75.1848883,70.4807867 L51.9239146,46.9642106 L80.4078486,30.3439484 C82.7135974,35.1890438 84.0040166,40.6410376 84.0040166,46.3871179 Z" id="Shape"></path>
                </g>
            </g>
        </g>
    </g>
</svg>