<?xml version="1.0" encoding="UTF-8"?>
<svg width="79px" height="80px" viewBox="0 0 79 80" version="1.1" xmlns="http://www.w3.org/2000/svg" xmlns:xlink="http://www.w3.org/1999/xlink">
    <!-- Generator: Sketch 47 (45396) - http://www.bohemiancoding.com/sketch -->
    <title>noun_790479_cc</title>
    <desc>Created with Sketch.</desc>
    <defs></defs>
    <g id="Page-1" stroke="none" stroke-width="1" fill="none" fill-rule="evenodd">
        <g id="Partner_ALL" transform="translate(-759.000000, -1524.000000)" fill-rule="nonzero" fill="#FFFFFF">
            <g id="Group-14" transform="translate(759.000000, 1524.000000)">
                <g id="noun_790479_cc">
                    <g id="Group">
                        <path d="M58.855,45.2 C49.77,45.2 42.66,52.4 42.66,61.6 C42.66,70.8 49.77,78 58.855,78 C67.94,78 75.05,70.8 75.05,61.6 C75.05,52.4 67.545,45.2 58.855,45.2 Z M58.855,69.6 C54.51,69.6 50.955,66 50.955,61.6 C50.955,57.2 54.51,53.6 58.855,53.6 C63.2,53.6 66.755,57.2 66.755,61.6 C66.755,66 63.2,69.6 58.855,69.6 Z" id="Shape"></path>
                        <path d="M18.565,37.2 C27.65,37.2 34.76,30 34.76,20.8 C34.76,11.6 27.255,4.4 18.565,4.4 C9.48,4.4 2.37,11.6 2.37,20.8 C2.37,30 9.48,37.2 18.565,37.2 Z M18.565,12.4 C22.91,12.4 26.465,16 26.465,20.4 C26.465,24.8 22.91,28.4 18.565,28.4 C14.22,28.4 10.665,24.8 10.665,20.4 C10.665,16 13.825,12.4 18.565,12.4 Z" id="Shape"></path>
                        <polygon id="Shape" points="54.905 0 54.905 8 65.175 8 0 74.4 5.53 80 71.1 14 71.1 24.4 79 24.4 79 0"></polygon>
                    </g>
                </g>
            </g>
        </g>
    </g>
</svg>