<?xml version="1.0" encoding="UTF-8"?>
<svg width="68px" height="68px" viewBox="0 0 68 68" version="1.1" xmlns="http://www.w3.org/2000/svg" xmlns:xlink="http://www.w3.org/1999/xlink">
    <!-- Generator: Sketch 47 (45396) - http://www.bohemiancoding.com/sketch -->
    <title>Group</title>
    <desc>Created with Sketch.</desc>
    <defs></defs>
    <g id="Page-1" stroke="none" stroke-width="1" fill="none" fill-rule="evenodd">
        <g id="Partner_ALL" transform="translate(-81.000000, -6679.000000)" fill-rule="nonzero" fill="#FFFFFF">
            <g id="Page-Copy-5" transform="translate(0.000000, 6426.000000)">
                <g id="noun_790479_cc" transform="translate(81.000000, 253.000000)">
                    <g id="Group">
                        <path d="M50.66,38.42 C42.84,38.42 36.72,44.54 36.72,52.36 C36.72,60.18 42.84,66.3 50.66,66.3 C58.48,66.3 64.6,60.18 64.6,52.36 C64.6,44.54 58.14,38.42 50.66,38.42 Z M50.66,59.16 C46.92,59.16 43.86,56.1 43.86,52.36 C43.86,48.62 46.92,45.56 50.66,45.56 C54.4,45.56 57.46,48.62 57.46,52.36 C57.46,56.1 54.4,59.16 50.66,59.16 Z" id="Shape"></path>
                        <path d="M15.98,31.62 C23.8,31.62 29.92,25.5 29.92,17.68 C29.92,9.86 23.46,3.74 15.98,3.74 C8.16,3.74 2.04,9.86 2.04,17.68 C2.04,25.5 8.16,31.62 15.98,31.62 Z M15.98,10.54 C19.72,10.54 22.78,13.6 22.78,17.34 C22.78,21.08 19.72,24.14 15.98,24.14 C12.24,24.14 9.18,21.08 9.18,17.34 C9.18,13.6 11.9,10.54 15.98,10.54 Z" id="Shape"></path>
                        <polygon id="Shape" points="47.26 0 47.26 6.8 56.1 6.8 0 63.24 4.76 68 61.2 11.9 61.2 20.74 68 20.74 68 0"></polygon>
                    </g>
                </g>
            </g>
        </g>
    </g>
</svg>