<?xml version="1.0" encoding="UTF-8"?>
<svg width="80px" height="67px" viewBox="0 0 80 67" version="1.1" xmlns="http://www.w3.org/2000/svg" xmlns:xlink="http://www.w3.org/1999/xlink">
    <!-- Generator: Sketch 47 (45396) - http://www.bohemiancoding.com/sketch -->
    <title>Shape</title>
    <desc>Created with Sketch.</desc>
    <defs></defs>
    <g id="Page-1" stroke="none" stroke-width="1" fill="none" fill-rule="evenodd">
        <g id="Tourist_ALL" transform="translate(-562.000000, -2995.000000)" fill-rule="nonzero" fill="#FFFFFF">
            <g id="Page-Copy" transform="translate(0.000000, 2660.000000)">
                <g id="suitcase" transform="translate(562.000000, 335.000000)">
                    <path d="M24.3730959,0 L24.3730959,11.359141 L0,11.359141 L0,67 L80,67 L80,11.359141 L55.6269041,11.359141 L55.6269041,0 L24.3730959,0 Z M29.9976564,5.6795705 L50.0023436,5.6795705 L50.0023436,11.359141 L29.9976564,11.359141 L29.9976564,5.6795705 Z M62.8075932,17.0387115 L62.8075932,61.3204295 L17.1924068,61.3204295 L17.1924068,17.0387115 L62.8075932,17.0387115 Z M5.62456058,17.0387115 L11.558472,17.0387115 L11.558472,61.3204295 L5.62456058,61.3204295 L5.62456058,17.0387115 Z M74.3754394,61.3204295 L68.4321537,61.3204295 L68.4321537,17.0387115 L74.3660652,17.0387115 L74.3754394,61.3204295 Z" id="Shape"></path>
                </g>
            </g>
        </g>
    </g>
</svg>