<?xml version="1.0" encoding="UTF-8"?>
<svg width="112px" height="86px" viewBox="0 0 112 86" version="1.1" xmlns="http://www.w3.org/2000/svg" xmlns:xlink="http://www.w3.org/1999/xlink">
    <!-- Generator: Sketch 47 (45396) - http://www.bohemiancoding.com/sketch -->
    <title>Group 9</title>
    <desc>Created with Sketch.</desc>
    <defs></defs>
    <g id="Page-1" stroke="none" stroke-width="1" fill="none" fill-rule="evenodd">
        <g id="Partner_ALL" transform="translate(-60.000000, -3920.000000)" fill="#FFFFFF">
            <g id="Page-Copy-2" transform="translate(0.000000, 3696.000000)">
                <g id="Group-9" transform="translate(55.000000, 220.000000)">
                    <g id="tour-copy" transform="translate(49.000000, 48.500000) rotate(8.000000) translate(-49.000000, -48.500000) translate(6.000000, 6.000000)" fill-rule="nonzero">
                        <path d="M52.5555556,0 L0,51.9444444 L33.4444444,85 L86,33.0555556 L52.5555556,0 Z M33.0947744,76.1709142 L8.93295743,52.2900486 L52.9052256,8.82908583 L77.0670426,32.7099514 L33.0947744,76.1709142 Z" id="Shape"></path>
                        <rect id="Rectangle-path" transform="translate(48.797753, 30.084270) rotate(-135.000000) translate(-48.797753, -30.084270) " x="35.752809" y="26.741573" width="26.0898876" height="6.68539326"></rect>
                    </g>
                    <polygon id="Path-11" transform="translate(80.000000, 46.000000) rotate(-8.000000) translate(-80.000000, -46.000000) " points="76.2422709 22.5199133 87.6450826 14.046847 108.742401 41.3149164 59.0782916 78.5182358 48.1512627 63.7871589 43 67.0183258 57.888208 87 117 42.4773484 88.7183325 5 72.6404331 17.1602525"></polygon>
                </g>
            </g>
        </g>
    </g>
</svg>