<?xml version="1.0" encoding="UTF-8"?>
<svg width="90px" height="77px" viewBox="0 0 90 77" version="1.1" xmlns="http://www.w3.org/2000/svg" xmlns:xlink="http://www.w3.org/1999/xlink">
    <!-- Generator: Sketch 47 (45396) - http://www.bohemiancoding.com/sketch -->
    <title>Shape</title>
    <desc>Created with Sketch.</desc>
    <defs></defs>
    <g id="Page-1" stroke="none" stroke-width="1" fill="none" fill-rule="evenodd">
        <g id="Tourist_ALL" transform="translate(-552.000000, -5731.000000)" fill-rule="nonzero" fill="#FFFFFF">
            <g id="Page-Copy-4" transform="translate(0.000000, 5390.000000)">
                <g id="noun_681797_cc" transform="translate(602.944713, 372.450751) rotate(-307.000000) translate(-602.944713, -372.450751) translate(561.444713, 324.450751)">
                    <g id="Group" transform="translate(0.000000, 0.676832)">
                        <path d="M41.4809327,0.257280965 C38.2147074,0.257280965 35.555897,2.58526381 33.7543282,5.66258802 C31.9527594,8.73990162 30.869287,12.7816546 30.869287,17.2359142 L30.869287,28.8755631 L0.0955142967,51.0271982 L0.0955142967,68.167748 L31.0019326,54.3766955 L31.8972902,70.360487 L20.2576412,79.7891166 L20.2576412,94.733402 L39.0269897,87.2395829 L41.4477714,87.272479 C41.4625088,87.2727093 42.2915437,87.261744 43.9348758,87.2395829 C56.4477748,92.1071059 62.7042243,94.5408674 62.7042243,94.5408674 C62.7042243,94.5408674 62.7042243,89.6236171 62.7042243,79.7891166 L51.0645753,70.360487 L51.9599329,54.3766955 C72.5642118,63.5707305 82.8663512,68.167748 82.8663512,68.167748 C82.8663512,68.167748 82.8663512,62.5256614 82.8663512,51.2414882 L52.0925785,28.8755631 L52.0925785,17.2359142 C52.0925785,12.7816546 51.0091061,8.73990162 49.2075373,5.66258802 C47.4059685,2.58526381 44.747158,0.257280965 41.4809327,0.257280965 Z M41.4809327,6.67651856 C42.5353777,6.67651856 43.6144137,7.95315087 44.6632261,10.3186407 C45.7120384,12.6841306 45.703173,15.3733951 45.703173,18.9053541 L45.7120384,31.4325704 L76.4993637,53.6205086 L76.4993637,59.4128574 L47.4840923,46.451112 L45.8552711,73.4659614 L57.4893583,82.90776 L57.4893583,86.0031892 L44.6632261,80.9067068 L38.3147354,80.9067068 L25.4725071,86.0031892 L25.4725071,82.90776 L37.1102169,73.4659614 L35.4777731,46.451112 L6.46250175,59.4128574 L6.46250175,53.6205086 L37.1102169,31.4325704 L37.1102169,18.9053541 C37.1102169,15.3733951 37.1102169,12.8199425 38.2301721,10.3186407 C39.3501273,7.81733892 40.4264878,6.67651856 41.4809327,6.67651856 Z" id="Shape"></path>
                    </g>
                </g>
            </g>
        </g>
    </g>
</svg>