<?xml version="1.0" encoding="UTF-8"?>
<svg width="78px" height="78px" viewBox="0 0 78 78" version="1.1" xmlns="http://www.w3.org/2000/svg" xmlns:xlink="http://www.w3.org/1999/xlink">
    <!-- Generator: Sketch 47 (45396) - http://www.bohemiancoding.com/sketch -->
    <title>Shape</title>
    <desc>Created with Sketch.</desc>
    <defs></defs>
    <g id="Page-1" stroke="none" stroke-width="1" fill="none" fill-rule="evenodd">
        <g id="Partner_ALL" transform="translate(-76.000000, -5693.000000)" fill-rule="nonzero" fill="#FFFFFF">
            <g id="Page-Copy-4" transform="translate(-178.000000, 5516.000000)">
                <g id="Group" transform="translate(254.000000, 177.000000)">
                    <path d="M39,0 C17.4910761,0 0,17.4911259 0,38.9999364 C0,60.5088486 17.4910761,78 39,78 C60.5089239,78 78,60.5088486 78,38.9999364 C78,17.4911259 60.5089239,0 39,0 Z M36.2204586,6.79685274 L36.2204586,39.0018524 C36.2204586,39.6704663 36.4884692,40.2534557 36.9265992,40.6915855 L59.6996755,63.4646494 C54.0502275,68.3269295 46.6975683,71.2826309 38.6415122,71.2826309 C20.7847082,71.2826309 6.36079669,56.8586467 6.36079669,39.0018524 C6.36079669,21.9605653 19.5000971,8.03208172 36.2204586,6.79685274 Z M42.4095835,7.00175481 C51.9835546,7.70904331 60.3188115,12.7987311 65.4220971,20.2781748 L42.4095835,33.5546484 L42.4095835,7.00175481 Z M72.0034428,39.3282086 C72.0034428,47.1434456 69.1612665,54.2751861 64.44419,59.7554496 L44.5062125,39.8174829 L68.9210131,25.726391 C70.8973692,29.8341893 72.0034428,34.4565319 72.0034428,39.3282086 Z" id="Shape"></path>
                </g>
            </g>
        </g>
    </g>
</svg>