<?xml version="1.0" encoding="UTF-8"?>
<svg width="89px" height="86px" viewBox="0 0 89 86" version="1.1" xmlns="http://www.w3.org/2000/svg" xmlns:xlink="http://www.w3.org/1999/xlink">
    <!-- Generator: Sketch 47 (45396) - http://www.bohemiancoding.com/sketch -->
    <title>noun_1091876_cc</title>
    <desc>Created with Sketch.</desc>
    <defs></defs>
    <g id="Page-1" stroke="none" stroke-width="1" fill="none" fill-rule="evenodd">
        <g id="Tourist_ALL" transform="translate(-562.000000, -7566.000000)" fill-rule="nonzero" fill="#FFFFFF">
            <g id="Page-Copy-6" transform="translate(0.000000, 7210.000000)">
                <g id="noun_1091876_cc" transform="translate(556.000000, 356.000000)">
                    <g id="Group">
                        <path d="M82.325,35.7625 L95,35.7625 L79.4,17.2375 L63.8,35.7625 L75.9875,35.7625 C74.525,44.2125 67.2125,50.55 58.275,50.55 L41.2125,50.55 C27.8875,50.55 17,61.4375 17,74.7625 L23.175,74.7625 C23.175,64.85 31.3,56.8875 41.05,56.8875 L58.275,56.8875 C70.625,56.725 80.7,47.625 82.325,35.7625 Z" id="Shape"></path>
                        <circle id="Oval" cx="26.2625" cy="16.2625" r="4.875"></circle>
                        <circle id="Oval" cx="52.2625" cy="38.0375" r="4.875"></circle>
                        <polygon id="Shape" points="86.4 70.45 77.95 70.45 77.95 62 71.45 62 71.45 70.45 63 70.45 63 76.95 71.45 76.95 71.45 85.4 77.95 85.4 77.95 76.95 86.4 76.95"></polygon>
                        <polygon id="Shape-Copy" points="63.4 8.45 54.95 8.45 54.95 -7.10542736e-15 48.45 -7.10542736e-15 48.45 8.45 40 8.45 40 14.95 48.45 14.95 48.45 23.4 54.95 23.4 54.95 14.95 63.4 14.95"></polygon>
                        <polygon id="Shape-Copy-2" transform="translate(16.700000, 37.700000) rotate(-315.000000) translate(-16.700000, -37.700000) " points="28.4 34.45 19.95 34.45 19.95 26 13.45 26 13.45 34.45 5 34.45 5 40.95 13.45 40.95 13.45 49.4 19.95 49.4 19.95 40.95 28.4 40.95"></polygon>
                        <circle id="Oval" cx="90.125" cy="59.4875" r="4.875"></circle>
                        <circle id="Oval" cx="43" cy="74.925" r="4.875"></circle>
                    </g>
                </g>
            </g>
        </g>
    </g>
</svg>