<?xml version="1.0" encoding="UTF-8"?>
<svg width="89px" height="86px" viewBox="0 0 89 86" version="1.1" xmlns="http://www.w3.org/2000/svg" xmlns:xlink="http://www.w3.org/1999/xlink">
    <!-- Generator: Sketch 47 (45396) - http://www.bohemiancoding.com/sketch -->
    <title>Combined Shape</title>
    <desc>Created with Sketch.</desc>
    <defs></defs>
    <g id="Page-1" stroke="none" stroke-width="1" fill="none" fill-rule="evenodd">
        <g id="Tourist_ALL" transform="translate(-562.000000, -7566.000000)" fill-rule="nonzero" fill="#FFFFFF">
            <g id="Page-Copy-6" transform="translate(0.000000, 7210.000000)">
                <g id="noun_1091876_cc" transform="translate(562.000000, 356.000000)">
                    <path d="M76.325,35.7625 C74.7,47.625 64.625,56.725 52.275,56.8875 L35.05,56.8875 C25.3,56.8875 17.175,64.85 17.175,74.7625 L11,74.7625 C11,61.4375 21.8875,50.55 35.2125,50.55 L52.275,50.55 C61.2125,50.55 68.525,44.2125 69.9875,35.7625 L57.8,35.7625 L73.4,17.2375 L89,35.7625 L76.325,35.7625 Z M20.2625,21.1375 C17.5701118,21.1375 15.3875,18.9548882 15.3875,16.2625 C15.3875,13.5701118 17.5701118,11.3875 20.2625,11.3875 C22.9548882,11.3875 25.1375,13.5701118 25.1375,16.2625 C25.1375,18.9548882 22.9548882,21.1375 20.2625,21.1375 Z M46.2625,42.9125 C43.5701118,42.9125 41.3875,40.7298882 41.3875,38.0375 C41.3875,35.3451118 43.5701118,33.1625 46.2625,33.1625 C48.9548882,33.1625 51.1375,35.3451118 51.1375,38.0375 C51.1375,40.7298882 48.9548882,42.9125 46.2625,42.9125 Z M80.4,70.45 L80.4,76.95 L71.95,76.95 L71.95,85.4 L65.45,85.4 L65.45,76.95 L57,76.95 L57,70.45 L65.45,70.45 L65.45,62 L71.95,62 L71.95,70.45 L80.4,70.45 Z M57.4,8.45 L57.4,14.95 L48.95,14.95 L48.95,23.4 L42.45,23.4 L42.45,14.95 L34,14.95 L34,8.45 L42.45,8.45 L42.45,0 L48.95,0 L48.95,8.45 L57.4,8.45 Z M21.2712464,43.6750523 L16.6750523,48.2712464 L10.7,42.2961941 L4.7249477,48.2712464 L0.128753621,43.6750523 L6.10380592,37.7 L0.128753621,31.7249477 L4.7249477,27.1287536 L10.7,33.1038059 L16.6750523,27.1287536 L21.2712464,31.7249477 L15.2961941,37.7 L21.2712464,43.6750523 Z M84.125,64.3625 C81.4326118,64.3625 79.25,62.1798882 79.25,59.4875 C79.25,56.7951118 81.4326118,54.6125 84.125,54.6125 C86.8173882,54.6125 89,56.7951118 89,59.4875 C89,62.1798882 86.8173882,64.3625 84.125,64.3625 Z M37,79.8 C34.3076118,79.8 32.125,77.6173882 32.125,74.925 C32.125,72.2326118 34.3076118,70.05 37,70.05 C39.6923882,70.05 41.875,72.2326118 41.875,74.925 C41.875,77.6173882 39.6923882,79.8 37,79.8 Z" id="Combined-Shape"></path>
                </g>
            </g>
        </g>
    </g>
</svg>