<?xml version="1.0" encoding="UTF-8"?>
<svg width="94px" height="90px" viewBox="0 0 94 90" version="1.1" xmlns="http://www.w3.org/2000/svg" xmlns:xlink="http://www.w3.org/1999/xlink">
    <!-- Generator: Sketch 47 (45396) - http://www.bohemiancoding.com/sketch -->
    <title>Combined Shape</title>
    <desc>Created with Sketch.</desc>
    <defs></defs>
    <g id="Page-1" stroke="none" stroke-width="1" fill="none" fill-rule="evenodd">
        <g id="Tourist_ALL" transform="translate(-557.000000, -3985.000000)" fill-rule="nonzero" fill="#FFFFFF">
            <g id="Page-Copy-2" transform="translate(0.000000, 3611.000000)">
                <g id="tour" transform="translate(604.264984, 418.854225) rotate(8.000000) translate(-604.264984, -418.854225) translate(557.764984, 372.354225)">
                    <path d="M74.368994,26.2367907 C70.1349496,26.2367907 66.7023274,22.8041685 66.7023274,18.5701241 C66.7023274,16.4531019 67.5599718,14.5364352 68.9481496,13.1492796 L56.4801052,0.681235188 L0.257882933,56.9034574 L12.7259274,69.3715019 C14.1130829,67.9833241 16.0297496,67.1256796 18.1467718,67.1256796 C22.3808163,67.1256796 25.8134385,70.5583019 25.8134385,74.7923463 C25.8134385,76.9093685 24.955794,78.8260352 23.5676163,80.2131907 L36.0356607,92.6812352 L92.2578829,36.459013 L79.7898385,23.9909685 C78.4026829,25.3791463 76.4860163,26.2367907 74.368994,26.2367907 Z M70.504651,47.2230708 L66.0441362,42.9131244 L60.9061916,47.8596387 L65.2142705,52.3510798 L36.0356607,81.8385241 L32.9628607,78.7657241 C33.3042829,77.4848796 33.4801052,76.1519019 33.4801052,74.7913241 C33.4801052,66.3365241 26.6015718,59.4579907 18.1467718,59.4579907 C16.786194,59.4579907 15.4532163,59.633813 14.1723718,59.9752352 L11.100594,56.9034574 L40.7589648,27.1390542 L45.1793764,31.8638354 L50.4705102,27.1116667 L45.8193496,22.1847019 L56.4801052,11.5239463 L59.5529052,14.5967463 C59.2114829,15.8765685 59.0356607,17.2095463 59.0356607,18.5701241 C59.0356607,27.0249241 65.914194,33.9034574 74.368994,33.9034574 C75.7295718,33.9034574 77.0625496,33.7276352 78.343394,33.386213 L81.4151718,36.459013 L70.504651,47.2230708 Z M55.7578829,42.1309827 L50.8081355,37.1812352 L55.7578829,32.2314877 L60.7076304,37.1812352 L55.7578829,42.1309827 Z" id="Combined-Shape"></path>
                </g>
            </g>
        </g>
    </g>
</svg>