<?xml version="1.0" encoding="UTF-8"?>
<svg width="332px" height="371px" viewBox="0 0 332 371" version="1.1" xmlns="http://www.w3.org/2000/svg" xmlns:xlink="http://www.w3.org/1999/xlink">
    <!-- Generator: Sketch 47 (45396) - http://www.bohemiancoding.com/sketch -->
    <title>shutterstock_499324204</title>
    <desc>Created with Sketch.</desc>
    <defs></defs>
    <g id="Page-1" stroke="none" stroke-width="1" fill="none" fill-rule="evenodd">
        <g id="Tourist_ALL" transform="translate(-827.000000, -1167.000000)">
            <g id="INFO" transform="translate(119.000000, 1064.000000)">
                <g id="Info">
                    <g id="shutterstock_499324204" transform="translate(708.000000, 103.000000)">
                        <path d="M332,184 C332,275.679871 257.679104,350 165.999506,350 C74.3199079,350 0,275.679871 0,184 C0,92.320129 74.3199079,18 165.999506,18 C257.679104,18 332,92.320129 332,184" id="Fill-2" fill="#EEF2F5"></path>
                        <path d="M175.728511,276.561 L176,276.561 C176,276.356 175.928511,276.229 175.867234,276.159 C175.780426,276.058 175.661277,276 175.52766,276 L175.529362,276.315 L175.52766,276.315 L175.52766,276 C175.27234,276.002 175,276.212 175,276.52 L175.27234,276.52 C175.27234,276.578 175.294468,276.636 175.37617,276.693 C175.406809,276.481 175.630638,276.597 175.723404,276.693 C175.734468,276.64 175.729362,276.602 175.728511,276.561" id="Fill-3" fill="#FFFFFF"></path>
                        <path d="M253.381571,96 L2.49148911,154.888498 C0.858212576,164.154435 0,173.684076 0,183.412721 C0,191.768926 0.63351332,199.978083 1.84609741,208 L255,98.3870668 L253.381571,96" id="Fill-516" fill="#FFFFFF"></path>
                        <path d="M301,354.500491 C301,363.613261 233.618854,371 150.499507,371 C67.3811457,371 0,363.613261 0,354.500491 C0,345.387722 67.3811457,338 150.499507,338 C233.618854,338 301,345.387722 301,354.500491" id="Fill-517" fill="#BEBEBE"></path>
                        <path d="M283,97.2009582 C283,97.2009582 285.171684,95.4250732 287.738492,94.1240351 C290.150037,92.9017833 293.31799,92 293.31799,92 L295,97.0582912 C295,97.0582912 292.904951,98.2134682 289.459318,99.1684855 C287.074645,99.8285866 283.93058,100 283.93058,100 L283,97.2009582" id="Fill-631" fill="#ADAFB2"></path>
                        <path d="M282.84341,99.321576 C283.043888,100.144066 283.053212,100.890651 282.863614,100.989214 C282.674015,101.087777 282.357758,100.499799 282.15728,99.6773086 C281.956026,98.8559516 281.946701,98.1093664 282.1363,98.0108035 C282.325899,97.9122407 282.642156,98.4990861 282.84341,99.321576" id="Fill-632" fill="#D3D8E6"></path>
                        <polyline id="Fill-634" fill="#DEDEDE" points="278.015474 88 262 76.7931457 265.145721 76 295 81.7880049 278.015474 88"></polyline>
                        <path d="M243,89.2204531 C243,89.2204531 246.879761,88.2745559 247.385041,88.0764356 C247.890321,87.8793314 248.296527,88.1973398 248.296527,88.1973398 C248.296527,88.1973398 257.587742,92.1780331 258.158411,92.0642409 C258.729081,91.9494328 284.505315,82.2191878 290.276409,80.0114169 C296.048494,77.8026299 304.091369,75.644643 309.364118,75.1386744 C314.636868,74.6316897 319.565828,75.5643789 319.978969,77.129021 C320.592241,79.4556641 307.683813,86.094217 295.55114,90.5036629 C272.043714,99.0451862 256.849636,101.168629 253.127404,100.989813 L243,89.2204531" id="Fill-635" fill="#ADAFB2"></path>
                        <path d="M280.868284,90.8221221 L271,118 L275.342397,116.876495 L298,86 C298,86 292.586687,86.1640516 288.571242,87.4645332 C284.555797,88.766009 280.868284,90.8221221 280.868284,90.8221221" id="Fill-636" fill="#DEDEDE"></path>
                        <polyline id="Fill-638" fill="#ADAFB2" points="261.146434 75 260 72.1019275 260.996199 72 264 74.2061418 261.146434 75"></polyline>
                        <polyline id="Fill-639" fill="#ADAFB2" points="270.806899 117 269 113.125456 270.473303 113 275 116.029001 270.806899 117"></polyline>
                        <path d="M69.7937285,76 L57,100.03428 C57,100.03428 57.3714661,102.385123 59.9985456,104.61124 C62.0316768,106.33446 65.7413714,107 65.7413714,107 L85,88.1174199 L69.7937285,76" id="Fill-640" fill="#C68C3D"></path>
                        <polygon id="Fill-641" fill="#ADAFB2" points="68 74.6994642 70.1515714 72 88.1020593 86.3402259 85.9504879 89.0396901"></polygon>
                        <polyline id="Fill-642" fill="#ADAFB2" points="73 73.3013145 75.7708543 72 87 80.9605662 86.4060302 84 73 73.3013145"></polyline>
                        <path d="M323.820536,339.247478 L294.266567,244.80392 C293.820716,243.37877 292.586204,242.340235 291.101025,242.139037 L246.043334,236.036042 C245.166494,235.91769 244.343156,236.09719 243.651591,236.480846 L243.651591,236.480846 L219,247.130514 L297.746185,354 L321.653701,343.927296 L321.65271,343.925323 C323.360814,343.190558 324.4477,341.253537 323.820536,339.247478" id="Fill-644" fill="#51AAE5"></path>
                        <path d="M84.3104208,100.686701 C83.7926501,99.2063017 82.8776585,97.2443742 82.3134466,96.0574677 C81.9834172,95.3630329 81.3045843,93.8507967 80.480499,92.1853471 L78.3165338,94.2984982 L78.2809618,94.5342877 C74.7385805,90.9337727 71.3157608,87.4675681 70.8711105,87.0109125 C69.9857622,86.101581 63.2705535,80.6316634 62.9553458,81.0196714 C62.63915,81.4086743 67.2022509,86.5184409 68.2041964,87.6337151 C69.20713,88.7489893 74.5913519,94.5382673 74.1269393,94.7969392 C73.6625267,95.0566061 67.9719901,90.3716585 66.6311222,89.2066397 C65.2902543,88.040626 58.5888792,83.5248101 58.3240652,83.7317477 C58.0602393,83.9386853 63.7033465,89.5070972 64.7655669,90.533826 C65.8267991,91.5595599 72.2762056,97.2374099 71.8700916,97.4085314 C71.4639776,97.578658 66.8732096,94.1293665 65.1143704,92.7225889 C63.3565192,91.3168062 58.5444142,88.7917696 58.3211009,89.1738083 C58.0977876,89.5558469 61.7804807,92.6539413 63.5077004,94.2935238 C65.2359081,95.9331062 70.4195433,99.5853556 69.9936671,99.8609408 C69.5668027,100.135531 64.2132123,97.2622822 63.0818241,96.6802703 C61.9514241,96.0992532 57.2015701,94.300488 57.0039477,94.5909965 C56.8063253,94.8825 64.0808053,99.7823443 67.0698439,101.936286 C70.0598706,104.089233 76.1397233,111.065417 79.3273723,113.848131 C80.8599339,115.185266 89,107.25299 89,107.25299 C89,107.25299 86.0485097,103.847474 84.3104208,100.686701" id="Fill-645" fill="#FDCF9C"></path>
                        <path d="M133.5622,111 C129.433857,107.292036 124.217346,93.0431015 125.098373,78.2606467 C125.480091,71.8505033 127.880753,63.087932 127.905176,63 L128.565494,63.21736 C128.541976,63.304304 126.163927,71.9868473 125.786732,78.3090587 C124.920177,92.8543935 129.986534,106.812856 134,110.41708 L133.5622,111" id="Fill-646" fill="#262223"></path>
                        <path d="M176.307662,41.9259908 C163.435887,50.9278016 157,55.428707 157,55.428707 L164.052393,65 C164.052393,65 168.988879,62.7826894 178.861851,58.3480683 L202.016391,65 L209.916092,51.6030699 L176.307662,41.9259908 Z" id="Fill-647" fill="#BC1A5B"></path>
                        <path d="M162.090364,67.6452923 C161.831259,70.2044121 160.720116,72.6103877 159.35278,74.8934449 C159.108232,75.7901443 158.657305,77.1076544 158,78.8459751 L181.938743,76.2589272 L184.220752,64.8566658 C184.220752,64.8566658 168.149732,68.5258713 162.05931,66 C162.120771,66.6992241 162.131122,67.2476548 162.090364,67.6452923 Z" id="Fill-648" fill="#BC1A5B"></path>
                        <path d="M138.252667,82 C138.252667,82 137.77523,77.0536911 137.050947,73.4010017 C136.326665,69.7483123 135,66.9795301 135,66.9795301 L155.811174,41 C155.811174,41 156.837156,46.8907305 157.923071,51.4858574 C159.008986,56.0809843 161,63.4865591 161,63.4865591 C161,63.4865591 157.862122,72.2750369 151.830162,76.4902127 C145.798203,80.7063805 138.252667,82 138.252667,82" id="Fill-649" fill="#FDCF9C"></path>
                        <path d="M162.978273,27.3653123 L159.97835,14.2156295 C153.749244,15.992618 147.88284,15.992618 142.379139,14.2156295 C136.875438,12.438641 127.900607,7.87651283 115.454648,0.529245101 L108.617372,26.3946265 C122.96536,26.3946265 130.925455,26.3946265 132.497658,26.3946265 C134.855961,26.3946265 156.412783,36 156.412783,36 C156.412783,36 158.60128,33.1217708 162.978273,27.3653123 Z" id="Fill-650" fill="#262223"></path>
                        <path d="M216.276889,344.495927 C217.274442,346.00459 220.324385,352.543694 219.971785,354.220821 C219.737377,355.338279 204.187394,358.72148 173.321837,364.370423 L170.12754,359.652364 C191.665586,349.435762 203.256027,344.066763 204.898861,343.545367 C207.362125,342.763272 213.176574,342 213.176574,342 C213.176574,342 215.280324,342.986324 216.276889,344.495927 Z" id="Fill-651" fill="#3A1315"></path>
                        <path d="M99.9967035,350.69456 C99.9236821,352.488549 98.5432768,359.574471 97.2418948,360.77615 C96.3749736,361.577269 81.2247315,355.896463 51.7911687,343.733734 L55.7922276,339.006379 C77.9581352,341.79306 89.7144194,343.368844 91.0610802,343.733734 C93.5888223,344.419865 98.9053831,346.939789 98.9053831,346.939789 C98.9053831,346.939789 100.069725,348.899624 99.9967035,350.69456 Z" id="Fill-652" fill="#3A1315"></path>
                        <path d="M199,337.222987 C199,337.222987 204.631972,346.237767 205.199581,346.67291 C205.76719,347.10903 208.124873,347.10903 209.696336,346.67291 C211.268778,346.237767 213.539213,344.234157 212.884355,342.405581 C212.229498,340.576028 208.473869,334 208.473869,334 L199,337.222987" id="Fill-653" fill="#FDCF9C"></path>
                        <path d="M91.5283758,333 C91.5283758,333 89.0496179,344.511546 89.006434,345.111095 C88.9642097,345.709684 89.0496179,348.576761 91.8277844,349.647111 C94.6059508,350.7165 97.3841173,349.176311 98.3236077,347.421859 C99.2640579,345.667408 102,337.364991 102,337.364991 L91.5283758,333" id="Fill-654" fill="#FDCF9C"></path>
                        <path d="M155.454408,282.784015 C180.001613,318.988491 192.814704,337.521136 193.893683,338.381952 C195.511177,339.674164 202.215701,338.734913 205.799103,337.442701 C209.382506,336.151477 211,333.568041 211,333.568041 C211,333.568041 200,310.083129 178,263.113305 C178.423676,220.371102 178.635514,199 178.635514,199 L145,236.575991 L155.454408,282.784015 Z" id="Fill-655" fill="#8C7057"></path>
                        <path d="M100.276555,259.409629 C92.533698,307.436682 88.779416,331.684932 89.013709,332.154377 C89.3651486,332.858545 90.127259,335.849036 96.3416183,338.136347 C102.555977,340.423658 104.958797,340.189594 105.486944,339.602952 C105.838383,339.211857 112.305217,316.687841 124.887445,272.030903 C138.6079,256.592925 149.219777,243.98657 156.723077,234.211838 C167.979014,219.549739 179,198.788145 179,198.788145 L131.046273,187 L100.276555,259.409629 Z" id="Fill-656" fill="#8C7057"></path>
                        <path d="M207,176.807824 C207,176.807824 208.628571,185.998501 208.804163,188.275552 C209.019312,191.052467 209.019312,201.138274 210.308276,201.138274 C210.754975,201.138274 211.549,195.378261 211.726522,193.78513 C211.870276,192.493728 212.055517,190.649156 212.34206,190.589816 C212.628604,190.52947 214.662388,196.980444 215.350285,199.130768 C216.037218,201.281093 218.816788,208.059946 219.217177,207.9996 C219.618531,207.94026 217.842346,198.832056 217.584747,197.99526 C217.327147,197.15947 215.693752,189.544826 215.923373,189.42514 C216.152029,189.305454 219.045444,196.950271 219.417854,198.025433 C219.790264,199.100595 222.626756,207.163809 223.28571,207.223149 C223.944664,207.283495 221.623371,198.354318 221.308849,197.069957 C220.993361,195.785595 219.103331,188.768376 219.331987,188.70803 C219.561608,188.64869 222.368191,195.636742 223.199843,197.577868 C224.03053,199.518993 226.006427,203.729123 226.751247,203.789469 C227.496068,203.848809 224.66054,195.128831 224.316109,193.635271 C223.972643,192.142716 221.995781,187.737468 222.296797,187.693214 C222.597812,187.647955 227.195052,197.99526 227.754632,197.77198 C228.677939,197.401859 226.801416,192.371025 225.347473,187.647955 C223.947558,183.100893 218.945105,173 218.945105,173 C218.945105,173 207.085867,174.747013 207,176.807824" id="Fill-657" fill="#FDCF9C"></path>
                        <path d="M193.817412,147.362604 C198.843328,155.426002 205.973297,176.889459 205.973297,176.889459 C205.973297,176.889459 208.951253,177.402657 213.684884,176.217509 C219.183178,174.839662 220,172.738945 220,172.738945 C220,172.738945 218.480514,161.354737 214.505642,147.718049 C211.856384,138.626923 208.177681,128.726269 203.469535,118.016087 C184.489845,102.005362 175,94 175,94 L183.649455,136.216024 C183.649455,136.216024 188.792481,139.299206 193.817412,147.362604 Z" id="Fill-658" fill="#51AAE5"></path>
                        <path d="M134.237637,130.288089 C129.15096,159.304211 120.633989,177.46846 120.633989,177.46846 C120.633989,177.46846 119.806295,179.414984 120.042352,180.476635 C120.279405,181.538285 125.720666,196.458989 150.680941,201.884429 C175.641216,207.309869 184.276714,200.587408 184.276714,200.587408 C184.592121,199.722065 188.296652,179.22623 195.39031,139.099902 C181.19901,104.995462 172.723208,85.3879318 169.962903,80.2773125 C165.822445,72.6103904 160.262658,64 160.262658,64 C160.262658,64 156.569414,71.1077929 150.443888,76.384264 C144.352226,81.6329276 138.137058,82.8107734 138.137058,82.8107734 C138.137058,82.8107734 139.324314,101.271967 134.237637,130.288089 Z" id="Fill-660" fill="#FEE800"></path>
                        <path d="M126.829943,26.5114713 C126.829943,26.5114713 125.993485,29.5555215 125.158032,35.7654653 C124.32258,41.9764244 123.784714,47.7040719 124.083305,49.0311479 C124.381896,50.3572085 130.543735,55.3974571 140.382168,51.6233628 C150.220601,47.8492685 155.098598,41.1021991 155.098598,41.1021991 C155.098598,41.1021991 155.307712,41.7053232 156.322119,41.7053232 C157.33753,41.7053232 158.203143,40.4381535 158.770165,37.4235487 C159.337187,34.4089439 158.889803,31.6349795 157.038939,31.2136049 C155.188075,30.7912151 155.024202,34.288116 154.292301,34.3185768 C153.561406,34.3490376 152.443448,29.3179272 151.098279,27.33899 C149.530926,25.0331067 145.485365,23.540527 141.500126,24.1284206 C137.514887,24.7163142 135.247805,26.3896281 126.829943,26.5114713" id="Fill-661" fill="#FDCF9C"></path>
                        <path d="M149.278619,56.4368199 C146.993588,60.5548675 142.296036,64.7301476 135.185964,68.9626603 L123.539773,67.0171154 C123.059812,53.4603439 123.059812,46.4819811 123.539773,46.0820268 C124.259714,45.4820954 128.323046,41.6970912 132.679864,41.7425406 C135.58441,41.7721668 140.413054,43.2186622 147.165798,46.0820268 C150.258773,39.8001979 152.182838,36.779135 152.937994,37.0188383 C153.275467,37.1258967 153.081787,38.224761 153.604136,39.2145468 C154.127462,40.2043326 155,40.1457534 155,40.1457534 C155,40.1457534 152.705187,50.2587385 149.278619,56.4368199 Z" id="Fill-662" fill="#262223"></path>
                        <path d="M152.484751,78.851655 C161.47936,70.5919881 165.976664,66.4621547 165.976664,66.4621547 C165.976664,66.4621547 165.515201,63.7035975 164.592273,58.1864829 L157.73013,52.5928991 L148,67.1506004 C137.114417,69.8293132 131.268762,71.3639441 130.463034,71.7544932 C129.077648,72.4250022 130.934485,83.2796761 134.256615,84 C134.256615,84 140.33266,82.283885 152.484751,78.851655 Z" id="Fill-663" fill="#E9266F"></path>
                        <path d="M156.872031,37.840036 C156.537708,39.2072746 155.65256,40.1640376 154.894293,39.9765364 C154.137032,39.7890352 153.793647,38.5282162 154.127969,37.159964 C154.463299,35.7927254 155.348447,34.8359624 156.105707,35.0234636 C156.862968,35.2109648 157.206353,36.4717838 156.872031,37.840036" id="Fill-664" fill="#262223"></path>
                        <path d="M134.936571,112 C131.266472,87.4723642 139.099755,81.3869691 146.010679,76.0180849 C148.164783,74.3455662 150.198034,72.7650855 151.849385,70.7095698 C154.441465,67.4852704 154.04603,62.7814351 153.664131,58.2300069 C153.510404,56.3892466 153.364413,54.6504209 153.401152,52.9887884 C153.532642,47.1567453 155.262306,39.0801621 155.279709,39 L156,39.1623036 C155.982597,39.2424657 154.268402,47.2487833 154.139813,53.0056126 C154.103073,54.6266692 154.247131,56.3457018 154.399891,58.1656793 C154.794359,62.8675352 155.201396,67.7277361 152.419817,71.1905427 C150.712389,73.3123653 148.6453,74.9195667 146.457356,76.6197958 C139.380137,82.1173352 132.062176,87.8019197 135.665563,111.88619 L134.936571,112" id="Fill-666" fill="#262223"></path>
                        <path d="M172.156845,181 L169.389785,180.682436 C169.481629,179.851806 178.464805,97.4498142 163.755026,80.5603531 C162.171197,78.7422973 160.425174,77.8491476 158.416319,77.8292998 C158.391893,77.8292998 158.365512,77.8292998 158.340108,77.8292998 C139.58917,77.8292998 116.864492,145.630279 109.683032,171.792619 L107,171.032449 C107.065464,170.794276 113.665567,146.873742 123.115782,123.292605 C135.957404,91.2473856 147.809255,75 158.343039,75 C158.377237,75 158.40948,75.0009924 158.443677,75.0009924 C161.245912,75.0287793 163.734508,76.2682726 165.841069,78.6867235 C181.365724,96.5110146 172.540834,177.559389 172.156845,181" id="Fill-667" fill="#262223"></path>
                        <polyline id="Fill-668" fill="#3A1315" points="103.144689 161 179 172.912907 170.204752 232 94 220.384991 103.144689 161"></polyline>
                        <path d="M82.8260323,108.254545 C85.8848161,106.803328 87.5920674,102.973486 87.5920674,102.973486 C87.5920674,102.973486 92.9839306,111.735092 100.568915,116.829514 C102.561799,118.168025 111.83759,119.51894 128.396288,120.882256 C134.536563,109.290977 140.038931,99.2785043 144.903391,90.8448377 C152.199091,78.1933605 157.751869,75.5968076 163.614785,77.6128741 C170.02862,79.8185271 182.031894,98.2729142 161.61424,127.521026 C157.24918,133.773753 148.427494,141.1368 135.14918,149.610165 C109.557666,141.838239 94.6102706,135.770845 90.3069927,131.407983 C80.5112431,121.476599 76,109.647126 76,109.647126 C76,109.647126 79.7662576,109.705761 82.8260323,108.254545 Z" id="Fill-669" fill="#51AAE5"></path>
                        <polyline id="Fill-671" fill="#ADAFB2" points="101.934618 160 180 172.429722 178.418529 190 137.621508 188.805434 99 178.526333 101.934618 160"></polyline>
                        <polyline id="Fill-672" fill="#262223" points="131 164.329412 132.144048 156 157 159.353185 155.195615 168 152.347537 167.567708 153.349081 161.716187 134.711132 159.245112 134.007642 164.785071 131 164.329412"></polyline>
                        <polyline id="Fill-675" fill="#ADAFB2" points="143.71668 194 140 218.705882 163.673811 222 167 197.439884 143.71668 194"></polyline>
                        <polyline id="Fill-676" fill="#ADAFB2" points="109.717544 188 106 212.704891 129.673935 216 133 191.438892 109.717544 188"></polyline>
                        <path d="M269.028925,254.784921 C268.579514,253.362914 267.335143,252.325686 265.838103,252.124932 L220.420575,246.036384 C217.619243,245.660463 215.359202,248.260421 216.165147,250.93025 L242.75433,338.96769 C243.144819,340.258813 244.193446,341.253725 245.517712,341.588315 L294.136049,353.87563 C297.087184,354.621568 299.724731,351.886789 298.818917,349.020143 L269.028925,254.784921" id="Fill-677" fill="#39758A"></path>
                        <path d="M287.581029,345 C286.973076,345 286.411359,344.605251 286.225431,343.992403 L242.754835,200.882993 C242.524639,200.134943 241.869466,199.578347 241.089359,199.471764 L207.232877,194.850238 C207.083348,194.833461 206.977104,194.903529 206.921031,194.968663 C206.864957,195.034784 206.806916,195.144326 206.851185,195.296305 L247.034114,332.06999 C247.255456,332.822974 246.825561,333.61346 246.074965,333.836493 C245.325354,334.058539 244.535408,333.627276 244.313083,332.873305 L204.130153,196.098633 C203.825193,195.055508 204.063259,193.940341 204.769586,193.115316 C205.475913,192.291277 206.533436,191.877777 207.613585,192.031729 L241.472034,196.653255 C243.341145,196.907868 244.908247,198.241134 245.465045,200.048098 L288.93761,343.163429 C289.166822,343.915427 288.744796,344.709859 287.9942,344.938814 C287.856477,344.981249 287.717769,345 287.581029,345" id="Fill-679" fill="#262223"></path>
                        <path d="M250.842536,340.158792 C248.545734,339.473736 246.039157,341.068632 245.24396,343.722252 C244.447787,346.374898 245.664487,349.081064 247.960313,349.76612 C247.977876,349.770986 247.995438,349.770013 248.013001,349.774878 L252.120705,351 L255,341.399483 L250.842536,340.158792" id="Fill-680" fill="#4D4D5F"></path>
                        <path d="M257.75108,347.250199 C256.937085,349.923174 254.374398,351.530293 252.027179,350.839987 C249.678963,350.149681 248.436024,347.423756 249.249022,344.749801 C250.062019,342.076826 252.624707,340.469707 254.972923,341.160013 C257.320142,341.850319 258.564078,344.577224 257.75108,347.250199" id="Fill-681" fill="#25252E"></path>
                        <path d="M281.842532,349.158796 C279.545728,348.47374 277.039149,350.068636 276.243951,352.721281 C275.447778,355.373926 276.664479,358.080092 278.961283,358.765148 C278.97787,358.770013 278.995432,358.76904 279.012995,358.774879 L283.120702,360 L286,350.399486 L281.842532,349.158796" id="Fill-682" fill="#4D4D5F"></path>
                        <path d="M288.750599,356.249221 C287.937637,358.923178 285.37506,360.530297 283.026945,359.839991 C280.679829,359.149685 279.435947,356.422778 280.248909,353.749802 C281.062869,351.076826 283.625445,349.469706 285.972562,350.160013 C288.320676,350.850319 289.564559,353.576245 288.750599,356.249221" id="Fill-683" fill="#25252E"></path>
                    </g>
                </g>
            </g>
        </g>
    </g>
</svg>