<?xml version="1.0" encoding="UTF-8"?>
<svg width="372px" height="376px" viewBox="0 0 372 376" version="1.1" xmlns="http://www.w3.org/2000/svg" xmlns:xlink="http://www.w3.org/1999/xlink">
    <!-- Generator: Sketch 47 (45396) - http://www.bohemiancoding.com/sketch -->
    <title>bussinessman_2</title>
    <desc>Created with Sketch.</desc>
    <defs></defs>
    <g id="Page-1" stroke="none" stroke-width="1" fill="none" fill-rule="evenodd">
        <g id="Partner_ALL" transform="translate(-222.000000, -256.000000)">
            <g id="INFO" transform="translate(119.000000, 154.000000)">
                <g id="Info">
                    <g id="bussinessman_2" transform="translate(103.000000, 102.000000)">
                        <path d="M59,198 C59,273.663103 120.337149,335 195.999435,335 C271.662851,335 333,273.663103 333,198 C333,122.336897 271.662851,61 195.999435,61 C120.337149,61 59,122.336897 59,198" id="Fill-2" fill="#EEF2F5"></path>
                        <path d="M44,368.5 C44,372.642562 109.142028,376 189.499227,376 C269.857972,376 335,372.642562 335,368.5 C335,364.357438 269.857972,361 189.499227,361 C109.142028,361 44,364.357438 44,368.5" id="Fill-3" fill="#BEBEBE"></path>
                        <path d="M0.949411885,314.610144 L31.8391376,269.910149 C33.3098079,267.78362 36.090753,267.01044 38.4492474,268.074833 L78.7763395,286.289161 L154.47633,170.90466 C155.533586,169.291704 157.382655,168.371788 159.304014,168.499335 L255.549337,174.819098 L277.041231,123.657119 C277.812712,121.820674 279.540919,120.565526 281.526663,120.397345 L328.032378,116.473877 L346.297155,71.881111 L330.501568,65.4202562 L365.959182,38 L372,82.3929805 L356.205542,75.9332544 L336.699393,123.555534 C335.939208,125.414553 334.199705,126.690019 332.195888,126.859328 L285.658546,130.785054 L263.943002,182.477536 C263.058567,184.582619 260.936148,185.895333 258.656722,185.745212 L161.717856,179.37917 L85.2204059,295.980443 C83.7745856,298.182597 80.9405518,299.00657 78.538005,297.92186 L38.1103833,279.662383 L9.75875004,320.689488 C8.71956667,322.192958 7.04896645,323 5.348998,323 C4.30077825,323 3.24013349,322.691857 2.31164574,322.051866 C-0.121398805,320.372315 -0.731354261,317.04143 0.949411885,314.610144" id="Fill-4" fill="#E9266F"></path>
                        <path d="M232.799434,58 L225,45.5585335 L227.677798,24 L234.352889,39.0672358 C234.515886,39.4339885 235.059207,39.2899874 235.023725,38.8894845 L234.432724,32.161935 C234.410548,31.6376812 235.154566,31.5330554 235.273209,32.0438091 L238.038604,44.6022765 C238.038604,44.6022765 240.480224,51.5267024 240.979193,52.0892065 C241.47927,52.6517107 232.799434,58 232.799434,58" id="Fill-5" fill="#FDCF9C"></path>
                        <path d="M170.502796,289.378601 C168.67549,342.459534 167.761837,369 167.761837,369 L183.338272,363.222868 C183.338272,363.222868 188.438457,338.608112 198.638828,289.378601 C198.638828,249.301676 198.638828,229.263213 198.638828,229.263213 L209.09068,228.811345 C209.09068,228.811345 212.494889,249.00043 219.303307,289.378601 C216.755053,342.459534 215.480925,369 215.480925,369 L231.135056,360.916082 C231.135056,360.916082 237.105899,337.070255 249.047585,289.378601 C240.684437,230.459534 236.502863,201 236.502863,201 L161,202.761155 L162.128287,215.382958 L170.502796,289.378601 Z" id="Fill-6" fill="#454243"></path>
                        <path d="M219.081674,82.58135 C223.594165,85.6446586 231.3174,92.523403 242.251378,103.217583 C236.064814,74.810672 232.971532,60.6072163 232.971532,60.6072163 L244.952636,53 C244.952636,53 249.043884,60.0746361 252.81051,69.6171123 C256.985757,80.1947996 261.19502,95.8228652 265.438301,116.501309 C257.438605,120.919611 252.034116,122.87203 249.224833,122.358566 C223.264068,117.613607 211.874217,105.146563 209.799933,101.369643 C206.182336,94.7835292 203.017644,88.0850944 206.521168,83.8838234 C206.521168,83.8838234 212.312938,77.9863871 219.081674,82.58135 Z" id="Fill-7" fill="#454243"></path>
                        <path d="M210,74.196806 C210,74.196806 205.420524,68.5708337 198.466002,69.0262263 C191.511481,69.4804832 182,72.9839399 182,72.9839399 L207.172995,130 L210,74.196806" id="Fill-8" fill="#FFFFFF"></path>
                        <polyline id="Fill-9" fill="#DEDEDE" points="245 52.6124126 243.429901 50 232 57.147774 233.635863 60 245 52.6124126"></polyline>
                        <path d="M227.85843,24.2928136 L237.814129,46.7697929 C238.268809,47.7970422 237.863648,49.0018686 236.878883,49.5458387 L229.318134,53.7278898 C228.234329,54.3269312 226.870288,53.9020951 226.31882,52.7950485 L215.227546,30.4990179 C214.69521,29.4290602 215.128506,28.1298258 216.19768,27.5937231 L224.896255,23.2318472 C226.005945,22.6743902 227.356481,23.1587933 227.85843,24.2928136" id="Fill-10" fill="#231F20"></path>
                        <polyline id="Fill-11" fill="#ADAFB2" points="235 44.0660227 225.956428 24 216 28.8774814 225.499448 49 235 44.0660227"></polyline>
                        <path d="M247,58.5 C247,57.6721883 246.329119,57 245.5,57 C244.672188,57 244,57.6721883 244,58.5 C244,59.3278117 244.672188,60 245.5,60 C246.329119,60 247,59.3278117 247,58.5" id="Fill-13" fill="#22313F"></path>
                        <path d="M248,62.5 C248,61.6708806 247.328827,61 246.500654,61 C245.671173,61 245,61.6708806 245,62.5 C245,63.3278117 245.671173,64 246.500654,64 C247.328827,64 248,63.3278117 248,62.5" id="Fill-14" fill="#22313F"></path>
                        <path d="M250,65.5 C250,64.6721883 249.328827,64 248.499346,64 C247.671173,64 247,64.6721883 247,65.5 C247,66.3291194 247.671173,67 248.499346,67 C249.328827,67 250,66.3291194 250,65.5" id="Fill-15" fill="#22313F"></path>
                        <path d="M208.979289,73.1552689 L207.25645,128.681368 L183.108474,72 C183.108474,72 166.863431,77.071473 162.231183,101.749864 C157.598936,126.428255 155,215 155,215 L208.104321,214.323278 L213.075266,205.195978 L218.160239,213.872881 L242,213.535083 C242,213.535083 238.949468,181.644706 235.107514,154.599477 C231.266688,127.554248 227.481183,80.1139064 208.979289,73.1552689" id="Fill-16" fill="#231F20"></path>
                        <path d="M192.341876,39.2329152 C192.341876,39.2329152 191.056227,39.2329152 188.484929,39.2329152 L182.971484,28.1015205 L189.658511,22.9202214 C192.419001,28.1404514 193.799247,30.7505664 193.799247,30.7505664 C193.799247,30.7505664 190.011213,8 209.005607,8 C224.777969,8 226.926743,13.5613494 226.926743,13.5613494 C226.926743,13.5613494 228,22.7172568 228,35.9178839 C228,48.2476162 224.251783,58.7645532 211.734554,60.0985712 C211.145128,60.161389 210.21665,60.2089352 208.949119,60.2412098 L204.713708,72.7963433 C202.949327,75.6438819 201.446153,77.0676512 200.204187,77.0676512 C198.341239,77.0676512 191.763447,76.7557456 191.763447,69.791149 L192.341876,39.2329152 Z" id="Fill-17" fill="#FDCF9C"></path>
                        <path d="M199.220186,32 L202.052283,16.6321995 L219.677139,20.0812288 L234.759556,13.2993769 L202.975009,0.281518658 L189.709849,10.4839417 C190.687946,21.0029036 191.176994,26.2623845 191.176994,26.2623845 C191.176994,26.2623845 193.710921,30.1788417 193.682475,32 L199.220186,32 Z" id="Fill-18" fill="#231F20"></path>
                        <path d="M208,149.499465 C208,148.672137 207.328694,148 206.5,148 C205.672377,148 205,148.672137 205,149.499465 C205,150.327863 205.672377,151 206.5,151 C207.328694,151 208,150.327863 208,149.499465" id="Fill-19" fill="#ABADB0"></path>
                        <path d="M210,169.5 C210,168.671306 209.328694,168 208.5,168 C207.672377,168 207,168.671306 207,169.5 C207,170.328694 207.672377,171 208.5,171 C209.328694,171 210,170.328694 210,169.5" id="Fill-20" fill="#ABADB0"></path>
                        <path d="M210,191.499465 C210,190.672137 209.328694,190 208.5,190 C207.671306,190 207,190.672137 207,191.499465 C207,192.327863 207.671306,193 208.5,193 C209.328694,193 210,192.327863 210,191.499465" id="Fill-21" fill="#ABADB0"></path>
                        <polyline id="Fill-28" fill="#FFFFFF" points="204.38374 78 200 74.4807032 204.38374 70 208 72.6677654 204.38374 78"></polyline>
                        <polyline id="Fill-29" fill="#FFFFFF" points="191.919216 68 200 74.4672374 196.650583 79 187 71.2562883 191.919216 68"></polyline>
                        <path d="M136.08038,194 C136.08038,194 137.18621,197.686198 138.640353,200.499683 C139.462419,202.092527 141.144304,205.199614 141.922526,206.330094 C142.185587,206.710388 141.727666,207.168129 141.313589,206.938103 L136,202.097151 L136.08038,194" id="Fill-30" fill="#FDCF9C"></path>
                        <polyline id="Fill-31" fill="#231F20" points="119.584123 221 122.312306 220.812953 121.909228 214.768553 140.852797 213.01585 141.274094 218.3594 144 218.137714 143.357807 210 119 212.253805 119.584123 221"></polyline>
                        <path d="M136.288627,196.02481 C136.288627,196.02481 138,203.100275 138,207.077071 C138,209.983148 137.746787,212.500601 137.610357,213.646982 C137.561242,214.065411 137.297115,214.418497 136.922752,214.572112 C135.267042,215.251916 130.448347,216.893534 125.510686,215.375725 C124.459632,215.052446 125.220364,202.720823 126.093513,199.084501 C126.950291,195.518109 136.288627,196.02481 136.288627,196.02481" id="Fill-32" fill="#FDCF9C"></path>
                        <path d="M124.575571,197 C124.575571,197 123.074478,187.514585 122.364239,175.987011 C121.907401,168.572272 121.907401,156.51528 122.364239,139.816035 L158.891622,89.7512275 C170.633076,80.4544383 177.526412,78.4138271 179.57163,83.6293938 C181.944596,89.679859 176.37752,99.7429622 169.33242,108.490705 C166.337259,112.210176 155.811893,125.728718 137.756323,149.046333 C137.756323,171.005518 137.756323,185.780962 137.756323,193.372666 L124.575571,197 Z" id="Fill-33" fill="#454243"></path>
                        <path d="M137.349713,193 C137.300397,193.012857 138,195.756786 138,195.756786 L125.776445,199 L125,196.182143 L137.349713,193" id="Fill-34" fill="#DEDEDE"></path>
                        <path d="M127,189.5 C127,188.670881 126.327812,188 125.5,188 C124.670881,188 124,188.670881 124,189.5 C124,190.327812 124.670881,191 125.5,191 C126.327812,191 127,190.327812 127,189.5" id="Fill-35" fill="#22313F"></path>
                        <path d="M127,186.500654 C127,185.671173 126.327812,185 125.5,185 C124.672188,185 124,185.671173 124,186.500654 C124,187.328827 124.672188,188 125.5,188 C126.327812,188 127,187.328827 127,186.500654" id="Fill-36" fill="#22313F"></path>
                        <path d="M127,182.499346 C127,181.671173 126.327812,181 125.5,181 C124.672188,181 124,181.671173 124,182.499346 C124,183.328827 124.672188,184 125.5,184 C126.327812,184 127,183.328827 127,182.499346" id="Fill-37" fill="#22313F"></path>
                        <polyline id="Fill-38" fill="#E9266F" points="202 75.9175555 199.865375 74 198 76.6970308 199.622642 78 200.862825 77.8720092 202 75.9175555"></polyline>
                        <polygon id="Fill-39" fill="#E9266F" points="207.635807 111.484147 208 128.891899 206.899624 129 197.959172 110.448737 200 78.1684107 201.920089 78"></polygon>
                        <polyline id="Fill-40" fill="#454243" points="207.36808 72.10982 206.645011 128.285361 187.216837 71 181 73.3208429 188.21064 95.1317627 191.971938 96.6270632 189.797159 98.4930618 207.424901 135 210.659216 97.0284633 208.399763 94.980527 211.829051 93.8991347 213 76.0362632 210.60351 74.5716646 207.36808 72.10982"></polyline>
                        <polyline id="Fill-41" fill="#231F20" points="233.027422 356 259 366.641344 257.100284 370 216 370 233.027422 356"></polyline>
                        <polyline id="Fill-42" fill="#231F20" points="184.998401 356 211 366.671466 209.030233 370 168 370 184.998401 356"></polyline>
                        <polyline id="Fill-43" fill="#FFFFFF" points="190.626705 109 173 112.55775 173.532478 115 191 110.858793 190.626705 109"></polyline>
                        <polyline id="Fill-44" fill="#ADAFB2" points="159 215.291549 152 216 152 214.73662 159 214 159 215.291549"></polyline>
                        <polyline id="Fill-45" fill="#ADAFB2" points="111 219.291549 104 220 104 218.73662 111 218 111 219.291549"></polyline>
                        <polyline id="Fill-46" fill="#8C7057" points="175.394718 214 178 275.974606 92.7905663 281 90 220.631088 175.394718 214"></polyline>
                    </g>
                </g>
            </g>
        </g>
    </g>
</svg>