<?xml version="1.0" encoding="UTF-8"?>
<svg width="262px" height="135px" viewBox="0 0 262 135" version="1.1" xmlns="http://www.w3.org/2000/svg" xmlns:xlink="http://www.w3.org/1999/xlink">
    <!-- Generator: Sketch 44.1 (41455) - http://www.bohemiancoding.com/sketch -->
    <title>Combined Shape Copy</title>
    <desc>Created with Sketch.</desc>
    <defs></defs>
    <g id="Page-1" stroke="none" stroke-width="1" fill="none" fill-rule="evenodd">
        <g id="PRAVKI_07.07.17_003" transform="translate(-521.000000, -2062.000000)">
            <g id="Narahuvannya" transform="translate(325.000000, 1305.000000)">
                <g id="Lines" transform="translate(38.000000, 193.000000)">
                    <g id="Combined-Shape-Copy" transform="translate(158.000000, 565.000000)">
                        <path d="M261.470563,64.863961 L261.727922,64.6066017 L251.12132,54 L249,56.1213203 L257.742641,64.863961 L249,73.6066017 L251.12132,75.7279221 L261.727922,65.1213203 L261.470563,64.863961 Z" fill="#FFE600" fill-rule="evenodd"></path>
                        <path d="M0.315326093,64.6144746 C6.61204842,65.4235177 10.8244792,65.5520261 12.9526184,65 C16.1448271,64.1719608 50.3407621,57.3829982 59.4210054,67.1801434 C74.877961,83.8574541 76.4790378,142.8857 116.664742,130.57782 C156.850446,118.26994 104.133283,22.783077 147.320819,3.59187417 C190.508356,-15.5993286 183.940244,63.4269364 254.386179,65.3035399" id="Path-5" stroke="#FFE600" stroke-width="3" stroke-dasharray="10"></path>
                    </g>
                </g>
            </g>
        </g>
    </g>
</svg>