<?xml version="1.0" encoding="UTF-8"?>
<svg width="263px" height="102px" viewBox="0 0 263 102" version="1.1" xmlns="http://www.w3.org/2000/svg" xmlns:xlink="http://www.w3.org/1999/xlink">
    <!-- Generator: Sketch 44.1 (41455) - http://www.bohemiancoding.com/sketch -->
    <title>Path 3</title>
    <desc>Created with Sketch.</desc>
    <defs></defs>
    <g id="Page-1" stroke="none" stroke-width="1" fill="none" fill-rule="evenodd">
        <g id="PRAVKI_07.07.17_003" transform="translate(-520.000000, -1497.000000)">
            <g id="Narahuvannya" transform="translate(325.000000, 1305.000000)">
                <g id="Lines" transform="translate(38.000000, 193.000000)">
                    <g id="Path-3" transform="translate(157.000000, 0.000000)">
                        <path d="M0.116992509,13.419256 C11.0849599,13.419256 19.1405711,13.419256 24.2838259,13.419256 C46.7738011,13.419256 88.3392774,-9.25484038 105.61307,5.52977786 C129.885544,26.3045586 80.5371471,91.2757096 113.423462,99.0210235 C146.309777,106.766337 138.468567,28.9384294 161.454166,15.6453241 C187.637696,0.502781131 194.570026,13.419256 220.552232,13.419256 C225.089869,13.419256 232.843861,13.419256 243.814208,13.419256" stroke="#FFE600" stroke-width="3" stroke-dasharray="10"></path>
                        <path d="M262.470563,12.863961 L262.727922,12.6066017 L252.12132,2 L250,4.12132034 L258.742641,12.863961 L250,21.6066017 L252.12132,23.7279221 L262.727922,13.1213203 L262.470563,12.863961 Z" id="Combined-Shape" fill="#FFE600" fill-rule="evenodd"></path>
                    </g>
                </g>
            </g>
        </g>
    </g>
</svg>