<?xml version="1.0" encoding="UTF-8"?>
<svg width="69px" height="71px" viewBox="0 0 69 71" version="1.1" xmlns="http://www.w3.org/2000/svg" xmlns:xlink="http://www.w3.org/1999/xlink">
    <!-- Generator: Sketch 44.1 (41455) - http://www.bohemiancoding.com/sketch -->
    <title>Logo</title>
    <desc>Created with Sketch.</desc>
    <defs></defs>
    <g id="Page-1" stroke="none" stroke-width="1" fill="none" fill-rule="evenodd">
        <g id="FIN-Copy-3" transform="translate(-129.000000, -6162.000000)">
            <g id="Footer" transform="translate(129.000000, 494.000000)">
                <g id="Logo" transform="translate(0.000000, 5668.000000)">
                    <g>
                        <path d="M59.0618495,35.455495 C59.0618495,49.6751727 47.8857712,61.202238 34.099681,61.202238 C20.3133163,61.202238 9.13723806,49.6751727 9.13723806,35.455495 C9.13723806,21.2358173 20.3133163,9.70875203 34.099681,9.70875203 C47.8857712,9.70875203 59.0618495,21.2358173 59.0618495,35.455495" id="Fill-1" fill="#FFE600"></path>
                        <g id="Group-5" transform="translate(0.000000, 0.119779)" fill="#4BAADF">
                            <path d="M34.0994614,60.2640287 C20.7729442,60.2640287 9.92658342,49.0810084 9.92658342,35.3356314 C9.92658342,27.7272813 13.2553301,20.9052793 18.4715105,16.3290559 L18.4715105,37.6490864 C18.4715105,46.5316773 25.5081378,53.7608701 34.1200516,53.7608701 C42.7333381,53.7608701 49.7685927,46.5316773 49.7685927,37.6490864 L49.7685927,16.329339 C54.9847731,20.9055625 58.2929296,27.7272813 58.2929296,35.3356314 C58.2929296,49.0810084 47.4259786,60.2640287 34.0994614,60.2640287 L34.0994614,60.2640287 Z M34.0994614,10.4075174 C40.0327293,10.4075174 45.4723818,12.6255458 49.6832121,16.2981909 C49.4572691,16.5238731 48.0101908,17.9733928 44.8848752,21.2501738 C42.1779521,18.6793222 39.6107678,17.8493667 39.6107678,17.8493667 L39.6107678,38.2185304 C39.6107678,41.3554281 37.1602611,43.9058918 34.1189534,43.9058918 C31.0781948,43.9058918 28.6293354,41.3554281 28.6293354,38.2185304 L28.6293354,17.8422876 C28.6293354,17.8422876 25.712667,18.8962263 23.3280489,21.2555539 C20.1049985,17.9309181 18.774598,16.5428452 18.5352028,16.2905455 C22.7449349,12.622431 28.1703115,10.4075174 34.0994614,10.4075174 L34.0994614,10.4075174 Z M63.452281,30.439432 C61.4218142,17.443875 51.4476537,7.15537171 38.8481073,5.06051986 L34.1005595,0.163470935 L29.3530118,5.06023669 C16.7526418,7.15423905 6.77710862,17.4433087 4.74691631,30.4397152 L-8.23607427e-05,35.3356314 L4.74691631,40.2318309 C6.77710862,53.2282374 16.7526418,63.5170238 29.3530118,65.6110262 L34.1005595,70.5080751 L38.8483818,65.610743 C51.4476537,63.5158912 61.4218142,53.2276711 63.452281,40.232114 L68.1990052,35.3356314 L63.452281,30.439432 Z" id="Fill-3"></path>
                        </g>
                    </g>
                </g>
            </g>
        </g>
    </g>
</svg>