<?xml version="1.0" encoding="UTF-8"?>
<svg width="127px" height="126px" viewBox="0 0 127 126" version="1.1" xmlns="http://www.w3.org/2000/svg" xmlns:xlink="http://www.w3.org/1999/xlink">
    <!-- Generator: Sketch 47 (45396) - http://www.bohemiancoding.com/sketch -->
    <title>Page 1</title>
    <desc>Created with Sketch.</desc>
    <defs>
        <filter x="-45.0%" y="-43.3%" width="189.9%" height="186.6%" filterUnits="objectBoundingBox" id="filter-1">
            <feGaussianBlur stdDeviation="11.5567555" in="SourceGraphic"></feGaussianBlur>
        </filter>
        <polygon id="path-2" points="77.0945276 79.3214889 0 79.3214889 0 0.183904801 77.0945276 0.183904801"></polygon>
    </defs>
    <g id="Page-1" stroke="none" stroke-width="1" fill="none" fill-rule="evenodd">
        <g id="Tourist_ALL" transform="translate(-108.000000, 0.000000)">
            <g id="Page-1" transform="translate(130.000000, 18.000000)">
                <path d="M75.4528966,38.289005 C73.1575862,23.4928587 61.8824483,11.7788399 47.6394828,9.39373752 L42.2726897,3.81818182 L36.9058966,9.39341512 C22.662,11.7775503 11.3853103,23.4922139 9.09031034,38.2893274 L3.72413793,43.8635935 L9.09031034,49.438182 C11.3853103,64.2352954 22.662,75.9496366 36.9058966,78.3337718 L42.2726897,83.9093275 L47.6397931,78.3334494 C61.8824483,75.948347 73.1575862,64.2346506 75.4528966,49.4385044 L80.8187586,43.8635935 L75.4528966,38.289005 Z" id="Fill-3" fill="#2084BB" filter="url(#filter-1)"></path>
                <path d="M66.765569,39.8874319 C66.765569,55.8845693 54.1317414,68.8525178 38.5474655,68.8525178 C22.9628793,68.8525178 10.3290517,55.8845693 10.3290517,39.8874319 C10.3290517,23.8902945 22.9628793,10.922346 38.5474655,10.922346 C54.1317414,10.922346 66.765569,23.8902945 66.765569,39.8874319" id="Fill-1" fill="#FFE500"></path>
                <g id="Group-5" transform="translate(0.000000, 0.134751)">
                    <mask id="mask-3" fill="white">
                        <use xlink:href="#path-2"></use>
                    </mask>
                    <g id="Clip-4"></g>
                    <path d="M38.5472172,67.7970323 C23.4824586,67.7970323 11.2213552,55.2161344 11.2213552,39.7525854 C11.2213552,31.1931915 14.9842862,23.5184392 20.8808379,18.3701879 L20.8808379,42.3552222 C20.8808379,52.348137 28.8352862,60.4809788 38.5704931,60.4809788 C48.3072517,60.4809788 56.2601483,52.348137 56.2601483,42.3552222 L56.2601483,18.3705064 C62.1567,23.5187578 65.8963552,31.1931915 65.8963552,39.7525854 C65.8963552,55.2161344 53.6119759,67.7970323 38.5472172,67.7970323 L38.5472172,67.7970323 Z M38.5472172,11.708457 C45.2543897,11.708457 51.4035621,14.2037391 56.163631,18.3354648 C55.9082172,18.5893573 54.2723897,20.2200669 50.7394241,23.9064455 C47.6794241,21.0142375 44.7773897,20.0805376 44.7773897,20.0805376 L44.7773897,42.9958467 C44.7773897,46.5248566 42.0072517,49.3941283 38.5692517,49.3941283 C35.1318724,49.3941283 32.3635966,46.5248566 32.3635966,42.9958467 L32.3635966,20.0725736 C32.3635966,20.0725736 29.0664931,21.2582546 26.3708379,23.9124982 C22.7273897,20.1722829 21.2234586,18.6107008 20.9528379,18.3268637 C25.7116655,14.2002349 31.8447,11.708457 38.5472172,11.708457 L38.5472172,11.708457 Z M71.7286655,34.244361 C69.4333552,19.6243594 58.1582172,8.04979317 43.9152517,5.69308484 L38.5484586,0.183904801 L33.1816655,5.69276628 C18.937769,8.04851893 7.66107931,19.6237222 5.36607931,34.2446796 L-9.31034483e-05,39.7525854 L5.36607931,45.2608097 C7.66107931,59.8817671 18.937769,71.4566518 33.1816655,73.8124045 L38.5484586,79.3215845 L43.9155621,73.8120859 C58.1582172,71.4553776 69.4333552,59.88113 71.7286655,45.2611283 L77.0945276,39.7525854 L71.7286655,34.244361 Z" id="Fill-3" fill="#4BAADF" mask="url(#mask-3)"></path>
                </g>
            </g>
        </g>
    </g>
</svg>