<?xml version="1.0" encoding="UTF-8"?>
<svg width="38px" height="46px" viewBox="0 0 38 46" version="1.1" xmlns="http://www.w3.org/2000/svg" xmlns:xlink="http://www.w3.org/1999/xlink">
    <!-- Generator: Sketch 44.1 (41455) - http://www.bohemiancoding.com/sketch -->
    <title>Atrakcion</title>
    <desc>Created with Sketch.</desc>
    <defs></defs>
    <g id="Page-1" stroke="none" stroke-width="1" fill="none" fill-rule="evenodd">
        <g id="FIN-Copy-3" transform="translate(-727.000000, -3503.000000)">
            <g id="De-otrymaty" transform="translate(326.000000, 3243.000000)">
                <g id="Icons" transform="translate(3.000000, 192.000000)">
                    <g id="Atrakcion" transform="translate(399.000000, 68.000000)">
                        <g>
                            <g id="Group-3" transform="translate(0.000000, 0.137620)">
                                <path d="M18.5,33.3623802 C10.2157288,33.3623802 3.5,26.6466514 3.5,18.3623802 C3.5,10.0781089 10.2157288,3.36238017 18.5,3.36238017 C26.7842712,3.36238017 33.5,10.0781089 33.5,18.3623802 C33.5,26.6466514 26.7842712,33.3623802 18.5,33.3623802 Z M18.5,30.3623802 C25.127417,30.3623802 30.5,24.9897972 30.5,18.3623802 C30.5,11.7349632 25.127417,6.36238017 18.5,6.36238017 C11.872583,6.36238017 6.5,11.7349632 6.5,18.3623802 C6.5,24.9897972 11.872583,30.3623802 18.5,30.3623802 Z" id="Oval-4" fill="#EA2C6E" fill-rule="nonzero"></path>
                                <path d="M7,31.8623802 C5.8954305,31.8623802 5,30.9669497 5,29.8623802 C5,28.7578107 5.8954305,27.8623802 7,27.8623802 C8.1045695,27.8623802 9,28.7578107 9,29.8623802 C9,30.9669497 8.1045695,31.8623802 7,31.8623802 Z M2.5,19.8623802 C1.67157288,19.8623802 1,19.1908073 1,18.3623802 C1,17.533953 1.67157288,16.8623802 2.5,16.8623802 C3.32842712,16.8623802 4,17.533953 4,18.3623802 C4,19.1908073 3.32842712,19.8623802 2.5,19.8623802 Z M34.5,19.8623802 C33.6715729,19.8623802 33,19.1908073 33,18.3623802 C33,17.533953 33.6715729,16.8623802 34.5,16.8623802 C35.3284271,16.8623802 36,17.533953 36,18.3623802 C36,19.1908073 35.3284271,19.8623802 34.5,19.8623802 Z M7,8.86238017 C5.8954305,8.86238017 5,7.96694966 5,6.86238017 C5,5.75781067 5.8954305,4.86238017 7,4.86238017 C8.1045695,4.86238017 9,5.75781067 9,6.86238017 C9,7.96694966 8.1045695,8.86238017 7,8.86238017 Z M30,8.86238017 C28.8954305,8.86238017 28,7.96694966 28,6.86238017 C28,5.75781067 28.8954305,4.86238017 30,4.86238017 C31.1045695,4.86238017 32,5.75781067 32,6.86238017 C32,7.96694966 31.1045695,8.86238017 30,8.86238017 Z M18.5,3.86238017 C17.6715729,3.86238017 17,3.19080729 17,2.36238017 C17,1.53395304 17.6715729,0.862380165 18.5,0.862380165 C19.3284271,0.862380165 20,1.53395304 20,2.36238017 C20,3.19080729 19.3284271,3.86238017 18.5,3.86238017 Z M18.5,35.8623802 C17.6715729,35.8623802 17,35.1908073 17,34.3623802 C17,33.533953 17.6715729,32.8623802 18.5,32.8623802 C19.3284271,32.8623802 20,33.533953 20,34.3623802 C20,35.1908073 19.3284271,35.8623802 18.5,35.8623802 Z M30,31.8623802 C28.8954305,31.8623802 28,30.9669497 28,29.8623802 C28,28.7578107 28.8954305,27.8623802 30,27.8623802 C31.1045695,27.8623802 32,28.7578107 32,29.8623802 C32,30.9669497 31.1045695,31.8623802 30,31.8623802 Z" id="Combined-Shape" fill="#EA2C6E"></path>
                                <rect id="Rectangle-11" fill="#EA2C6E" x="8" y="41.8623802" width="20" height="3"></rect>
                                <path d="M18.310766,1.38292727 C17.5280443,1.38292727 16.8914155,2.01742314 16.8914155,2.79714215 C16.8914155,2.9948281 16.9329928,3.18719174 17.012333,3.36586942 C17.8846938,3.29097686 18.7364567,3.29097686 19.6084361,3.36586942 C19.6877763,3.18719174 19.7293536,2.9948281 19.7293536,2.79714215 C19.7293536,2.01742314 19.0927247,1.38292727 18.310766,1.38292727 M16.7056526,4.5390595 C16.5248485,4.5390595 16.353199,4.45352231 16.2444876,4.30601818 C15.9191165,3.86388595 15.7470856,3.34191901 15.7470856,2.79714215 C15.7470856,1.38862975 16.8971371,0.242431405 18.310766,0.242431405 C19.7240134,0.242431405 20.8736835,1.38862975 20.8736835,2.79714215 C20.8736835,3.34191901 20.7016526,3.86388595 20.3762814,4.30601818 C20.2553639,4.47024959 20.0558691,4.55692727 19.8521784,4.53563802 C18.8173227,4.4219686 17.8038278,4.4219686 16.7685907,4.53563802 C16.7476113,4.53791901 16.726632,4.5390595 16.7056526,4.5390595 M28.0772402,6.85312562 C28.7379,7.40474545 29.3524052,8.01186942 29.9108381,8.66499339 C30.0985082,8.59504298 30.2674876,8.48707603 30.4086216,8.34527438 C30.9594258,7.79213388 30.9556113,6.8949438 30.3998485,6.34560496 C29.8623948,5.81337355 28.9274773,5.81755537 28.3938381,6.35358843 C28.2527041,6.49500992 28.1459,6.66456364 28.0772402,6.85312562 M29.7002814,9.87543967 C29.5293948,9.87543967 29.3653742,9.79902645 29.2559,9.66444793 C28.6124052,8.87370413 27.8804155,8.15024959 27.0801474,7.51385289 C26.921467,7.38763802 26.8417454,7.18767107 26.8703536,6.98732397 C26.9496938,6.43456364 27.1953433,5.93806777 27.5817454,5.55029917 C28.0665598,5.06330744 28.7127247,4.79529091 29.4008485,4.79529091 C30.0817247,4.79529091 30.7229309,5.05836529 31.2058381,5.53585289 C32.2094155,6.52846446 32.2159,8.14910909 31.2207144,9.14932397 C30.8339309,9.5367124 30.3380546,9.78572066 29.7861062,9.86897686 C29.7574979,9.87315868 29.7288897,9.87543967 29.7002814,9.87543967 M7.13180722,6.02360496 C6.75074536,6.02360496 6.3925701,6.17224959 6.12403402,6.44216694 C5.85740515,6.71018347 5.71093093,7.06563802 5.7124567,7.44352231 C5.71398247,7.82140661 5.8631268,8.1753405 6.13204433,8.44107603 C6.27394124,8.58211736 6.44406495,8.6889438 6.63364227,8.75737355 C7.18749794,8.09778678 7.79704433,7.4853405 8.45121959,6.92991901 C8.38103402,6.74249752 8.27270412,6.5740843 8.13080722,6.43380331 C7.86341546,6.16958843 7.5086732,6.02360496 7.13180722,6.02360496 M6.84877629,9.96591901 C6.82169381,9.96591901 6.79461134,9.96401818 6.76714742,9.96021653 C6.21291031,9.88076198 5.71436392,9.63555537 5.3256732,9.2508281 C4.84009588,8.7710595 4.57079691,8.13048099 4.5681268,7.4480843 C4.5654567,6.7656876 4.82941546,6.12320826 5.31155979,5.63849752 C5.79675567,5.15150579 6.44330206,4.88310909 7.13180722,4.88310909 C7.81268351,4.88310909 8.45388969,5.14618347 8.93717835,5.6244314 C9.32586907,6.00915868 9.57571443,6.50337355 9.65925052,7.05385289 C9.68976598,7.25343967 9.6115701,7.45492727 9.45403402,7.58228264 C8.66177629,8.22210083 7.93588969,8.95201818 7.29620928,9.75150579 C7.18673505,9.88798512 7.0215701,9.96591901 6.84877629,9.96591901 M2.56364227,17.0769107 C1.78092062,17.0769107 1.14429175,17.7114066 1.14429175,18.4915058 C1.14429175,19.2712248 1.78092062,19.9053405 2.56364227,19.9053405 C2.76199278,19.9053405 2.95538454,19.8639025 3.13428144,19.7844479 C3.09651856,19.3502992 3.07744639,18.9165306 3.07744639,18.4915058 C3.07744639,18.0661008 3.09651856,17.6323322 3.13428144,17.1978033 C2.95500309,17.1183488 2.76199278,17.0769107 2.56364227,17.0769107 M2.56364227,21.0458364 C1.1500134,21.0458364 -3.81443299e-05,19.9000182 -3.81443299e-05,18.4915058 C-3.81443299e-05,17.0826132 1.1500134,15.9364149 2.56364227,15.9364149 C3.10986907,15.9364149 3.63320928,16.1078694 4.07720928,16.4321504 C4.24237423,16.5522826 4.33048763,16.7518694 4.30798247,16.9544975 C4.25076598,17.4703818 4.22177629,17.9877868 4.22177629,18.4915058 C4.22177629,18.9948446 4.25076598,19.5118694 4.30798247,20.0277537 C4.33048763,20.2300017 4.24237423,20.4295884 4.07759072,20.5497207 C3.63397216,20.8743818 3.11025052,21.0458364 2.56364227,21.0458364 M33.4868691,19.7848281 C33.665766,19.8639025 33.8587763,19.9053405 34.0571268,19.9053405 C34.8398485,19.9053405 35.4764773,19.2712248 35.4764773,18.4915058 C35.4764773,17.7114066 34.8398485,17.0769107 34.0571268,17.0769107 C33.8587763,17.0769107 33.6653845,17.1183488 33.4868691,17.1974231 C33.524632,17.6357537 33.5440856,18.0695223 33.5440856,18.4915058 C33.5440856,18.9131091 33.524632,19.3468777 33.4868691,19.7848281 M34.0571268,21.0458364 C33.5101371,21.0458364 32.9867969,20.8743818 32.5435598,20.5497207 C32.3787763,20.4292083 32.2910443,20.2303818 32.313168,20.0281339 C32.3703845,19.5065471 32.3997557,18.9899025 32.3997557,18.4915058 C32.3997557,17.9931091 32.3703845,17.4760843 32.313168,16.9541174 C32.2910443,16.7518694 32.3787763,16.553043 32.5435598,16.4325306 C32.9867969,16.1078694 33.5101371,15.9364149 34.0571268,15.9364149 C35.4707557,15.9364149 36.6208072,17.0826132 36.6208072,18.4915058 C36.6208072,19.9000182 35.4707557,21.0458364 34.0571268,21.0458364 M28.1699309,30.0527124 C28.2401165,30.2397537 28.3480649,30.4081669 28.4899619,30.5480678 C28.7577351,30.8126628 29.1124773,30.9586463 29.4893433,30.9586463 C29.8704052,30.9586463 30.228199,30.8100017 30.4967351,30.5400843 C30.7633639,30.2720678 30.9098381,29.9166132 30.9083124,29.5391091 C30.9067866,29.1612248 30.7576423,28.8069107 30.4887247,28.540795 C30.3464464,28.4001339 30.1763227,28.2936876 29.9875082,28.2252579 C29.4332711,28.8848446 28.8241062,29.4972909 28.1699309,30.0527124 M29.4893433,32.0991421 L29.4893433,32.0991421 C28.808467,32.0991421 28.1672608,31.8360678 27.6839722,31.3578198 C27.2952814,30.9734727 27.0454361,30.4792579 26.9619,29.9283983 C26.9313845,29.7284314 27.0095804,29.527324 27.1674979,29.3999686 C27.9589928,28.7605306 28.6848794,28.0306132 29.3245598,27.2311256 C29.451199,27.073357 29.6499309,26.9942826 29.8528588,27.0220347 C30.4070959,27.1011091 30.9056423,27.3463157 31.2947144,27.731043 C31.7806732,28.2119521 32.0499722,28.8525306 32.0526423,29.5345471 C32.0553124,30.2169438 31.7913536,30.859043 31.3092093,31.3437537 C30.8240134,31.8307455 30.1778485,32.0991421 29.4893433,32.0991421 M6.70993093,28.317638 C6.52226082,28.3872083 6.35328144,28.4951752 6.21291031,28.6365967 C5.94551856,28.9049934 5.79942577,29.2608281 5.80095155,29.6383322 C5.80247732,30.0158364 5.95162165,30.3705306 6.22053918,30.6362661 C6.48831237,30.9012413 6.84305464,31.0468446 7.21992062,31.0468446 C7.60098247,31.0468446 7.95839485,30.8985802 8.22654948,30.629043 C8.36806495,30.4872413 8.47486907,30.3176876 8.54391031,30.1291256 C7.88210619,29.5767455 7.26721959,28.9692413 6.70993093,28.317638 M7.21992062,32.1873405 L7.21992062,32.1873405 C6.53904433,32.1873405 5.89783814,31.9242661 5.41454948,31.4460182 C4.92859072,30.9658694 4.65929175,30.3256711 4.65662165,29.6428942 C4.65395155,28.9604975 4.91791031,28.3180182 5.40043608,27.8333074 C5.78607526,27.4462992 6.28195155,27.1969107 6.83466289,27.1136545 C7.03377629,27.084762 7.23708557,27.1611752 7.36486907,27.3181835 C8.00683814,28.1074066 8.73920928,28.8308612 9.54100309,29.4683983 C9.69930206,29.5946132 9.77902371,29.7945802 9.75041546,29.9949273 C9.67107526,30.5476876 9.42542577,31.0445636 9.03902371,31.4319521 C8.55459072,31.9189438 7.90842577,32.1873405 7.21992062,32.1873405 M17.012333,33.616762 C16.9326113,33.7950595 16.8914155,33.9878033 16.8914155,34.1854893 C16.8914155,34.9652083 17.5280443,35.5997041 18.310766,35.5997041 C19.0927247,35.5997041 19.7293536,34.9652083 19.7293536,34.1854893 C19.7293536,33.9878033 19.6877763,33.7950595 19.6084361,33.616762 C18.7295907,33.692795 17.8919412,33.692795 17.012333,33.616762 M18.310766,36.7402 C16.8971371,36.7402 15.7470856,35.5940017 15.7470856,34.1854893 C15.7470856,33.6403322 15.9191165,33.1183653 16.2448691,32.6766132 C16.3657866,32.5120017 16.5668072,32.4241835 16.7682093,32.4469934 C17.8152711,32.5618033 18.8058794,32.5618033 19.8521784,32.4469934 C20.056632,32.4257041 20.2549825,32.5123818 20.3759,32.6766132 C20.7016526,33.1183653 20.8736835,33.6403322 20.8736835,34.1854893 C20.8736835,35.5940017 19.7240134,36.7402 18.310766,36.7402" id="Fill-1" stroke="#000000" stroke-width="0.3" fill="#000000"></path>
                            </g>
                            <path d="M18.310766,7.36969421 C12.0814155,7.36969421 7.01355979,12.4205702 7.01355979,18.6290496 C7.01355979,24.8371488 12.0814155,29.8876446 18.310766,29.8876446 C24.5397351,29.8876446 29.6072093,24.8371488 29.6072093,18.6290496 C29.6072093,12.4205702 24.5397351,7.36969421 18.310766,7.36969421 M18.310766,31.0281405 C11.4505082,31.0281405 5.8692299,25.4663223 5.8692299,18.6290496 C5.8692299,11.7917769 11.4505082,6.22919835 18.310766,6.22919835 C25.1706423,6.22919835 30.7515392,11.7917769 30.7515392,18.6290496 C30.7515392,25.4663223 25.1706423,31.0281405 18.310766,31.0281405 M18.310766,4.58764463 C10.5422918,4.58764463 4.22177629,10.8866033 4.22177629,18.6290496 C4.22177629,26.3714959 10.5422918,32.6708347 18.310766,32.6708347 C26.0792402,32.6708347 32.3997557,26.3714959 32.3997557,18.6290496 C32.3997557,10.8866033 26.0792402,4.58764463 18.310766,4.58764463 M18.310766,33.8113306 C9.91100309,33.8113306 3.07744639,27.0006694 3.07744639,18.6290496 C3.07744639,10.2578099 9.91100309,3.44714876 18.310766,3.44714876 C26.7101474,3.44714876 33.5440856,10.2578099 33.5440856,18.6290496 C33.5440856,27.0006694 26.7101474,33.8113306 18.310766,33.8113306" id="Fill-4" stroke="#000000" stroke-width="0.3" fill="#000000"></path>
                            <path d="M18.310766,16.493281 C17.1290546,16.493281 16.1678175,17.4516777 16.1678175,18.6290496 C16.1678175,19.8068017 17.1290546,20.764438 18.310766,20.764438 C19.4920959,20.764438 20.453333,19.8068017 20.453333,18.6290496 C20.453333,17.4516777 19.4920959,16.493281 18.310766,16.493281 M18.310766,21.9049339 C16.4981474,21.9049339 15.0234876,20.435595 15.0234876,18.6290496 C15.0234876,16.8225041 16.4981474,15.3527851 18.310766,15.3527851 C20.1230031,15.3527851 21.5976629,16.8225041 21.5976629,18.6290496 C21.5976629,20.435595 20.1230031,21.9049339 18.310766,21.9049339" id="Fill-6" stroke="#000000" stroke-width="0.3" fill="#000000"></path>
                            <polygon id="Fill-8" stroke="#000000" stroke-width="0.3" fill="#000000" points="11.9955526 42.1793008 10.8687691 41.9804744 15.0322227 18.5295983 16.1590062 18.7284248"></polygon>
                            <polygon id="Fill-10" stroke="#000000" stroke-width="0.3" fill="#000000" points="24.6252546 42.1793008 20.4621825 18.7284248 21.588966 18.5295983 25.7520381 41.9804744"></polygon>
                            <polygon id="Fill-12" stroke="#000000" stroke-width="0.3" fill="#000000" points="11.8407629 39.2227934 24.7804639 39.2227934 24.7804639 38.0822975 11.8407629 38.0822975"></polygon>
                            <path d="M8.86741237,44.6169587 L27.6935464,44.6169587 L27.6935464,42.6499835 L8.86741237,42.6499835 L8.86741237,44.6169587 Z M28.2657113,45.7574545 L8.29524742,45.7574545 C7.97941237,45.7574545 7.72308247,45.5019835 7.72308247,45.1872066 L7.72308247,42.0797355 C7.72308247,41.7649587 7.97941237,41.5094876 8.29524742,41.5094876 L28.2657113,41.5094876 C28.5815464,41.5094876 28.8378763,41.7649587 28.8378763,42.0797355 L28.8378763,45.1872066 C28.8378763,45.5019835 28.5815464,45.7574545 28.2657113,45.7574545 L28.2657113,45.7574545 Z" id="Fill-14" stroke="#000000" stroke-width="0.3" fill="#000000"></path>
                            <polygon id="Fill-15" stroke="#000000" stroke-width="0.3" fill="#000000" points="2.56368041 45.7574545 34.0571649 45.7574545 34.0571649 44.6169587 2.56368041 44.6169587"></polygon>
                        </g>
                    </g>
                </g>
            </g>
        </g>
    </g>
</svg>