<?xml version="1.0" encoding="UTF-8"?>
<svg width="60px" height="45px" viewBox="0 0 60 45" version="1.1" xmlns="http://www.w3.org/2000/svg" xmlns:xlink="http://www.w3.org/1999/xlink">
    <!-- Generator: Sketch 44.1 (41455) - http://www.bohemiancoding.com/sketch -->
    <title>Cafe</title>
    <desc>Created with Sketch.</desc>
    <defs></defs>
    <g id="Page-1" stroke="none" stroke-width="1" fill="none" fill-rule="evenodd">
        <g id="FIN-Copy-3" transform="translate(-330.000000, -3435.000000)">
            <g id="De-otrymaty" transform="translate(326.000000, 3243.000000)">
                <g id="Icons" transform="translate(3.000000, 192.000000)">
                    <g id="Cafe" transform="translate(1.000000, 1.000000)">
                        <g transform="translate(0.298246, 0.000000)">
                            <circle id="Oval-2" fill="#EA2C6E" cx="55.2017544" cy="10.5" r="3.5"></circle>
                            <path d="M1.70175439,0.5 L48.7017544,0.5 L48.7017544,13.009996 C48.0350877,15.3366653 46.7017544,16.5 44.7017544,16.5 C42.7017544,16.5 41.0350877,15.3333333 39.7017544,13 C38.7017544,15.3333333 37.2017544,16.5 35.2017544,16.5 C33.2017544,16.5 31.5350877,15.3333333 30.2017544,13 C28.8684211,15.3333333 27.3684211,16.5 25.7017544,16.5 C24.0350877,16.5 22.5350877,15.3333333 21.2017544,13 C19.5350877,15.3333333 17.8684211,16.5 16.2017544,16.5 C14.5350877,16.5 13.0350877,15.3333333 11.7017544,13 C10.3684211,15.3333333 8.70175439,16.5 6.70175439,16.5 C3.70175439,16.5 1.70175439,13 1.70175439,12 C1.70175439,11.3333333 1.70175439,7.5 1.70175439,0.5 Z" id="Path-6" fill="#EA2C6E"></path>
                            <path d="M42.4485038,41.6435756 L47.3748192,41.6435756 L47.3748192,16.0097749 C46.4846299,16.6385872 45.4170898,16.9826221 44.2915779,16.9826221 C42.2634234,16.9826221 40.495498,15.864402 39.5928555,14.2013533 C38.6897835,15.864402 36.9222875,16.9826221 34.8945625,16.9826221 C32.8668375,16.9826221 31.0984826,15.864402 30.1958401,14.2013533 C29.2927681,15.864402 27.5248427,16.9826221 25.4966883,16.9826221 C23.4689632,16.9826221 21.7014672,15.864402 20.7983953,14.2013533 C19.8953233,15.864402 18.1278273,16.9826221 16.1001023,16.9826221 C14.0719479,16.9826221 12.3044518,15.864402 11.4013799,14.2013533 C10.4987374,15.864402 8.73038253,16.9826221 6.70265751,16.9826221 C5.66689454,16.9826221 4.66376755,16.6820712 3.80879073,16.1329795 L3.80879073,41.6435756 L8.60971528,41.6435756 L8.60971528,20.3948349 C8.60971528,20.0418474 8.89828606,19.7553648 9.25384648,19.7553648 L41.8043726,19.7553648 C42.159933,19.7553648 42.4485038,20.0418474 42.4485038,20.3948349 L42.4485038,41.6435756 Z M48.0189504,42.922516 L41.8043726,42.922516 C41.4488122,42.922516 41.1602414,42.6364596 41.1602414,42.2830458 L41.1602414,21.0343051 L9.89797768,21.0343051 L9.89797768,42.2830458 C9.89797768,42.6364596 9.60940691,42.922516 9.25384648,42.922516 L3.16465953,42.922516 C2.80909911,42.922516 2.52052833,42.6364596 2.52052833,42.2830458 L2.52052833,14.7410661 C2.52052833,14.4746202 2.68671418,14.2358847 2.93835477,14.142522 C3.18827768,14.0491594 3.47341309,14.1195011 3.64947562,14.320721 C4.42243306,15.1997793 5.53549177,15.7036818 6.70265751,15.7036818 C8.87166197,15.7036818 10.6477464,14.0176122 10.747372,11.8647293 C10.7628312,11.5232522 11.0462489,11.2546748 11.3906444,11.2546748 C11.7350399,11.2546748 12.0399286,11.5232522 12.0558172,11.8647293 C12.1550134,14.0176122 13.9315273,15.7036818 16.1001023,15.7036818 C18.2682479,15.7036818 20.0447618,14.0176122 20.1443874,11.8647293 C20.1598466,11.5232522 20.4432643,11.2546748 20.7876598,11.2546748 C21.1316258,11.2546748 21.436944,11.5232522 21.4528326,11.8647293 C21.5520288,14.0176122 23.3285426,15.7036818 25.4966883,15.7036818 C27.6656927,15.7036818 29.4422066,14.0176122 29.5414028,11.8647293 C29.5572914,11.5232522 29.8407091,11.2546748 30.1846751,11.2546748 C30.5290706,11.2546748 30.8343888,11.5232522 30.849848,11.8647293 C30.9494736,14.0176122 32.725558,15.7036818 34.8945625,15.7036818 C37.0631375,15.7036818 38.839222,14.0176122 38.9384182,11.8647293 C38.9538773,11.5232522 39.2377245,11.2546748 39.5816905,11.2546748 C39.926086,11.2546748 40.2314042,11.5232522 40.2468633,11.8647293 C40.346489,14.0176122 42.1225734,15.7036818 44.2915779,15.7036818 C45.5587986,15.7036818 46.7315468,15.1273061 47.5075102,14.122059 C47.6754138,13.9042128 47.9648434,13.8176712 48.2255018,13.9054917 C48.4874485,13.9937386 48.6630816,14.2371636 48.6630816,14.5108568 L48.6630816,42.2830458 C48.6630816,42.6364596 48.3745108,42.922516 48.0189504,42.922516 Z" id="Fill-1" stroke="#000000" stroke-width="0.3" fill="#000000"></path>
                            <path d="M2.6478516,1.27911084 L2.6478516,11.6790272 C2.6478516,13.8984149 4.46644869,15.7038524 6.7024428,15.7038524 C8.93843691,15.7038524 10.7574634,13.8984149 10.7574634,11.6790272 L10.7574634,1.27911084 L2.6478516,1.27911084 Z M6.7024428,16.9827927 C3.75661611,16.9827927 1.3595892,14.6035374 1.3595892,11.6790272 L1.3595892,0.639640683 C1.3595892,0.286226843 1.64815997,0.000170525375 2.0037204,0.000170525375 L11.4015946,0.000170525375 C11.757155,0.000170525375 12.0457258,0.286226843 12.0457258,0.639640683 L12.0457258,11.6790272 C12.0457258,14.6035374 9.64869891,16.9827927 6.7024428,16.9827927 L6.7024428,16.9827927 Z" id="Fill-3" stroke="#000000" stroke-width="0.3" fill="#000000"></path>
                            <path d="M12.045597,1.27911084 L12.045597,11.6790272 C12.045597,13.8984149 13.8641941,15.7038524 16.0997588,15.7038524 C18.3357529,15.7038524 20.15435,13.8984149 20.15435,11.6790272 L20.15435,1.27911084 L12.045597,1.27911084 Z M16.0997588,16.9827927 C13.1539321,16.9827927 10.7573346,14.6035374 10.7573346,11.6790272 L10.7573346,0.639640683 C10.7573346,0.286226843 11.0459054,0.000170525375 11.4014658,0.000170525375 L20.7984812,0.000170525375 C21.1540416,0.000170525375 21.4426124,0.286226843 21.4426124,0.639640683 L21.4426124,11.6790272 C21.4426124,14.6035374 19.0460149,16.9827927 16.0997588,16.9827927 L16.0997588,16.9827927 Z" id="Fill-5" stroke="#000000" stroke-width="0.3" fill="#000000"></path>
                            <path d="M21.4425265,1.27911084 L21.4425265,11.6790272 C21.4425265,13.8984149 23.2611236,15.7038524 25.4966883,15.7038524 C27.7331118,15.7038524 29.5517089,13.8984149 29.5517089,11.6790272 L29.5517089,1.27911084 L21.4425265,1.27911084 Z M25.4966883,16.9827927 C22.5508616,16.9827927 20.1542641,14.6035374 20.1542641,11.6790272 L20.1542641,0.639640683 C20.1542641,0.286226843 20.4428349,0.000170525375 20.7983953,0.000170525375 L30.1958401,0.000170525375 C30.5514005,0.000170525375 30.8399713,0.286226843 30.8399713,0.639640683 L30.8399713,11.6790272 C30.8399713,14.6035374 28.4429444,16.9827927 25.4966883,16.9827927 L25.4966883,16.9827927 Z" id="Fill-7" stroke="#000000" stroke-width="0.3" fill="#000000"></path>
                            <path d="M30.8398854,1.27911084 L30.8398854,11.6790272 C30.8398854,13.8984149 32.6584825,15.7038524 34.8944766,15.7038524 C37.1300413,15.7038524 38.9486384,13.8984149 38.9486384,11.6790272 L38.9486384,1.27911084 L30.8398854,1.27911084 Z M34.8944766,16.9827927 C31.9486499,16.9827927 29.551623,14.6035374 29.551623,11.6790272 L29.551623,0.639640683 C29.551623,0.286226843 29.8401938,0.000170525375 30.1957542,0.000170525375 L39.5927696,0.000170525375 C39.94833,0.000170525375 40.2369008,0.286226843 40.2369008,0.639640683 L40.2369008,11.6790272 C40.2369008,14.6035374 37.8403033,16.9827927 34.8944766,16.9827927 L34.8944766,16.9827927 Z" id="Fill-9" stroke="#000000" stroke-width="0.3" fill="#000000"></path>
                            <path d="M40.2368149,1.27911084 L40.2368149,11.6790272 C40.2368149,13.8984149 42.055412,15.7038524 44.2914061,15.7038524 C46.5269708,15.7038524 48.3459973,13.8984149 48.3459973,11.6790272 L48.3459973,1.27911084 L40.2368149,1.27911084 Z M44.2914061,16.9827927 C41.3455794,16.9827927 38.9485525,14.6035374 38.9485525,11.6790272 L38.9485525,0.639640683 C38.9485525,0.286226843 39.2371233,0.000170525375 39.5926837,0.000170525375 L48.9901285,0.000170525375 C49.3456889,0.000170525375 49.6342597,0.286226843 49.6342597,0.639640683 L49.6342597,11.6790272 C49.6342597,14.6035374 47.2376622,16.9827927 44.2914061,16.9827927 L44.2914061,16.9827927 Z" id="Fill-11" stroke="#000000" stroke-width="0.3" fill="#000000"></path>
                            <path d="M9.89814945,41.6435756 L41.1604132,41.6435756 L41.1604132,21.0343051 L9.89814945,21.0343051 L9.89814945,41.6435756 Z M41.8045444,42.922516 L9.25401825,42.922516 C8.89845783,42.922516 8.60988705,42.6364596 8.60988705,42.2830458 L8.60988705,20.3948349 C8.60988705,20.0418474 8.89845783,19.7553648 9.25401825,19.7553648 L41.8045444,19.7553648 C42.1601048,19.7553648 42.4486756,20.0418474 42.4486756,20.3948349 L42.4486756,42.2830458 C42.4486756,42.6364596 42.1601048,42.922516 41.8045444,42.922516 L41.8045444,42.922516 Z" id="Fill-13" stroke="#000000" stroke-width="0.3" fill="#000000"></path>
                            <polygon id="Fill-15" stroke="#000000" stroke-width="0.3" fill="#000000" points="17.6423242 42.2830458 18.9305866 42.2830458 18.9305866 24.4571757 17.6423242 24.4571757"></polygon>
                            <polygon id="Fill-16" stroke="#000000" stroke-width="0.3" fill="#000000" points="29.3951421 42.2830458 30.6834045 42.2830458 30.6834045 33.8816869 29.3951421 33.8816869"></polygon>
                            <polygon id="Fill-17" stroke="#000000" stroke-width="0.3" fill="#000000" points="26.635684 34.521157 33.4428625 34.521157 33.4428625 33.2422167 26.635684 33.2422167"></polygon>
                            <path d="M27.714432,37.8517308 L22.517152,37.8517308 C22.2195634,37.8517308 21.9610521,37.6492319 21.8910565,37.3623229 L20.3717657,31.1083048 L21.6239568,30.8086064 L23.0247274,36.5727904 L27.714432,36.5727904 L27.714432,37.8517308 Z" id="Fill-18" stroke="#000000" stroke-width="0.3" fill="#000000"></path>
                            <polygon id="Fill-19" stroke="#000000" stroke-width="0.3" fill="#000000" points="22.4810377 42.2830458 23.7693002 42.2830458 23.7693002 37.4341567 22.4810377 37.4341567"></polygon>
                            <polygon id="Fill-20" stroke="#000000" stroke-width="0.3" fill="#000000" points="25.7330415 42.2830458 27.0213039 42.2830458 27.0213039 37.2120474 25.7330415 37.2120474"></polygon>
                            <path d="M37.5609221,37.8517308 L32.3636422,37.8517308 L32.3636422,36.5727904 L37.0533467,36.5727904 L38.4541174,30.8086064 L39.7063084,31.1083048 L38.1870176,37.3623229 C38.1174515,37.6492319 37.8585107,37.8517308 37.5609221,37.8517308" id="Fill-21" stroke="#000000" stroke-width="0.3" fill="#000000"></path>
                            <polygon id="Fill-22" stroke="#000000" stroke-width="0.3" fill="#000000" points="36.3088169 42.2830458 37.5970793 42.2830458 37.5970793 37.4341567 36.3088169 37.4341567"></polygon>
                            <polygon id="Fill-23" stroke="#000000" stroke-width="0.3" fill="#000000" points="33.0568132 42.2830458 34.3450756 42.2830458 34.3450756 37.2120474 33.0568132 37.2120474"></polygon>
                            <polygon id="Fill-24" stroke="#000000" stroke-width="0.3" fill="#000000" points="14.5805539 35.4095942 15.8688163 35.4095942 15.8688163 31.3395798 14.5805539 31.3395798"></polygon>
                            <polygon id="Fill-25" stroke="#000000" stroke-width="0.3" fill="#000000" points="48.9900426 4.8343944 58.8306497 4.8343944 58.8306497 3.55545408 48.9900426 3.55545408"></polygon>
                            <polygon id="Fill-26" stroke="#000000" stroke-width="0.3" fill="#000000" points="54.4290865 7.7243732 55.7173489 7.7243732 55.7173489 4.19535055 54.4290865 4.19535055"></polygon>
                            <path d="M55.0732177,7.93731676 C53.6522642,7.93731676 52.4966929,9.08452622 52.4966929,10.4951974 C52.4966929,11.9058686 53.6522642,13.053078 55.0732177,13.053078 C56.4941711,13.053078 57.6497425,11.9058686 57.6497425,10.4951974 C57.6497425,9.08452622 56.4941711,7.93731676 55.0732177,7.93731676 M55.0732177,14.3320183 C52.9420022,14.3320183 51.2084305,12.6105647 51.2084305,10.4951974 C51.2084305,8.37983011 52.9420022,6.65837644 55.0732177,6.65837644 C57.2044331,6.65837644 58.9380049,8.37983011 58.9380049,10.4951974 C58.9380049,12.6105647 57.2044331,14.3320183 55.0732177,14.3320183" id="Fill-27" stroke="#000000" stroke-width="0.3" fill="#000000"></path>
                            <polygon id="Fill-28" stroke="#000000" stroke-width="0.3" fill="#000000" points="9.41204511 25.0966458 41.8045444 25.0966458 41.8045444 23.8177055 9.41204511 23.8177055"></polygon>
                            <polygon id="Fill-29" stroke="#000000" stroke-width="0.3" fill="#000000" points="0 42.922516 50.8863649 42.922516 50.8863649 41.6435756 0 41.6435756"></polygon>
                        </g>
                    </g>
                </g>
            </g>
        </g>
    </g>
</svg>