<?xml version="1.0" encoding="UTF-8"?>
<svg width="60px" height="48px" viewBox="0 0 60 48" version="1.1" xmlns="http://www.w3.org/2000/svg" xmlns:xlink="http://www.w3.org/1999/xlink">
    <!-- Generator: Sketch 44.1 (41455) - http://www.bohemiancoding.com/sketch -->
    <title>Clubs</title>
    <desc>Created with Sketch.</desc>
    <defs></defs>
    <g id="Page-1" stroke="none" stroke-width="1" fill="none" fill-rule="evenodd">
        <g id="FIN-Copy-3" transform="translate(-328.000000, -3502.000000)">
            <g id="De-otrymaty" transform="translate(326.000000, 3243.000000)">
                <g id="Icons" transform="translate(3.000000, 192.000000)">
                    <g id="Clubs" transform="translate(0.000000, 67.000000)">
                        <g transform="translate(0.000000, 0.781726)">
                            <rect id="Rectangle-3" fill="#EA2C6E" x="15" y="0.218274112" width="28" height="9"></rect>
                            <rect id="Rectangle-2" fill="#EA2C6E" x="5" y="19.2182741" width="49" height="5"></rect>
                            <path d="M5.37850736,23.314047 L53.2511475,23.314047 L53.2511475,20.2422623 L5.37850736,20.2422623 L5.37850736,23.314047 Z M4.73158562,24.5882939 C4.37405354,24.5882939 4.08466388,24.3028626 4.08466388,23.9511704 L4.08466388,19.6051388 C4.08466388,19.2534467 4.37405354,18.9680154 4.73158562,18.9680154 L53.8980693,18.9680154 C54.2551701,18.9680154 54.544991,19.2534467 54.544991,19.6051388 L54.544991,23.9511704 C54.544991,24.3028626 54.2551701,24.5882939 53.8980693,24.5882939 L4.73158562,24.5882939 Z" id="Fill-1" stroke="#000000" stroke-width="0.3" fill="#000000" stroke-linecap="square" stroke-linejoin="round"></path>
                            <path d="M5.37850736,18.9680154 L53.2511475,18.9680154 L53.2511475,13.9929305 L5.37850736,13.9929305 L5.37850736,18.9680154 Z M4.73158562,20.2422623 C4.37405354,20.2422623 4.08466388,19.956831 4.08466388,19.6051388 L4.08466388,13.355807 C4.08466388,13.0041149 4.37405354,12.7186836 4.73158562,12.7186836 L53.8980693,12.7186836 C54.2551701,12.7186836 54.544991,13.0041149 54.544991,13.355807 L54.544991,19.6051388 C54.544991,19.956831 54.2551701,20.2422623 53.8980693,20.2422623 L4.73158562,20.2422623 Z" id="Fill-3" stroke="#000000" stroke-width="0.3" fill="#000000" stroke-linecap="square" stroke-linejoin="round"></path>
                            <path d="M5.37850736,18.9680154 L53.2511475,18.9680154 L53.2511475,13.9929305 L5.37850736,13.9929305 L5.37850736,18.9680154 Z M4.73158562,20.2422623 C4.37405354,20.2422623 4.08466388,19.956831 4.08466388,19.6051388 L4.08466388,13.355807 C4.08466388,13.0041149 4.37405354,12.7186836 4.73158562,12.7186836 L53.8980693,12.7186836 C54.2551701,12.7186836 54.544991,13.0041149 54.544991,13.355807 L54.544991,19.6051388 C54.544991,19.956831 54.2551701,20.2422623 53.8980693,20.2422623 L4.73158562,20.2422623 Z" id="Fill-4" stroke="#000000" stroke-width="0.3" fill="#000000" stroke-linecap="square" stroke-linejoin="round"></path>
                            <path d="M5.37850736,38.3217028 L21.2535356,38.3217028 L21.2535356,24.5882939 L5.37850736,24.5882939 L5.37850736,38.3217028 Z M4.73158562,39.5959497 C4.37405354,39.5959497 4.08466388,39.3105184 4.08466388,38.9588263 L4.08466388,23.9511704 C4.08466388,23.5994783 4.37405354,23.314047 4.73158562,23.314047 L21.9000261,23.314047 C22.2575582,23.314047 22.5469478,23.5994783 22.5469478,23.9511704 L22.5469478,38.9588263 C22.5469478,39.3105184 22.2575582,39.5959497 21.9000261,39.5959497 L4.73158562,39.5959497 Z" id="Fill-5" stroke="#000000" stroke-width="0.3" fill="#000000" stroke-linecap="square" stroke-linejoin="round"></path>
                            <path d="M37.3765506,38.3217028 L53.2511475,38.3217028 L53.2511475,24.5882939 L37.3765506,24.5882939 L37.3765506,38.3217028 Z M36.7296288,39.5959497 C36.372528,39.5959497 36.0827071,39.3105184 36.0827071,38.9588263 L36.0827071,23.9511704 C36.0827071,23.5994783 36.372528,23.314047 36.7296288,23.314047 L53.8980693,23.314047 C54.2551701,23.314047 54.544991,23.5994783 54.544991,23.9511704 L54.544991,38.9588263 C54.544991,39.3105184 54.2551701,39.5959497 53.8980693,39.5959497 L36.7296288,39.5959497 Z" id="Fill-6" stroke="#000000" stroke-width="0.3" fill="#000000" stroke-linecap="square" stroke-linejoin="round"></path>
                            <path d="M22.5469478,44.9996063 L36.0827071,44.9996063 L36.0827071,24.5882939 L22.5469478,24.5882939 L22.5469478,44.9996063 Z M21.9000261,46.2738532 C21.5429253,46.2738532 21.2531043,45.9884219 21.2531043,45.6367298 L21.2531043,23.9511704 C21.2531043,23.5994783 21.5429253,23.314047 21.9000261,23.314047 L36.7296288,23.314047 C37.0867296,23.314047 37.3765506,23.5994783 37.3765506,23.9511704 L37.3765506,45.6367298 C37.3765506,45.9884219 37.0867296,46.2738532 36.7296288,46.2738532 L21.9000261,46.2738532 Z" id="Fill-7" stroke="#000000" stroke-width="0.3" fill="#000000" stroke-linecap="square" stroke-linejoin="round"></path>
                            <path d="M4.73145624,46.2738532 C4.37392415,46.2738532 4.08453449,45.9884219 4.08453449,45.6367298 L4.08453449,19.6051388 L5.37837798,19.6051388 L5.37837798,44.9996063 L53.2510182,44.9996063 L53.2510182,19.6051388 L54.5448616,19.6051388 L54.5448616,45.6367298 C54.5448616,45.9884219 54.2550407,46.2738532 53.8979399,46.2738532 L4.73145624,46.2738532 Z" id="Fill-8" stroke="#000000" stroke-width="0.3" fill="#000000" stroke-linecap="square" stroke-linejoin="round"></path>
                            <polygon id="Fill-9" stroke="#000000" stroke-width="0.3" fill="#000000" stroke-linecap="square" stroke-linejoin="round" points="28.6681214 45.6367298 29.9619648 45.6367298 29.9619648 23.9511704 28.6681214 23.9511704"></polygon>
                            <path d="M16.0889437,8.0850969 L42.5411425,8.0850969 L42.5411425,1.27424695 L16.0889437,1.27424695 L16.0889437,8.0850969 Z M15.442022,9.35934385 C15.0844899,9.35934385 14.7951002,9.07391253 14.7951002,8.72222037 L14.7951002,0.637123475 C14.7951002,0.285006568 15.0844899,0 15.442022,0 L43.1880642,0 C43.545165,0 43.834986,0.285006568 43.834986,0.637123475 L43.834986,8.72222037 C43.834986,9.07391253 43.545165,9.35934385 43.1880642,9.35934385 L15.442022,9.35934385 Z" id="Fill-10" stroke="#000000" stroke-width="0.3" fill="#000000" stroke-linecap="square" stroke-linejoin="round"></path>
                            <polygon id="Fill-11" stroke="#000000" stroke-width="0.3" fill="#000000" stroke-linecap="square" stroke-linejoin="round" points="20.473348 13.355807 21.7671915 13.355807 21.7671915 8.72222037 20.473348 8.72222037"></polygon>
                            <polygon id="Fill-12" stroke="#000000" stroke-width="0.3" fill="#000000" stroke-linecap="square" stroke-linejoin="round" points="36.8624634 13.355807 38.1563069 13.355807 38.1563069 8.72222037 36.8624634 8.72222037"></polygon>
                            <polygon id="Fill-13" stroke="#000000" stroke-width="0.3" fill="#000000" stroke-linecap="square" stroke-linejoin="round" points="42.3337825 32.0771282 41.4190351 31.1762356 44.905512 27.7417153 45.8202594 28.6426079"></polygon>
                            <polygon id="Fill-14" stroke="#000000" stroke-width="0.3" fill="#000000" stroke-linecap="square" stroke-linejoin="round" points="42.7625191 35.7596594 41.8477717 34.8587668 49.0738876 27.7416728 49.9886349 28.6425654"></polygon>
                            <polygon id="Fill-15" stroke="#000000" stroke-width="0.3" fill="#000000" stroke-linecap="square" stroke-linejoin="round" points="10.4134993 32.0771282 9.49875194 31.1762356 12.9856601 27.7417153 13.9004075 28.6426079"></polygon>
                            <polygon id="Fill-16" stroke="#000000" stroke-width="0.3" fill="#000000" stroke-linecap="square" stroke-linejoin="round" points="10.8422359 35.7596594 9.92748854 34.8587668 17.1536044 27.7416728 18.0683517 28.6425654"></polygon>
                            <polygon id="Fill-17" stroke="#000000" stroke-width="0.3" fill="#000000" stroke-linecap="square" stroke-linejoin="round" points="0 46.2738532 58.6296549 46.2738532 58.6296549 44.9996063 0 44.9996063"></polygon>
                        </g>
                    </g>
                </g>
            </g>
        </g>
    </g>
</svg>