<?xml version="1.0" encoding="UTF-8"?>
<svg width="23px" height="27px" viewBox="0 0 23 27" version="1.1" xmlns="http://www.w3.org/2000/svg" xmlns:xlink="http://www.w3.org/1999/xlink">
    <!-- Generator: Sketch 44.1 (41455) - http://www.bohemiancoding.com/sketch -->
    <title>Group</title>
    <desc>Created with Sketch.</desc>
    <defs></defs>
    <g id="Page-1" stroke="none" stroke-width="1" fill="none" fill-rule="evenodd">
        <g id="PRAVKI_07.07.17_003" transform="translate(-854.000000, -2944.000000)" fill="#FFFFFF">
            <g id="Group-4" transform="translate(523.000000, 2938.000000)">
                <g id="noun_1092955_cc" transform="translate(331.000000, 6.000000)">
                    <g id="Group">
                        <g id="Shape">
                            <path d="M10.8030303,0.248684211 L10.8030303,16.6973684 L6.16818182,12.2921053 L5.22727273,13.3223684 L11.0121212,18.8289474 C11.1515152,18.9710526 11.3257576,19.0065789 11.5,19.0065789 C11.6742424,19.0065789 11.8484848,18.9355263 11.9878788,18.8289474 L17.7727273,13.3223684 L16.8318182,12.2921053 L12.1969697,16.6973684 L12.1969697,0.248684211 L10.8030303,0.248684211 Z" fill-rule="nonzero"></path>
                            <path d="M22.7560606,24.975 L22.7560606,7.46052632 C22.7560606,6.46578947 21.9893939,5.68421053 21.0136364,5.68421053 L16.3787879,5.68421053 L16.3787879,7.10526316 L21.0136364,7.10526316 C21.2227273,7.10526316 21.3621212,7.24736842 21.3621212,7.46052632 L21.3621212,24.975 C21.3621212,25.1881579 21.2227273,25.3302632 21.0136364,25.3302632 L1.98636364,25.3302632 C1.77727273,25.3302632 1.63787879,25.1881579 1.63787879,24.975 L1.63787879,7.46052632 C1.63787879,7.24736842 1.77727273,7.10526316 1.98636364,7.10526316 L6.62121212,7.10526316 L6.62121212,5.68421053 L1.98636364,5.68421053 C1.01060606,5.68421053 0.243939394,6.46578947 0.243939394,7.46052632 L0.243939394,24.975 C0.243939394,25.9697368 1.01060606,26.7513158 1.98636364,26.7513158 L21.0136364,26.7513158 C21.9893939,26.7513158 22.7560606,25.9697368 22.7560606,24.975 Z" fill-rule="nonzero"></path>
                        </g>
                    </g>
                </g>
            </g>
        </g>
    </g>
</svg>