<?xml version="1.0" encoding="UTF-8"?>
<svg width="56px" height="49px" viewBox="0 0 56 49" version="1.1" xmlns="http://www.w3.org/2000/svg" xmlns:xlink="http://www.w3.org/1999/xlink">
    <!-- Generator: Sketch 44.1 (41455) - http://www.bohemiancoding.com/sketch -->
    <title>Hoteli</title>
    <desc>Created with Sketch.</desc>
    <defs></defs>
    <g id="Page-1" stroke="none" stroke-width="1" fill="none" fill-rule="evenodd">
        <g id="FIN-Copy-3" transform="translate(-721.000000, -3567.000000)">
            <g id="De-otrymaty" transform="translate(326.000000, 3243.000000)">
                <g id="Icons" transform="translate(3.000000, 192.000000)">
                    <g id="Hoteli" transform="translate(393.000000, 133.000000)">
                        <g>
                            <path d="M9.5,19 L6,19 L6,46 L11,46 L11,24 L16,24 L16,46 L19,46 L19,24 L25,24 L25,46 L28,46 L28,24 L34,24 L34,46 L37,46 L37,24 L43,24 L43,46 L48,46 L48,19 L44.5,19 L9.5,19 Z" id="Combined-Shape" fill="#EA2C6E"></path>
                            <path d="M22.4692566,17.1380492 L31.1833274,17.1380492 L31.1833274,11.9760328 L22.4692566,11.9760328 L22.4692566,17.1380492 Z M31.9001416,18.5888689 L21.7524425,18.5888689 C21.3567611,18.5888689 21.0356283,18.2638852 21.0356283,17.863459 L21.0356283,11.250623 C21.0356283,10.8501967 21.3567611,10.5252131 21.7524425,10.5252131 L31.9001416,10.5252131 C32.295823,10.5252131 32.6169558,10.8501967 32.6169558,11.250623 L32.6169558,17.863459 C32.6169558,18.2638852 32.295823,18.5888689 31.9001416,18.5888689 L31.9001416,18.5888689 Z" id="Fill-1" stroke="#000000" stroke-width="0.3" fill="#000000"></path>
                            <path d="M34.7548779,46.5976877 L33.3212496,46.5976877 L33.3212496,24.4281959 L29.1723292,24.4281959 L29.1723292,46.5976877 L27.7387009,46.5976877 L27.7387009,23.7027861 C27.7387009,23.3023598 28.0598336,22.9773762 28.455515,22.9773762 L34.0380637,22.9773762 C34.4337451,22.9773762 34.7548779,23.3023598 34.7548779,23.7027861 L34.7548779,46.5976877 Z" id="Fill-3" stroke="#000000" stroke-width="0.3" fill="#000000"></path>
                            <path d="M25.214177,17.1380492 L28.4369735,17.1380492 L28.4369735,14.8975 L25.214177,14.8975 L25.214177,17.1380492 Z M29.1537876,18.5888689 L24.4973628,18.5888689 C24.1016814,18.5888689 23.7805487,18.2638852 23.7805487,17.863459 L23.7805487,14.1720902 C23.7805487,13.7716639 24.1016814,13.4466803 24.4973628,13.4466803 L29.1537876,13.4466803 C29.549469,13.4466803 29.8706018,13.7716639 29.8706018,14.1720902 L29.8706018,17.863459 C29.8706018,18.2638852 29.549469,18.5888689 29.1537876,18.5888689 L29.1537876,18.5888689 Z" id="Fill-6" stroke="#000000" stroke-width="0.3" fill="#000000"></path>
                            <path d="M43.5955858,46.5976877 L42.1619575,46.5976877 L42.1619575,24.4281959 L38.0139929,24.4281959 L38.0139929,46.5976877 L36.5803646,46.5976877 L36.5803646,23.7027861 C36.5803646,23.3023598 36.9014973,22.9773762 37.2971788,22.9773762 L42.8787717,22.9773762 C43.2744531,22.9773762 43.5955858,23.3023598 43.5955858,23.7027861 L43.5955858,46.5976877 Z" id="Fill-8" stroke="#000000" stroke-width="0.3" fill="#000000"></path>
                            <polygon id="Fill-9" stroke="#000000" stroke-width="0.3" fill="#000000" points="26.1092389 11.250623 27.5428673 11.250623 27.5428673 0 26.1092389 0"></polygon>
                            <path d="M47.4937168,17.6691172 L6.15838938,17.6691172 C5.76270796,17.6691172 5.44157522,17.9941008 5.44157522,18.394527 L5.44157522,41.5375189 L5.44157522,43.6973057 L5.44157522,46.5974943 L6.87520354,46.5974943 L6.87520354,43.6973057 L6.87520354,41.5375189 L6.87520354,19.1199369 L46.7769027,19.1199369 L46.7769027,46.5974943 L48.210531,46.5974943 L48.210531,18.394527 C48.210531,17.9941008 47.8893982,17.6691172 47.4937168,17.6691172" id="Fill-10" stroke="#000000" stroke-width="0.3" fill="#000000"></path>
                            <path d="M16.3552619,22.977473 L10.7727133,22.977473 C10.3770319,22.977473 10.0558991,23.3024566 10.0558991,23.7028828 L10.0558991,41.5382926 L10.0558991,43.9393992 L10.0558991,46.5977844 L11.4895274,46.5977844 L11.4895274,43.9393992 L11.4895274,41.5382926 L11.4895274,24.4282926 L15.6384478,24.4282926 L15.6384478,41.5407107 L15.6384478,42.6094811 L15.6384478,46.5977844 L17.0720761,46.5977844 L17.0720761,42.6094811 L17.0720761,41.5407107 L17.0720761,23.7028828 C17.0720761,23.3024566 16.7509434,22.977473 16.3552619,22.977473" id="Fill-11" stroke="#000000" stroke-width="0.3" fill="#000000"></path>
                            <path d="M25.1964478,22.977473 L19.6138991,22.977473 C19.2182177,22.977473 18.897085,23.3024566 18.897085,23.7028828 L18.897085,41.5382926 L18.897085,43.7532107 L18.897085,46.5977844 L20.3307133,46.5977844 L20.3307133,43.7532107 L20.3307133,41.5382926 L20.3307133,24.4282926 L24.4796336,24.4282926 L24.4796336,46.5977844 L25.9132619,46.5977844 L25.9132619,23.7028828 C25.9132619,23.3024566 25.5921292,22.977473 25.1964478,22.977473" id="Fill-12" stroke="#000000" stroke-width="0.3" fill="#000000"></path>
                            <polygon id="Fill-13" stroke="#000000" stroke-width="0.3" fill="#000000" points="0 46.9013443 53.9436106 46.9013443 53.9436106 45.2894836 0 45.2894836"></polygon>
                        </g>
                    </g>
                </g>
            </g>
        </g>
    </g>
</svg>