<?xml version="1.0" encoding="UTF-8"?>
<svg width="34px" height="34px" viewBox="0 0 34 34" version="1.1" xmlns="http://www.w3.org/2000/svg" xmlns:xlink="http://www.w3.org/1999/xlink">
    <!-- Generator: Sketch 44.1 (41455) - http://www.bohemiancoding.com/sketch -->
    <title>Shape</title>
    <desc>Created with Sketch.</desc>
    <defs></defs>
    <g id="Page-1" stroke="none" stroke-width="1" fill="none" fill-rule="evenodd">
        <g id="PRAVKI_07.07.17_003" transform="translate(-1234.000000, -40.000000)" fill-rule="nonzero" fill="#FFE300">
            <g id="noun_975395_cc" transform="translate(1251.000000, 57.000000) rotate(-360.000000) translate(-1251.000000, -57.000000) translate(1234.000000, 40.000000)">
                <path d="M17,34 C26.3888407,34 34,26.3888407 34,17 C34,7.61115925 26.3888407,-6.52765823e-15 17,-7.10542736e-15 C7.61115925,-7.68319648e-15 1.15553825e-15,7.61115925 0,17 C0.0114696634,26.3840858 7.61591425,33.9885303 17,34 Z M17,3.46938776 C22.3017971,3.47405517 27.1123688,6.57476149 29.3061,11.4014184 C31.4998313,16.2280754 30.6724681,21.8912414 27.1895918,25.8885714 C25.2554069,24.4004641 23.1827608,23.1015749 21.0002041,22.0097959 C20.9685348,21.9940846 20.9484082,21.9618822 20.9481633,21.9265306 L20.9481633,19.6957143 C21.259356,19.1682028 21.4765311,18.5906344 21.59,17.9887755 C21.9369388,17.8812245 22.2457143,17.3226531 22.5371429,16.2922449 C22.8042857,15.3485714 22.8077551,14.7379592 22.5371429,14.4257143 C22.4292733,14.3058361 22.2783608,14.2334979 22.1173469,14.2244898 C22.1767076,14.0380178 22.2242174,13.8479787 22.2595918,13.6555102 C22.5753061,11.7542857 22.4122449,10.3804082 21.7704082,9.56510204 C21.5257186,9.23529835 21.1692889,9.00590069 20.7677551,8.91979592 C20.4353201,8.39951493 19.9739919,7.97404127 19.4285714,7.68469388 C18.5895238,7.19830276 17.6173913,6.99172459 16.6530612,7.09489796 C16.2738028,7.11332104 15.8989673,7.18455145 15.5393878,7.30653061 C15.1075408,7.45565113 14.6987844,7.66470081 14.325102,7.92755102 C13.867714,8.22059495 13.4492236,8.57030841 13.0795918,8.96836735 C12.4184429,9.61815669 11.9501214,10.4383197 11.7265306,11.3379592 C11.5509549,12.0958141 11.5509549,12.8837777 11.7265306,13.6416327 L11.7265306,13.6416327 C11.7650825,13.8389409 11.8160685,14.0336148 11.8791837,14.2244898 C11.7136232,14.235239 11.5595642,14.3128948 11.452449,14.4395918 C11.1922449,14.7553061 11.1922449,15.3659184 11.452449,16.3061224 C11.7438776,17.3469388 12.0561224,17.895102 12.3995918,18.0026531 C12.5120805,18.6135216 12.7292166,19.200376 13.0414286,19.7373469 L13.0414286,21.9265306 C13.0411836,21.9618822 13.0210571,21.9940846 12.9893878,22.0097959 C10.8104211,23.1021366 8.74128165,24.4010125 6.81040816,25.8885714 C3.3275319,21.8912414 2.50016869,16.2280754 4.69389996,11.4014184 C6.88763123,6.57476149 11.6982029,3.47405517 17,3.46938776 Z" id="Shape"></path>
            </g>
        </g>
    </g>
</svg>