<?xml version="1.0" encoding="UTF-8"?>
<svg width="48px" height="44px" viewBox="0 0 48 44" version="1.1" xmlns="http://www.w3.org/2000/svg" xmlns:xlink="http://www.w3.org/1999/xlink">
    <!-- Generator: Sketch 44.1 (41455) - http://www.bohemiancoding.com/sketch -->
    <title>Magazines</title>
    <desc>Created with Sketch.</desc>
    <defs></defs>
    <g id="Page-1" stroke="none" stroke-width="1" fill="none" fill-rule="evenodd">
        <g id="FIN-Copy-3" transform="translate(-725.000000, -3435.000000)">
            <g id="De-otrymaty" transform="translate(326.000000, 3243.000000)">
                <g id="Icons" transform="translate(3.000000, 192.000000)">
                    <g id="Magazines" transform="translate(397.000000, 0.000000)">
                        <g>
                            <rect id="Rectangle-13" fill="#EA2C6E" x="1" y="1" width="23" height="42"></rect>
                            <rect id="Rectangle-13-Copy-4" fill="#EA2C6E" x="15" y="20" width="23" height="23"></rect>
                            <polygon id="Fill-1" stroke="#000000" stroke-width="0.3" fill="#000000" points="27.5869018 20.3576471 28.8458304 20.3576471 28.8458304 1.06951872 27.5869018 1.06951872"></polygon>
                            <path d="M12.0057304,17.2989947 C8.14963214,17.2989947 5.01238214,14.1007059 5.01238214,10.1695829 L5.01238214,5.14712299 L6.27131071,5.14712299 L6.27131071,10.1695829 C6.27131071,13.3931123 8.84372143,16.0155722 12.0057304,16.0155722 C15.1677393,16.0155722 17.74015,13.3931123 17.74015,10.1695829 L17.74015,5.14712299 L18.9990786,5.14712299 L18.9990786,10.1695829 C18.9990786,14.1007059 15.8618286,17.2989947 12.0057304,17.2989947 Z" id="Fill-2" stroke="#000000" stroke-width="0.3" fill="#000000"></path>
                            <path d="M14.7819196,42.1381818 L36.9667589,42.1381818 L36.9667589,20.9993583 L14.7819196,20.9993583 L14.7819196,42.1381818 Z M37.5962232,43.4216043 L14.1524554,43.4216043 C13.8045714,43.4216043 13.5229911,43.1341176 13.5229911,42.779893 L13.5229911,20.3576471 C13.5229911,20.0034225 13.8045714,19.7159358 14.1524554,19.7159358 L37.5962232,19.7159358 C37.9436875,19.7159358 38.2256875,20.0034225 38.2256875,20.3576471 L38.2256875,42.779893 C38.2256875,43.1341176 37.9436875,43.4216043 37.5962232,43.4216043 L37.5962232,43.4216043 Z" id="Fill-4" stroke="#000000" stroke-width="0.3" fill="#000000"></path>
                            <path d="M1.25892857,42.1381818 L13.5229911,42.1381818 L13.5229911,20.3576471 C13.5229911,20.0034225 13.8045714,19.7159358 14.1524554,19.7159358 L23.4437679,19.7159358 L23.4437679,1.71122995 L1.25892857,1.71122995 L1.25892857,42.1381818 Z M14.1524554,43.4216043 L0.629464286,43.4216043 C0.281580357,43.4216043 0,43.1341176 0,42.779893 L0,1.06951872 C0,0.715294118 0.281580357,0.427807487 0.629464286,0.427807487 L24.0732321,0.427807487 C24.4211161,0.427807487 24.7026964,0.715294118 24.7026964,1.06951872 L24.7026964,20.3576471 C24.7026964,20.7118717 24.4211161,20.9993583 24.0732321,20.9993583 L14.7819196,20.9993583 L14.7819196,42.779893 C14.7819196,43.1341176 14.4999196,43.4216043 14.1524554,43.4216043 L14.1524554,43.4216043 Z" id="Fill-6" stroke="#000000" stroke-width="0.3" fill="#000000"></path>
                            <path d="M24.7026964,19.7159358 L31.8038929,19.7159358 L31.8038929,1.71122995 L24.7026964,1.71122995 L24.7026964,19.7159358 Z M32.4333571,20.9993583 L24.0732321,20.9993583 C23.7257679,20.9993583 23.4437679,20.7118717 23.4437679,20.3576471 L23.4437679,1.06951872 C23.4437679,0.715294118 23.7257679,0.427807487 24.0732321,0.427807487 L32.4333571,0.427807487 C32.7812411,0.427807487 33.0628214,0.715294118 33.0628214,1.06951872 L33.0628214,20.3576471 C33.0628214,20.7118717 32.7812411,20.9993583 32.4333571,20.9993583 L32.4333571,20.9993583 Z" id="Fill-7" stroke="#000000" stroke-width="0.3" fill="#000000"></path>
                            <path d="M38.2256875,42.1381818 L45.3260446,42.1381818 L45.3260446,20.9993583 L38.2256875,20.9993583 L38.2256875,42.1381818 Z M45.9555089,43.4216043 L37.5962232,43.4216043 C37.2483393,43.4216043 36.9667589,43.1341176 36.9667589,42.779893 L36.9667589,20.3576471 C36.9667589,20.0034225 37.2483393,19.7159358 37.5962232,19.7159358 L45.9555089,19.7159358 C46.3029732,19.7159358 46.5849732,20.0034225 46.5849732,20.3576471 L46.5849732,42.779893 C46.5849732,43.1341176 46.3029732,43.4216043 45.9555089,43.4216043 L45.9555089,43.4216043 Z" id="Fill-8" stroke="#000000" stroke-width="0.3" fill="#000000"></path>
                            <path d="M39.1532241,42.1381818 L44.4503759,42.1381818 L41.8020098,39.4002139 L39.1532241,42.1381818 Z M45.9552152,43.4216043 L37.6479652,43.4216043 C37.3945009,43.4216043 37.1653759,43.2663102 37.0675991,43.0275936 C36.9694027,42.7884492 37.021858,42.513369 37.2002062,42.328984 L41.3538312,38.0359358 C41.4721705,37.9140107 41.633733,37.8451337 41.8020098,37.8451337 C41.9702866,37.8451337 42.1318491,37.9140107 42.2501884,38.0359358 L46.4033937,42.328984 C46.581742,42.513369 46.6341973,42.7884492 46.5360009,43.0275936 C46.4382241,43.2663102 46.2090991,43.4216043 45.9552152,43.4216043 L45.9552152,43.4216043 Z" id="Fill-9" stroke="#000000" stroke-width="0.3" fill="#000000"></path>
                            <polygon id="Fill-10" stroke="#000000" stroke-width="0.3" fill="#000000" points="41.1098929 38.4868449 42.3688214 38.4868449 42.3688214 20.3576471 41.1098929 20.3576471"></polygon>
                            <path d="M25.5285536,34.5629519 C21.6724554,34.5629519 18.5347857,31.3646631 18.5347857,27.4335401 L18.5347857,24.4350374 L19.7937143,24.4350374 L19.7937143,27.4335401 C19.7937143,30.6570695 22.366125,33.2795294 25.5285536,33.2795294 C28.6905625,33.2795294 31.2629732,30.6570695 31.2629732,27.4335401 L31.2629732,24.4350374 L32.5219018,24.4350374 L32.5219018,27.4335401 C32.5219018,31.3646631 29.3846518,34.5629519 25.5285536,34.5629519" id="Fill-11" stroke="#000000" stroke-width="0.3" fill="#000000"></path>
                        </g>
                    </g>
                </g>
            </g>
        </g>
    </g>
</svg>