<?xml version="1.0" encoding="UTF-8"?>
<svg width="54px" height="40px" viewBox="0 0 54 40" version="1.1" xmlns="http://www.w3.org/2000/svg" xmlns:xlink="http://www.w3.org/1999/xlink">
    <!-- Generator: Sketch 44.1 (41455) - http://www.bohemiancoding.com/sketch -->
    <title>Museum</title>
    <desc>Created with Sketch.</desc>
    <defs></defs>
    <g id="Page-1" stroke="none" stroke-width="1" fill="none" fill-rule="evenodd">
        <g id="FIN-Copy-3" transform="translate(-332.000000, -3575.000000)">
            <g id="De-otrymaty" transform="translate(326.000000, 3243.000000)">
                <g id="Icons" transform="translate(3.000000, 192.000000)">
                    <g id="Museum" transform="translate(3.000000, 140.000000)">
                        <g transform="translate(0.789474, 0.563452)">
                            <rect id="Rectangle-7" fill="#EA2C6E" x="1.21052632" y="32.4365482" width="51" height="6"></rect>
                            <rect id="Rectangle-7" fill="#EA2C6E" x="1.21052632" y="0.436548223" width="51" height="6"></rect>
                            <rect id="Rectangle-5" fill="#EA2C6E" x="46.2105263" y="1.43654822" width="5" height="37"></rect>
                            <rect id="Rectangle-5" fill="#EA2C6E" x="1.21052632" y="1.43654822" width="5" height="37"></rect>
                            <path d="M6.98073051,32.4472972 L45.3747483,32.4472972 L45.3747483,6.83438006 L6.98073051,6.83438006 L6.98073051,32.4472972 Z M46.2473397,34.154825 L6.1081392,34.154825 C5.62646879,34.154825 5.23554789,33.7723388 5.23554789,33.3010611 L5.23554789,5.98061616 C5.23554789,5.50848472 5.62646879,5.12685225 6.1081392,5.12685225 L46.2473397,5.12685225 C46.7290101,5.12685225 47.119931,5.50848472 47.119931,5.98061616 L47.119931,33.3010611 C47.119931,33.7723388 46.7290101,34.154825 46.2473397,34.154825 L46.2473397,34.154825 Z" id="Shape" fill="#000000" fill-rule="nonzero"></path>
                            <path d="M1.74518263,37.5698807 L50.6102962,37.5698807 L50.6102962,1.71179663 L1.74518263,1.71179663 L1.74518263,37.5698807 Z M51.4828875,39.2774085 L0.872591314,39.2774085 C0.390920909,39.2774085 0,38.8949222 0,38.4236446 L0,0.858032725 C0,0.385901285 0.390920909,0.00426881953 0.872591314,0.00426881953 L51.4828875,0.00426881953 C51.964558,0.00426881953 52.3554789,0.385901285 52.3554789,0.858032725 L52.3554789,38.4236446 C52.3554789,38.8949222 51.964558,39.2774085 51.4828875,39.2774085 L51.4828875,39.2774085 Z" id="Shape" fill="#000000" fill-rule="nonzero"></path>
                            <path d="M6.1081392,6.83395318 C5.88475582,6.83395318 5.66137245,6.75028432 5.49121714,6.58380036 L0.255669255,1.46121692 C-0.0855139488,1.12739524 -0.0855139488,0.587816449 0.255669255,0.253994762 C0.596852459,-0.0798269252 1.14833017,-0.0798269252 1.48951337,0.253994762 L6.72506126,5.37657819 C7.06624446,5.71039988 7.06624446,6.24997867 6.72506126,6.58380036 C6.55490595,6.75028432 6.33152258,6.83395318 6.1081392,6.83395318" id="Shape" fill="#000000" fill-rule="nonzero"></path>
                            <path d="M46.2473397,6.83395318 C46.0239563,6.83395318 45.8005729,6.75028432 45.6304176,6.58380036 C45.2892344,6.24997867 45.2892344,5.71039988 45.6304176,5.37657819 L50.8659655,0.253994762 C51.2071487,-0.0798269252 51.7586264,-0.0798269252 52.0998096,0.253994762 C52.4409928,0.587816449 52.4409928,1.12739524 52.0998096,1.46121692 L46.8642617,6.58380036 C46.6941064,6.75028432 46.470723,6.83395318 46.2473397,6.83395318" id="Shape" fill="#000000" fill-rule="nonzero"></path>
                            <path d="M51.4828875,39.2769816 C51.2595042,39.2769816 51.0361208,39.1933127 50.8659655,39.0268288 L45.6304176,33.9042453 C45.2892344,33.5704236 45.2892344,33.0308449 45.6304176,32.6970232 C45.9716008,32.3632015 46.5230785,32.3632015 46.8642617,32.6970232 L52.0998096,37.8196066 C52.4409928,38.1534283 52.4409928,38.6930071 52.0998096,39.0268288 C51.9296543,39.1933127 51.7062709,39.2769816 51.4828875,39.2769816" id="Shape" fill="#000000" fill-rule="nonzero"></path>
                            <path d="M0.872591314,39.2769816 C0.649207938,39.2769816 0.425824561,39.1933127 0.255669255,39.0268288 C-0.0855139488,38.6930071 -0.0855139488,38.1534283 0.255669255,37.8196066 L5.49121714,32.6970232 C5.83240035,32.3632015 6.38387806,32.3632015 6.72506126,32.6970232 C7.06624446,33.0308449 7.06624446,33.5704236 6.72506126,33.9042453 L1.48951337,39.0268288 C1.31935807,39.1933127 1.09597469,39.2769816 0.872591314,39.2769816" id="Shape" fill="#000000" fill-rule="nonzero"></path>
                            <path d="M29.668541,34.1543982 C29.4172347,34.1543982 29.1676736,34.0485314 28.9949005,33.8436281 C22.0630351,25.6201742 17.9950144,22.941063 6.05272965,22.1999959 C5.57193184,22.1701142 5.20718867,21.7645764 5.23685677,21.2941524 C5.26827006,20.8237285 5.6766428,20.4642939 6.16354875,20.4958832 C18.6590564,21.2711008 23.1598824,24.2370766 30.3413089,32.7576404 C30.648461,33.1213438 30.595233,33.6592151 30.2235091,33.9588862 C30.0603345,34.0903659 29.8640014,34.1543982 29.668541,34.1543982" id="Shape" fill="#000000" fill-rule="nonzero"></path>
                            <path d="M26.1777394,29.8855786 C25.696069,29.8855786 25.3051481,29.5030924 25.3051481,29.0318147 C25.3051481,28.560537 25.696069,28.1780508 26.1777394,28.1780508 C34.3408312,28.1780508 40.7735743,27.2039062 45.6304176,22.4518563 C45.9716008,22.1180346 46.5230785,22.1180346 46.8642617,22.4518563 C47.2054449,22.785678 47.2054449,23.3252568 46.8642617,23.6590785 C41.5824665,28.8269114 34.7753817,29.8855786 26.1777394,29.8855786" id="Shape" fill="#000000" fill-rule="nonzero"></path>
                            <path d="M27.9229221,15.3715922 C28.1146582,13.6640644 28.9872495,12.8103005 30.540696,12.8103005 L31.5136353,12.8103005 C31.9551665,10.9371425 33.7884809,9.3952449 35.7762439,9.3952449 C38.2188829,9.3952449 39.6732017,10.8181847 40.1392005,13.6640644 L38.3940178,13.6640644 C38.2781381,11.9565366 37.4055467,11.1027727 35.7762439,11.1027727 C34.2370826,11.1027727 33.1584699,12.3714659 33.1584699,13.6640644 C33.1584699,14.1353421 32.767549,14.5178283 32.2858786,14.5178283 L30.540696,14.5178283 C29.9872495,14.5178283 29.6963858,14.8024163 29.6681047,15.3715922 L27.9229221,15.3715922 Z" id="Shape" fill="#000000" fill-rule="nonzero"></path>
                            <path d="M16.579235,10.2490088 C14.1735007,10.2490088 12.2162784,12.1640012 12.2162784,14.5178283 C12.2162784,16.8716554 14.1735007,18.7866479 16.579235,18.7866479 C18.9849692,18.7866479 20.9421915,16.8716554 20.9421915,14.5178283 C20.9421915,12.1640012 18.9849692,10.2490088 16.579235,10.2490088 M16.579235,20.4941757 C13.2110325,20.4941757 10.4710958,17.813357 10.4710958,14.5178283 C10.4710958,11.2222997 13.2110325,8.54148099 16.579235,8.54148099 C19.9474374,8.54148099 22.6873742,11.2222997 22.6873742,14.5178283 C22.6873742,17.813357 19.9474374,20.4941757 16.579235,20.4941757" id="Shape" fill="#000000" fill-rule="nonzero"></path>
                            <path d="M15.9623129,16.8289672 L14.2171303,15.1214394 L15.4509744,13.9142172 L17.196157,15.6217451 C17.5373402,15.9555667 17.5373402,16.4951455 17.196157,16.8289672 C17.0260017,16.9954512 16.8026183,17.07912 16.579235,17.07912 C16.3558516,17.07912 16.1324682,16.9954512 15.9623129,16.8289672 Z" id="Shape" fill="#000000" fill-rule="nonzero"></path>
                            <path d="M15.7066437,29.0318147 L15.7066437,16.2253561 C15.7066437,15.7540785 16.0975646,15.3715922 16.579235,15.3715922 C17.0609054,15.3715922 17.4518263,15.7540785 17.4518263,16.2253561 L17.4518263,29.0318147 L15.7066437,29.0318147 Z" id="Shape" fill="#000000" fill-rule="nonzero"></path>
                            <path d="M15.9623129,16.8289672 C15.6211297,16.4951455 15.6211297,15.9555667 15.9623129,15.6217451 L17.7074955,13.9142172 L18.9413397,15.1214394 L17.196157,16.8289672 C17.0260017,16.9954512 16.8026183,17.07912 16.579235,17.07912 C16.3558516,17.07912 16.1324682,16.9954512 15.9623129,16.8289672 Z" id="Shape" fill="#000000" fill-rule="nonzero"></path>
                            <path d="M40.2857958,26.9441058 L39.8381565,26.2790238 C37.9332896,23.4351362 35.9629784,20.4939195 30.540696,20.4939195 C26.5616796,20.4939195 23.3435628,22.1971785 21.7109445,25.1674232 L20.1734386,24.3589087 C22.1210624,20.8174961 25.8993828,18.7863917 30.540696,18.7863917 C36.9062496,18.7863917 39.3407794,22.4225722 41.2980017,25.3432985 L41.7377877,25.9972817 L40.2857958,26.9441058 Z" id="Shape" fill="#000000" fill-rule="nonzero"></path>
                        </g>
                    </g>
                </g>
            </g>
        </g>
    </g>
</svg>