<?xml version="1.0" encoding="UTF-8"?>
<svg width="61px" height="47px" viewBox="0 0 61 47" version="1.1" xmlns="http://www.w3.org/2000/svg" xmlns:xlink="http://www.w3.org/1999/xlink">
    <!-- Generator: Sketch 44.1 (41455) - http://www.bohemiancoding.com/sketch -->
    <title>Teatr</title>
    <desc>Created with Sketch.</desc>
    <defs></defs>
    <g id="Page-1" stroke="none" stroke-width="1" fill="none" fill-rule="evenodd">
        <g id="FIN-Copy-3" transform="translate(-328.000000, -3640.000000)">
            <g id="De-otrymaty" transform="translate(326.000000, 3243.000000)">
                <g id="Icons" transform="translate(3.000000, 192.000000)">
                    <g id="Teatr" transform="translate(0.000000, 205.000000)">
                        <g transform="translate(0.000000, 0.025822)">
                            <polygon id="Path-8" fill="#EA2C6E" points="14 20.9741779 14 23.9741779 12 23.9741779 12.5 36.9741779 14 37.4741779 14 39.9741779 17 40.4741779 16.5 36.9741779 18 36.4741779 18 23.9741779 16.5 23.9741779 16.5 20.9741779"></polygon>
                            <polygon id="Path-7" fill="#EA2C6E" points="5 13.9741779 30 0.974177886 54 13.9741779"></polygon>
                            <path d="M24,39.9741779 L23.5,36.4741779 L22.5,36.4741779 L22,23.4741779 L24,22.9741779 L24,19.9741779 L36,19.9741779 L35.5,22.9741779 L37.5,23.4741779 L37,35.9741779 L35.5,36.4741779 L35.5,39.4741779 L33,39.4741779 L33,27.9741779 C32.3333333,26.3075112 31.3333333,25.4741779 30,25.4741779 C28,25.4741779 26.5,26.9741779 26.5,28.9741779 C26.5,30.3075112 26.3333333,33.8075112 26,39.4741779 L24,39.9741779 Z" id="Path-9" fill="#EA2C6E"></path>
                            <polygon id="Path-8-Copy" fill="#EA2C6E" points="43 20.9741779 43 23.9741779 41 23.9741779 41.5 36.9741779 43 37.4741779 43 39.9741779 46 40.4741779 45.5 36.9741779 47 36.4741779 47 23.9741779 45.5 23.9741779 45.5 20.9741779"></polygon>
                            <path d="M18.5543416,35.8740571 L21.8026609,35.8740571 L21.4138776,24.0261593 L18.9426949,24.0261593 L18.5543416,35.8740571 Z M22.4688395,37.1414378 L17.888163,37.1414378 C17.7135546,37.1414378 17.5462573,37.0717319 17.4249775,36.9483735 C17.3032677,36.8254375 17.2378971,36.6585657 17.243488,36.4874693 L17.6735581,23.3721909 C17.6847399,23.0304205 17.9703064,22.7587786 18.3182331,22.7587786 L22.0387694,22.7587786 C22.3866961,22.7587786 22.6722626,23.0304205 22.6834445,23.3721909 L23.1135145,36.4874693 C23.1191054,36.6585657 23.0537348,36.8254375 22.932025,36.9483735 C22.8103151,37.0717319 22.6434479,37.1414378 22.4688395,37.1414378 Z" id="Fill-1" stroke="#000000" stroke-width="0.2" fill="#000000"></path>
                            <path d="M8.47371386,35.8740571 L11.7211731,35.8740571 L11.3328198,24.0261593 L8.86206715,24.0261593 L8.47371386,35.8740571 Z M12.3873516,37.1414378 L7.8075353,37.1414378 C7.63292685,37.1414378 7.46562959,37.0717319 7.34434982,36.9483735 C7.22263999,36.8254375 7.15726934,36.6585657 7.16286025,36.4874693 L7.59293033,23.3721909 C7.60411215,23.0304205 7.88967869,22.7587786 8.23760539,22.7587786 L11.9572815,22.7587786 C12.3052082,22.7587786 12.5907748,23.0304205 12.6019566,23.3721909 L13.0320267,36.4874693 C13.0376176,36.6585657 12.9722469,36.8254375 12.8505371,36.9483735 C12.7292573,37.0717319 12.5619601,37.1414378 12.3873516,37.1414378 L12.3873516,37.1414378 Z" id="Fill-3" stroke="#000000" stroke-width="0.2" fill="#000000"></path>
                            <path d="M47.7562723,35.8740571 L51.0045916,35.8740571 L50.6158083,24.0261593 L48.1446256,24.0261593 L47.7562723,35.8740571 Z M51.6707702,37.1414378 L47.0900937,37.1414378 C46.9154853,37.1414378 46.748188,37.0717319 46.6269082,36.9483735 C46.5051984,36.8254375 46.4398277,36.6585657 46.4454187,36.4874693 L46.8754887,23.3721909 C46.8866706,23.0304205 47.1722371,22.7587786 47.5201638,22.7587786 L51.2407001,22.7587786 C51.5886268,22.7587786 51.8741933,23.0304205 51.8853751,23.3721909 L52.3154452,36.4874693 C52.3210361,36.6585657 52.2556655,36.8254375 52.1339557,36.9483735 C52.0122458,37.0717319 51.8453786,37.1414378 51.6707702,37.1414378 L51.6707702,37.1414378 Z" id="Fill-5" stroke="#000000" stroke-width="0.2" fill="#000000"></path>
                            <path d="M37.6756446,35.8740571 L40.9231038,35.8740571 L40.5347505,24.0261593 L38.0639978,24.0261593 L37.6756446,35.8740571 Z M41.5892823,37.1414378 L37.009466,37.1414378 C36.8348575,37.1414378 36.6675603,37.0717319 36.5462805,36.9483735 C36.4245707,36.8254375 36.3592,36.6585657 36.3647909,36.4874693 L36.794861,23.3721909 C36.8060428,23.0304205 37.0916094,22.7587786 37.4395361,22.7587786 L41.1592122,22.7587786 C41.5071389,22.7587786 41.7927055,23.0304205 41.8038873,23.3721909 L42.2339574,36.4874693 C42.2395483,36.6585657 42.1741776,36.8254375 42.0524678,36.9483735 C41.931188,37.0717319 41.7638908,37.1414378 41.5892823,37.1414378 L41.5892823,37.1414378 Z" id="Fill-7" stroke="#000000" stroke-width="0.2" fill="#000000"></path>
                            <path d="M26.988575,39.071363 L32.4719686,39.071363 L32.4719686,29.1025684 C32.4719686,27.6176207 31.2423982,26.4093844 29.7302718,26.4093844 C28.2181454,26.4093844 26.988575,27.6176207 26.988575,29.1025684 L26.988575,39.071363 Z M33.1170737,40.3387437 L26.3434699,40.3387437 C25.9873719,40.3387437 25.6983648,40.0548504 25.6983648,39.7050533 L25.6983648,29.1025684 C25.6983648,26.9188714 27.5072395,25.1420036 29.7302718,25.1420036 C31.9533041,25.1420036 33.7621788,26.9188714 33.7621788,29.1025684 L33.7621788,39.7050533 C33.7621788,40.0548504 33.4731717,40.3387437 33.1170737,40.3387437 L33.1170737,40.3387437 Z" id="Fill-9" stroke="#000000" stroke-width="0.2" fill="#000000"></path>
                            <path d="M5.20814871,16.159527 L53.8933724,16.159527 L53.8933724,14.3758999 L5.20814871,14.3758999 L5.20814871,16.159527 Z M54.5389076,17.4269078 L4.56304359,17.4269078 C4.20694556,17.4269078 3.91793846,17.1434369 3.91793846,16.7932174 L3.91793846,13.7422095 C3.91793846,13.3924124 4.20694556,13.1085191 4.56304359,13.1085191 L54.5389076,13.1085191 C54.8950056,13.1085191 55.1835826,13.3924124 55.1835826,13.7422095 L55.1835826,16.7932174 C55.1835826,17.1434369 54.8950056,17.4269078 54.5389076,17.4269078 L54.5389076,17.4269078 Z" id="Fill-11" stroke="#000000" stroke-width="0.2" fill="#000000"></path>
                            <path d="M7.08927526,22.7587786 L13.0926236,22.7587786 L13.0926236,20.8298251 L7.08927526,20.8298251 L7.08927526,22.7587786 Z M13.7377287,24.0261593 L6.44417013,24.0261593 C6.0880721,24.0261593 5.79906501,23.7426885 5.79906501,23.392469 L5.79906501,20.1961347 C5.79906501,19.8459152 6.0880721,19.5624443 6.44417013,19.5624443 L13.7377287,19.5624443 C14.0938267,19.5624443 14.3828338,19.8459152 14.3828338,20.1961347 L14.3828338,23.392469 C14.3828338,23.7426885 14.0938267,24.0261593 13.7377287,24.0261593 L13.7377287,24.0261593 Z" id="Fill-13" stroke="#000000" stroke-width="0.2" fill="#000000"></path>
                            <path d="M17.1709782,22.7587786 L23.1743264,22.7587786 L23.1743264,20.8298251 L17.1709782,20.8298251 L17.1709782,22.7587786 Z M23.8194316,24.0261593 L16.525873,24.0261593 C16.169775,24.0261593 15.8807679,23.7426885 15.8807679,23.392469 L15.8807679,20.1961347 C15.8807679,19.8459152 16.169775,19.5624443 16.525873,19.5624443 L23.8194316,19.5624443 C24.1755296,19.5624443 24.4645367,19.8459152 24.4645367,20.1961347 L24.4645367,23.392469 C24.4645367,23.7426885 24.1755296,24.0261593 23.8194316,24.0261593 L23.8194316,24.0261593 Z" id="Fill-14" stroke="#000000" stroke-width="0.2" fill="#000000"></path>
                            <path d="M7.09529624,39.0712362 L13.0986445,39.0712362 L13.0986445,37.1414378 L7.09529624,37.1414378 L7.09529624,39.0712362 Z M13.7437497,40.338617 L6.45019111,40.338617 C6.09409308,40.338617 5.80508599,40.0547237 5.80508599,39.7049266 L5.80508599,36.5077474 C5.80508599,36.1579503 6.09409308,35.8740571 6.45019111,35.8740571 L13.7437497,35.8740571 C14.0998477,35.8740571 14.3888548,36.1579503 14.3888548,36.5077474 L14.3888548,39.7049266 C14.3888548,40.0547237 14.0998477,40.338617 13.7437497,40.338617 L13.7437497,40.338617 Z" id="Fill-15" stroke="#000000" stroke-width="0.2" fill="#000000"></path>
                            <path d="M17.1765691,39.0712362 L23.1799174,39.0712362 L23.1799174,37.1414378 L17.1765691,37.1414378 L17.1765691,39.0712362 Z M23.8250225,40.338617 L16.5314639,40.338617 C16.1753659,40.338617 15.8863588,40.0547237 15.8863588,39.7049266 L15.8863588,36.5077474 C15.8863588,36.1579503 16.1753659,35.8740571 16.5314639,35.8740571 L23.8250225,35.8740571 C24.1815506,35.8740571 24.4701276,36.1579503 24.4701276,36.5077474 L24.4701276,39.7049266 C24.4701276,40.0547237 24.1815506,40.338617 23.8250225,40.338617 L23.8250225,40.338617 Z" id="Fill-16" stroke="#000000" stroke-width="0.2" fill="#000000"></path>
                            <path d="M36.2906039,22.7587786 L42.2939521,22.7587786 L42.2939521,20.8298251 L36.2906039,20.8298251 L36.2906039,22.7587786 Z M42.9390573,24.0261593 L35.6454987,24.0261593 C35.2894007,24.0261593 35.0003936,23.7426885 35.0003936,23.392469 L35.0003936,20.1961347 C35.0003936,19.8459152 35.2894007,19.5624443 35.6454987,19.5624443 L42.9390573,19.5624443 C43.2951553,19.5624443 43.5841624,19.8459152 43.5841624,20.1961347 L43.5841624,23.392469 C43.5841624,23.7426885 43.2951553,24.0261593 42.9390573,24.0261593 L42.9390573,24.0261593 Z" id="Fill-17" stroke="#000000" stroke-width="0.2" fill="#000000"></path>
                            <path d="M46.3718767,22.7587786 L52.375225,22.7587786 L52.375225,20.8298251 L46.3718767,20.8298251 L46.3718767,22.7587786 Z M53.0203301,24.0261593 L45.7267716,24.0261593 C45.3706735,24.0261593 45.0816664,23.7426885 45.0816664,23.392469 L45.0816664,20.1961347 C45.0816664,19.8459152 45.3706735,19.5624443 45.7267716,19.5624443 L53.0203301,19.5624443 C53.3764281,19.5624443 53.6654352,19.8459152 53.6654352,20.1961347 L53.6654352,23.392469 C53.6654352,23.7426885 53.3764281,24.0261593 53.0203301,24.0261593 L53.0203301,24.0261593 Z" id="Fill-18" stroke="#000000" stroke-width="0.2" fill="#000000"></path>
                            <path d="M36.2961948,39.0712362 L42.2995431,39.0712362 L42.2995431,37.1414378 L36.2961948,37.1414378 L36.2961948,39.0712362 Z M42.9446482,40.338617 L35.6510896,40.338617 C35.2949916,40.338617 35.0059845,40.0547237 35.0059845,39.7049266 L35.0059845,36.5077474 C35.0059845,36.1579503 35.2949916,35.8740571 35.6510896,35.8740571 L42.9446482,35.8740571 C43.3011763,35.8740571 43.5897533,36.1579503 43.5897533,36.5077474 L43.5897533,39.7049266 C43.5897533,40.0547237 43.3011763,40.338617 42.9446482,40.338617 L42.9446482,40.338617 Z" id="Fill-19" stroke="#000000" stroke-width="0.2" fill="#000000"></path>
                            <path d="M46.3778977,39.0712362 L52.381246,39.0712362 L52.381246,37.1414378 L46.3778977,37.1414378 L46.3778977,39.0712362 Z M53.0263511,40.338617 L45.7327925,40.338617 C45.3766945,40.338617 45.0876874,40.0547237 45.0876874,39.7049266 L45.0876874,36.5077474 C45.0876874,36.1579503 45.3766945,35.8740571 45.7327925,35.8740571 L53.0263511,35.8740571 C53.3824491,35.8740571 53.6714562,36.1579503 53.6714562,36.5077474 L53.6714562,39.7049266 C53.6714562,40.0547237 53.3824491,40.338617 53.0263511,40.338617 L53.0263511,40.338617 Z" id="Fill-20" stroke="#000000" stroke-width="0.2" fill="#000000"></path>
                            <path d="M3.7506412,42.1902603 L55.3590512,42.1902603 L55.3590512,40.338617 L3.7506412,40.338617 L3.7506412,42.1902603 Z M56.0041563,43.457641 L3.10553607,43.457641 C2.74943804,43.457641 2.46043095,43.1737477 2.46043095,42.8239506 L2.46043095,39.7049266 C2.46043095,39.3551295 2.74943804,39.0712362 3.10553607,39.0712362 L56.0041563,39.0712362 C56.3602544,39.0712362 56.6492615,39.3551295 56.6492615,39.7049266 L56.6492615,42.8239506 C56.6492615,43.1737477 56.3602544,43.457641 56.0041563,43.457641 L56.0041563,43.457641 Z" id="Fill-21" stroke="#000000" stroke-width="0.2" fill="#000000"></path>
                            <path d="M1.29021025,45.3092843 L57.8190521,45.3092843 L57.8190521,43.457641 L1.29021025,43.457641 L1.29021025,45.3092843 Z M58.4641572,46.576665 L0.645105125,46.576665 C0.289007096,46.576665 0,46.2927717 0,45.9429747 L0,42.8239506 C0,42.4741535 0.289007096,42.1902603 0.645105125,42.1902603 L58.4641572,42.1902603 C58.8206853,42.1902603 59.1092623,42.4741535 59.1092623,42.8239506 L59.1092623,45.9429747 C59.1092623,46.2927717 58.8206853,46.576665 58.4641572,46.576665 L58.4641572,46.576665 Z" id="Fill-22" stroke="#000000" stroke-width="0.2" fill="#000000"></path>
                            <path d="M7.14066863,13.1086458 L51.9612825,13.1086458 L29.5507605,1.35199954 L7.14066863,13.1086458 Z M54.5386925,14.3760266 L4.56325862,14.3760266 C4.26694033,14.3760266 4.00932835,14.1783152 3.93750665,13.8961117 C3.86568494,13.6143308 3.99814653,13.3202984 4.25919907,13.1834213 L29.246701,0.0749022023 C29.4376521,-0.0247984167 29.664299,-0.0247984167 29.8552502,0.0749022023 L54.8427521,13.1834213 C55.1033745,13.3202984 55.2362662,13.6143308 55.1644445,13.8961117 C55.0926228,14.1783152 54.8345807,14.3760266 54.5386925,14.3760266 L54.5386925,14.3760266 Z" id="Fill-23" stroke="#000000" stroke-width="0.2" fill="#000000"></path>
                            <path d="M6.03190495,19.5623176 L53.0699602,19.5623176 L53.6858205,17.426781 L5.41604459,17.426781 L6.03190495,19.5623176 Z M53.5580897,20.8296984 L5.5437754,20.8296984 C5.25519838,20.8296984 5.00145703,20.6412811 4.92318427,20.3687942 L3.94262448,16.9658769 C3.88757551,16.7749249 3.92671189,16.5691867 4.04885179,16.4107641 C4.17056163,16.2523415 4.36108267,16.1594003 4.56321561,16.1594003 L54.5386495,16.1594003 C54.7407825,16.1594003 54.9313035,16.2523415 55.0530133,16.4107641 C55.1751532,16.5691867 55.2142896,16.7749249 55.1592406,16.9658769 L54.1786809,20.3687942 C54.1004081,20.6412811 53.8466668,20.8296984 53.5580897,20.8296984 L53.5580897,20.8296984 Z" id="Fill-24" stroke="#000000" stroke-width="0.2" fill="#000000"></path>
                        </g>
                    </g>
                </g>
            </g>
        </g>
    </g>
</svg>