<?xml version="1.0" encoding="UTF-8"?>
<svg width="63px" height="32px" viewBox="0 0 63 32" version="1.1" xmlns="http://www.w3.org/2000/svg" xmlns:xlink="http://www.w3.org/1999/xlink">
    <!-- Generator: Sketch 44.1 (41455) - http://www.bohemiancoding.com/sketch -->
    <title>Transport</title>
    <desc>Created with Sketch.</desc>
    <defs></defs>
    <g id="Page-1" stroke="none" stroke-width="1" fill="none" fill-rule="evenodd">
        <g id="FIN-Copy-3" transform="translate(-718.000000, -3652.000000)">
            <g id="De-otrymaty" transform="translate(326.000000, 3243.000000)">
                <g id="Icons" transform="translate(3.000000, 192.000000)">
                    <g id="Transport" transform="translate(390.000000, 218.000000)">
                        <g>
                            <path d="M1,12 L42.5,12 L59,16.5 L59,25 L51.5,25 C50.08775,22 48.58775,20.5 47,20.5 C45.41225,20.5 43.7455833,22 42,25 L37.5,25 L37,19.5 L21,19.5 L20.5,25 L16,25 C14.5,22.3333333 13,21 11.5,21 C10,21 8.5,22.3333333 7,25 L1,25 L1,12 Z" id="Rectangle-16" fill="#EA2C6E"></path>
                            <path d="M21.5030588,24.7442 L36.5471765,24.7442 L36.5471765,20.0714059 L21.5030588,20.0714059 L21.5030588,24.7442 Z M37.231,26.1118471 L20.8192353,26.1118471 C20.4413088,26.1118471 20.1354118,25.8054941 20.1354118,25.4280235 L20.1354118,19.3875824 C20.1354118,19.0096559 20.4413088,18.7037588 20.8192353,18.7037588 L37.231,18.7037588 C37.6089265,18.7037588 37.9148235,19.0096559 37.9148235,19.3875824 L37.9148235,25.4280235 C37.9148235,25.8054941 37.6089265,26.1118471 37.231,26.1118471 L37.231,26.1118471 Z" id="Fill-1" stroke="#000000" stroke-width="0.3" fill="#000000"></path>
                            <path d="M55.3122059,15.4750632 L57.7434265,15.4750632 C55.9846324,9.67988676 52.4447059,1.36778382 49.5398235,1.36778382 L43.0813382,1.36778382 L43.0813382,11.3493279 L55.3122059,15.4750632 Z M58.6574706,16.8427103 L55.2000588,16.8427103 C55.12575,16.8427103 55.0518971,16.8308574 54.9816912,16.8066956 L42.1786912,12.4885779 C41.9010588,12.3946662 41.7136912,12.1339015 41.7136912,11.8403132 L41.7136912,0.683960294 C41.7136912,0.306033824 42.0195882,0.000136764706 42.3975147,0.000136764706 L49.5398235,0.000136764706 C51.8219706,0.000136764706 54.0959118,2.665225 56.4915735,8.14766618 C58.1815294,12.0140044 59.3039118,15.9323132 59.3153088,15.9715191 C59.3736618,16.1780338 59.3321765,16.3995926 59.2031618,16.5710044 C59.0736912,16.7419603 58.8721912,16.8427103 58.6574706,16.8427103 L58.6574706,16.8427103 Z" id="Fill-3" stroke="#000000" stroke-width="0.3" fill="#000000"></path>
                            <path d="M1.36764706,11.1566265 L41.7136912,11.1566265 L41.7136912,1.36746471 L3.875,1.36746471 C2.49230882,1.36746471 1.36764706,2.49258235 1.36764706,3.87481765 L1.36764706,11.1566265 Z M42.3975147,12.5242735 L0.683823529,12.5242735 C0.305897059,12.5242735 0,12.2183765 0,11.84045 L0,3.87481765 C0,1.73809706 1.73827941,-0.000182352941 3.875,-0.000182352941 L42.3975147,-0.000182352941 C42.7749853,-0.000182352941 43.0813382,0.306170588 43.0813382,0.683641176 L43.0813382,11.84045 C43.0813382,12.2183765 42.7749853,12.5242735 42.3975147,12.5242735 L42.3975147,12.5242735 Z" id="Fill-4" stroke="#000000" stroke-width="0.3" fill="#000000"></path>
                            <polygon id="Fill-5" stroke="#000000" stroke-width="0.3" fill="#000000" points="28.3412941 11.84045 29.7089412 11.84045 29.7089412 0.683641176 28.3412941 0.683641176"></polygon>
                            <polygon id="Fill-6" stroke="#000000" stroke-width="0.3" fill="#000000" points="13.3728529 11.84045 14.7405 11.84045 14.7405 0.683641176 13.3728529 0.683641176"></polygon>
                            <path d="M11.3325059,21.5974265 C9.21994706,21.5974265 7.50127059,23.3161029 7.50127059,25.4286618 C7.50127059,27.5412206 9.21994706,29.2594412 11.3325059,29.2594412 C13.4446088,29.2594412 15.1628294,27.5412206 15.1628294,25.4286618 C15.1628294,23.3161029 13.4446088,21.5974265 11.3325059,21.5974265 M11.3325059,30.6270882 C8.46546176,30.6270882 6.13362353,28.2947941 6.13362353,25.4286618 C6.13362353,22.5620735 8.46546176,20.2297794 11.3325059,20.2297794 C14.1986382,20.2297794 16.5304765,22.5620735 16.5304765,25.4286618 C16.5304765,28.2947941 14.1986382,30.6270882 11.3325059,30.6270882" id="Fill-7" stroke="#000000" stroke-width="0.3" fill="#000000"></path>
                            <path d="M11.3325059,24.5205897 C10.8314912,24.5205897 10.4243882,24.9276926 10.4243882,25.4277956 C10.4243882,25.9283544 10.8314912,26.3350015 11.3325059,26.3350015 C11.8330647,26.3350015 12.2397118,25.9283544 12.2397118,25.4277956 C12.2397118,24.9276926 11.8330647,24.5205897 11.3325059,24.5205897 M11.3325059,27.7026485 C10.0774618,27.7026485 9.05674118,26.6823838 9.05674118,25.4277956 C9.05674118,24.1736632 10.0774618,23.1529426 11.3325059,23.1529426 C12.5866382,23.1529426 13.6073588,24.1736632 13.6073588,25.4277956 C13.6073588,26.6823838 12.5866382,27.7026485 11.3325059,27.7026485" id="Fill-8" stroke="#000000" stroke-width="0.3" fill="#000000"></path>
                            <path d="M46.7288074,21.5974265 C44.6162485,21.5974265 42.8975721,23.3161029 42.8975721,25.4286618 C42.8975721,27.5412206 44.6162485,29.2594412 46.7288074,29.2594412 C48.8409103,29.2594412 50.5591309,27.5412206 50.5591309,25.4286618 C50.5591309,23.3161029 48.8409103,21.5974265 46.7288074,21.5974265 M46.7288074,30.6270882 C43.8617632,30.6270882 41.529925,28.2947941 41.529925,25.4286618 C41.529925,22.5620735 43.8617632,20.2297794 46.7288074,20.2297794 C49.5949397,20.2297794 51.9267779,22.5620735 51.9267779,25.4286618 C51.9267779,28.2947941 49.5949397,30.6270882 46.7288074,30.6270882" id="Fill-9" stroke="#000000" stroke-width="0.3" fill="#000000"></path>
                            <path d="M51.8821926,24.7440632 L55.4663397,24.7440632 C56.8490309,24.7440632 57.9736926,23.6194015 57.9736926,22.2367103 L57.9736926,16.8427103 L55.2001044,16.8427103 C55.1257956,16.8427103 55.0519426,16.8308574 54.9812809,16.8066956 L42.2854132,12.5241368 L1.36769265,12.5241368 L1.36769265,22.2367103 C1.36769265,23.6194015 2.49235441,24.7440632 3.87504559,24.7440632 L6.17861912,24.7440632 C6.51460441,22.1997838 8.697825,20.2299162 11.3323691,20.2299162 C13.9664574,20.2299162 16.1496779,22.1997838 16.4856632,24.7440632 L41.5746926,24.7440632 C41.9102221,22.1997838 44.0938985,20.2299162 46.7288985,20.2299162 C49.3634426,20.2299162 51.5462074,22.1997838 51.8821926,24.7440632 M55.4663397,26.1117103 L51.2430456,26.1117103 C50.865575,26.1117103 50.5592221,25.8058132 50.5592221,25.4278868 C50.5592221,23.3157838 48.8410015,21.5975632 46.7288985,21.5975632 C44.6158838,21.5975632 42.8972074,23.3157838 42.8972074,25.4278868 C42.8972074,25.8058132 42.5913103,26.1117103 42.2133838,26.1117103 L15.8469721,26.1117103 C15.4690456,26.1117103 15.1631485,25.8058132 15.1631485,25.4283426 C15.1626926,23.3157838 13.4444721,21.5975632 11.3323691,21.5975632 C9.22026618,21.5975632 7.50158971,23.3157838 7.50113382,25.4283426 C7.50113382,25.8058132 7.19478088,26.1117103 6.81731029,26.1117103 L3.87504559,26.1117103 C1.738325,26.1117103 4.55882353e-05,24.3734309 4.55882353e-05,22.2367103 L4.55882353e-05,11.8403132 C4.55882353e-05,11.4628426 0.305942647,11.1564897 0.683869118,11.1564897 L42.3975603,11.1564897 C42.4718691,11.1564897 42.5457221,11.1687985 42.6159279,11.1925044 L55.3122515,15.4750632 L58.6575162,15.4750632 C59.0349868,15.4750632 59.3413397,15.7809603 59.3413397,16.1588868 L59.3413397,22.2367103 C59.3413397,24.3734309 57.6030603,26.1117103 55.4663397,26.1117103" id="Fill-10" stroke="#000000" stroke-width="0.3" fill="#000000"></path>
                            <path d="M46.7288074,24.5205897 C46.2277926,24.5205897 45.8206897,24.9276926 45.8206897,25.4277956 C45.8206897,25.9283544 46.2277926,26.3350015 46.7288074,26.3350015 C47.2293662,26.3350015 47.6360132,25.9283544 47.6360132,25.4277956 C47.6360132,24.9276926 47.2293662,24.5205897 46.7288074,24.5205897 M46.7288074,27.7026485 C45.4737632,27.7026485 44.4530426,26.6823838 44.4530426,25.4277956 C44.4530426,24.1736632 45.4737632,23.1529426 46.7288074,23.1529426 C47.9829397,23.1529426 49.0036603,24.1736632 49.0036603,25.4277956 C49.0036603,26.6823838 47.9829397,27.7026485 46.7288074,27.7026485" id="Fill-11" stroke="#000000" stroke-width="0.3" fill="#000000"></path>
                            <polygon id="Fill-12" stroke="#000000" stroke-width="0.3" fill="#000000" points="55.3901618 20.0714059 58.6574706 20.0714059 58.6574706 18.7037588 55.3901618 18.7037588"></polygon>
                            <path d="M59.4173809,1.36764706 C58.8726015,1.36764706 58.4294838,1.81076471 58.4294838,2.35508824 L58.4294838,5.01470588 C58.4294838,5.55902941 58.8726015,6.00214706 59.4173809,6.00214706 C59.9621603,6.00214706 60.4052779,5.55902941 60.4052779,5.01470588 L60.4052779,2.35508824 C60.4052779,1.81076471 59.9621603,1.36764706 59.4173809,1.36764706 M59.4173809,7.36979412 C58.1185721,7.36979412 57.0618368,6.31351471 57.0618368,5.01470588 L57.0618368,2.35508824 C57.0618368,1.05627941 58.1185721,0 59.4173809,0 C60.7161897,0 61.772925,1.05627941 61.772925,2.35508824 L61.772925,5.01470588 C61.772925,6.31351471 60.7161897,7.36979412 59.4173809,7.36979412" id="Fill-13" stroke="#000000" stroke-width="0.3" fill="#000000"></path>
                            <polygon id="Fill-14" stroke="#000000" stroke-width="0.3" fill="#000000" points="42.3975147 1.36746471 59.4174265 1.36746471 59.4174265 -0.000182352941 42.3975147 -0.000182352941"></polygon>
                            <polygon id="Fill-15" stroke="#000000" stroke-width="0.3" fill="#000000" points="26.1375588 22.4647882 31.9122206 22.4647882 31.9122206 21.0971412 26.1375588 21.0971412"></polygon>
                        </g>
                    </g>
                </g>
            </g>
        </g>
    </g>
</svg>