<?xml version="1.0" encoding="UTF-8"?>
<svg width="565px" height="566px" viewBox="0 0 565 566" version="1.1" xmlns="http://www.w3.org/2000/svg" xmlns:xlink="http://www.w3.org/1999/xlink">
    <!-- Generator: Sketch 47 (45396) - http://www.bohemiancoding.com/sketch -->
    <title>Page 1</title>
    <desc>Created with Sketch.</desc>
    <defs></defs>
    <g id="Page-1" stroke="none" stroke-width="1" fill="none" fill-rule="evenodd">
        <g id="Tourist_ALL" transform="translate(-305.000000, -10661.000000)" fill="#B2D000">
            <g id="BALI" transform="translate(0.000000, 10178.000000)">
                <g id="Green">
                    <g id="Page-1" transform="translate(305.000000, 483.000000)">
                        <path d="M282.285309,195.054138 C233.834801,195.054138 194.451273,234.463741 194.451273,282.90471 C194.451273,331.364339 233.834801,370.773941 282.285309,370.773941 C330.735817,370.773941 370.119345,331.364339 370.119345,282.90471 C370.119345,234.463741 330.735817,195.054138 282.285309,195.054138 M282.285309,468.626192 C179.899329,468.626192 96.5987833,385.328624 96.5987833,282.90471 C96.5987833,180.499456 179.899329,97.1832279 282.285309,97.1832279 C384.671288,97.1832279 467.971834,180.499456 467.971834,282.90471 C467.971834,385.328624 384.671288,468.626192 282.285309,468.626192" id="Fill-1"></path>
                        <path d="M316.83498,35.437786 C316.83498,54.526812 301.368876,69.9958272 282.283443,69.9958272 C263.19801,69.9958272 247.731906,54.526812 247.731906,35.437786 C247.731906,16.34876 263.19801,0.879744764 282.283443,0.879744764 C301.368876,0.879744764 316.83498,16.34876 316.83498,35.437786" id="Fill-3"></path>
                        <path d="M316.83498,530.996738 C316.83498,550.085764 301.368876,565.55478 282.283443,565.55478 C263.19801,565.55478 247.731906,550.085764 247.731906,530.996738 C247.731906,511.907712 263.19801,496.438697 282.283443,496.438697 C301.368876,496.438697 316.83498,511.907712 316.83498,530.996738" id="Fill-6"></path>
                        <path d="M34.5515367,288.660154 C53.6369698,288.660154 69.1030734,304.129169 69.1030734,323.218195 C69.1030734,342.307221 53.6369698,357.776236 34.5515367,357.776236 C15.4661036,357.776236 0,342.307221 0,323.218195 C0,304.129169 15.4661036,288.660154 34.5515367,288.660154" id="Fill-8"></path>
                        <path d="M530.017215,248.660154 C549.102648,248.660154 564.568752,264.129169 564.568752,283.218195 C564.568752,302.307221 549.102648,317.776236 530.017215,317.776236 C510.931782,317.776236 495.465678,302.307221 495.465678,283.218195 C495.465678,264.129169 510.931782,248.660154 530.017215,248.660154" id="Fill-10"></path>
                        <path d="M191.199473,50.2163868 C200.527642,66.8609725 194.613583,87.9279426 177.97213,97.2578673 C161.330677,106.606452 140.267672,100.67262 130.939503,84.028034 C121.592678,67.3834483 127.525394,46.3351381 144.166847,36.9865535 C160.808299,27.6566288 181.871304,33.571801 191.199473,50.2163868" id="Fill-12"></path>
                        <path d="M433.632979,482.399026 C442.961148,499.043612 437.047089,520.110582 420.405636,529.440507 C403.764183,538.789092 382.701179,532.855259 373.37301,516.210674 C364.026185,499.566088 369.9589,478.517778 386.600353,469.169193 C403.241806,459.839268 424.304811,465.754441 433.632979,482.399026" id="Fill-14"></path>
                        <path d="M49.3273559,414.319312 C65.9688087,404.989388 87.0318136,410.90456 96.3599822,427.549146 C105.706807,444.193731 99.7740919,465.260701 83.1326391,474.590626 C66.4911862,483.939211 45.4468377,478.005379 36.1000127,461.360793 C26.771844,444.716207 32.685903,423.649237 49.3273559,414.319312" id="Fill-16"></path>
                        <path d="M481.430516,131.8383 C498.071969,122.508376 519.134973,128.423548 528.463142,145.068134 C537.809967,161.712719 531.877252,182.779689 515.235799,192.109614 C498.594346,201.458199 477.549997,195.524367 468.203172,178.879781 C458.875004,162.235195 464.789063,141.168225 481.430516,131.8383" id="Fill-18"></path>
                        <path d="M373.369279,50.2163868 C364.04111,66.8609725 369.955169,87.9279426 386.596622,97.2578673 C403.238075,106.606452 424.30108,100.67262 433.629248,84.028034 C442.976073,67.3834483 437.043358,46.3351381 420.401905,36.9865535 C403.760452,27.6566288 382.697447,33.571801 373.369279,50.2163868" id="Fill-20"></path>
                        <path d="M130.935772,482.399026 C121.607604,499.043612 127.521662,520.110582 144.163115,529.440507 C160.804568,538.789092 181.867573,532.855259 191.195742,516.210674 C200.542567,499.566088 194.609851,478.517778 177.968399,469.169193 C161.326946,459.839268 140.263941,465.754441 130.935772,482.399026" id="Fill-22"></path>
                        <path d="M515.241396,374.319312 C498.599943,364.989388 477.536938,370.90456 468.208769,387.549146 C458.861944,404.193731 464.79466,425.260701 481.436113,434.590626 C498.077565,443.939211 519.121914,438.005379 528.468739,421.360793 C537.796908,404.716207 531.882849,383.649237 515.241396,374.319312" id="Fill-24"></path>
                        <path d="M83.1401016,171.8383 C66.4986487,162.508376 45.4356439,168.423548 36.1074752,185.068134 C26.7606502,201.712719 32.6933655,222.779689 49.3348184,232.109614 C65.9762713,241.458199 87.0206198,235.524367 96.3674448,218.879781 C105.695613,202.235195 99.7815545,181.168225 83.1401016,171.8383" id="Fill-26"></path>
                    </g>
                </g>
            </g>
        </g>
    </g>
</svg>