<?xml version="1.0" encoding="UTF-8"?>
<svg width="425px" height="426px" viewBox="0 0 425 426" version="1.1" xmlns="http://www.w3.org/2000/svg" xmlns:xlink="http://www.w3.org/1999/xlink">
    <!-- Generator: Sketch 47 (45396) - http://www.bohemiancoding.com/sketch -->
    <title>Page 1</title>
    <desc>Created with Sketch.</desc>
    <defs></defs>
    <g id="Page-1" stroke="none" stroke-width="1" fill="none" fill-rule="evenodd">
        <g id="Partner_ALL" transform="translate(-895.000000, -4504.000000)" fill="#FFE500">
            <g id="Page-Copy-3" transform="translate(0.000000, 2786.000000)">
                <g id="Page-1" transform="translate(895.000000, 1718.000000)">
                    <polygon id="Fill-1" points="106.465398 0.0052915982 106.465398 107.424735 0.0039709596 107.424735 105.512367 212.859829 212.490019 105.969546"></polygon>
                    <polygon id="Fill-2" points="11.2642887 64.1950235 66.1561869 64.1950235 66.1561869 9.33437922 11.2642887 9.33437922"></polygon>
                    <polygon id="Fill-3" points="0 318.326673 106.461427 318.326673 106.461427 425.746116 212.486048 319.781862 105.508396 212.87835"></polygon>
                    <polygon id="Fill-4" points="11.2642887 416.4038 66.1561869 416.4038 66.1561869 361.543155 11.2642887 361.543155"></polygon>
                    <polygon id="Fill-5" points="318.502727 0.0052915982 212.478106 105.969546 319.455758 212.859829 424.950918 107.424735 318.502727 107.424735"></polygon>
                    <polygon id="Fill-6" points="358.802673 64.1817945 413.694571 64.1817945 413.694571 9.32115023 358.802673 9.32115023"></polygon>
                    <polygon id="Fill-7" points="212.478106 319.779216 318.502727 425.74347 318.502727 318.324027 424.950918 318.324027 319.455758 212.875704"></polygon>
                    <polygon id="Fill-8" points="358.789436 416.4038 413.681334 416.4038 413.681334 361.543155 358.789436 361.543155"></polygon>
                    <polygon id="Fill-9" points="157.763577 212.871735 212.483401 158.183068 267.203224 212.871735 212.483401 267.560403"></polygon>
                </g>
            </g>
        </g>
    </g>
</svg>