<?xml version="1.0" encoding="UTF-8"?>
<svg width="527px" height="527px" viewBox="0 0 527 527" version="1.1" xmlns="http://www.w3.org/2000/svg" xmlns:xlink="http://www.w3.org/1999/xlink">
    <!-- Generator: Sketch 47 (45396) - http://www.bohemiancoding.com/sketch -->
    <title>Page 1</title>
    <desc>Created with Sketch.</desc>
    <defs></defs>
    <g id="Page-1" stroke="none" stroke-width="1" fill="none" fill-rule="evenodd">
        <g id="Tourist_ALL" transform="translate(-519.000000, -11122.000000)" fill="#B2D000">
            <g id="BALI" transform="translate(0.000000, 10178.000000)">
                <g id="Green">
                    <g id="Page-1" transform="translate(519.000000, 944.000000)">
                        <path d="M263.608064,0.368070423 L0.00635491102,263.809483 L263.385642,527.0445 L526.892028,263.68247 L402.605855,140.511345 L263.608064,0.368070423 Z M117.826405,263.809483 L263.179108,118.569801 L408.801894,263.936497 L263.385642,409.287315 L117.826405,263.809483 Z" id="Fill-1"></path>
                        <polygon id="Fill-2" points="374.768168 229.785802 297.571886 229.785802 297.444788 229.785802 297.444788 229.658789 297.444788 152.514099 263.684323 185.362908 229.336029 152.514099 229.336029 229.658789 229.336029 229.785802 151.996762 229.785802 184.867539 264.127017 151.996762 297.849042 229.336029 297.849042 229.336029 375.120744 263.080606 342.271935 297.444788 375.120744 297.444788 297.849042 297.571886 297.849042 374.768168 297.849042 341.89739 263.507827"></polygon>
                    </g>
                </g>
            </g>
        </g>
    </g>
</svg>