<?xml version="1.0" encoding="UTF-8"?>
<svg width="597px" height="597px" viewBox="0 0 597 597" version="1.1" xmlns="http://www.w3.org/2000/svg" xmlns:xlink="http://www.w3.org/1999/xlink">
    <!-- Generator: Sketch 47 (45396) - http://www.bohemiancoding.com/sketch -->
    <title>Fill 1</title>
    <desc>Created with Sketch.</desc>
    <defs></defs>
    <g id="Page-1" stroke="none" stroke-width="1" fill="none" fill-rule="evenodd">
        <g id="Partner_ALL" transform="translate(-213.000000, -3241.000000)" fill="#FFE500">
            <g id="Page-Copy-3" transform="translate(0.000000, 2786.000000)">
                <g id="Page-Copy">
                    <path d="M511.680014,455 L213,753.616978 L511.427994,1052 L810,753.473005 L669.174677,613.855666 L511.680014,455 Z M346.498734,753.616978 L511.193975,588.984415 L676.195242,753.76095 L511.427994,918.519489 L346.498734,753.616978 Z M606.567281,724.395889 L540.63018,724.395889 L540.521619,724.395889 L540.521619,724.287358 L540.521619,658.368146 L511.685163,686.437059 L482.346614,658.368146 L482.346614,724.287358 L482.346614,724.395889 L416.287382,724.395889 L444.363912,753.740045 L416.287382,782.555111 L482.346614,782.555111 L482.346614,848.582854 L511.169499,820.513941 L540.521619,848.582854 L540.521619,782.555111 L540.63018,782.555111 L606.567281,782.555111 L578.49075,753.210955 L606.567281,724.395889 Z" id="Fill-1"></path>
                </g>
            </g>
        </g>
    </g>
</svg>