<svg width="256" height="303" viewBox="0 0 256 303" xmlns="http://www.w3.org/2000/svg" xmlns:xlink="http://www.w3.org/1999/xlink"><title>Man</title><defs><path id="a" d="M.988.005h27.31v35.277H.988V.005z"/></defs><g fill="none" fill-rule="evenodd"><ellipse fill="#2A90D3" cx="74" cy="292" rx="74" ry="11"/><ellipse fill="#2A90D3" cx="182" cy="292" rx="74" ry="11"/><path d="M114.29 55.345l2.991-11.582s11.54.247 12.555-9.93c1.017-10.175-6.405-23.26-6.405-23.26l-19.297-9.157-23.36 15.262 12.868 40.067 20.648-1.4z" fill="#DE9576"/><g transform="translate(79.194 .217)"><mask id="b" fill="#fff"><use xlink:href="#a"/></mask><path d="M22.205 15.353c1.48-4.827 3.6-9.49 6.093-14.019 0 0-12.121-4.287-21.068 2.536-8.946 6.824-5.648 14.596-5.648 14.596l4.912 16.816c1.82-.523 3.317-1.376 3.96-2.79.985-2.164-.05-4.65-.505-6.821-.72-3.427-.657-7.024 2.877-8.82 2.924-1.486 6.142-1.77 9.38-1.498" fill="#252223" mask="url(#b)"/></g><path d="M95.777 142.199l-2.217 51.528-9.14 14.247-25.39 29.507-20.31 10.46 8.124 42.452h30.467s-1.015-7.124-4.062-8.14c-3.046-1.019-9.14-4.07-9.14-4.07v-16.28l54.84-42.737 16.251-53.927-39.423-23.04z" fill="#A9ABAD"/><path fill="#040201" d="M58.265 235.088l15.859 22.407 47.17-36.463 7.929-23.833-37.601-52.014 2.731 24.208-5.387 29.028z"/><path d="M111.94 46.05s54.742 8.278 53.727 54.066c-.656 29.571-5.078 34.597-5.078 34.597l-66.434 19.608L91.53 50.256l20.41-4.205z" fill="#302C2B"/><path fill="#040201" d="M116.21 92.495l-.204-24.648-12.199 27.5zm11.268 29.181c-11.982-6.49-23.648-13.616-34.691-21.614l1.37 54.26 62.981-18.59c-10.165-4.123-20.078-8.868-29.66-14.056"/><path fill="#DE9576" d="M108.742 128.35l24.343 2.747 12.708-6.111-22.06-4.38z"/><path fill="#FEFEFE" d="M6.407 93.616l94.338.815 91.492-28.111-4.472 16.703 9.759 11-4.067 30.148-5.692 7.74-76.142-12.323L23.079 147.8 6 133.542l6.912-12.63L6 110.32l2.033-11.816z"/><path fill="#8ABBD1" d="M116.413 107.977l-1.22 10.389-12.199-.407-3.456-5.909zm-47.779-9.778l-33.75-1.018 1.423 3.258-2.034 8.556 38.427-4.278.61-6.111z"/><path d="M124.028 187.622l77.185 105.824 35.545-31.545s-3.046-5.087-7.108-5.087c-4.062 0-12.432 12.468-21.843 12.037-9.412-.43-40.11-100.561-40.11-100.561l-43.67 19.332z" fill="#FEFEFE"/><path fill="#302C2B" d="M160.584 133.783l42.239 126.462-17.384 14.362-91.284-105.72-2.643-23.834zM92.314 59.54S72.463 82.612 71.67 100.91c-.794 18.297 25.992 31.049 37.074 27.44 11.082-3.608 15.739-6.663 15.739-6.663s-26.609-12.82-19.463-23.961c7.147-11.136 10.323-28.64 10.323-28.64S102.638 46.81 92.314 59.54"/><path d="M115.3 12.973c.432 5.655 2.911 9.994 5.91 9.994 3.306 0 5.983-5.263 5.983-11.754 0-.49-.02-.97-.049-1.443a83.276 83.276 0 0 0-11.845 3.203" fill="#252223"/><path fill="#040201" d="M49.42 240.995l16.47 22-.61 14.361 10.673 4.89 2.44 8.86H46.844l-9.317-44.305z"/><path d="M108.241 51.693l8.03-4.583s15.962 3.26 24.806 9.778c8.844 6.518 14.841 10.49 19.11 19.657l-5.717 2.126-5.024-6.345-8.166-5.456-23.483-11.714-9.15-1.425-.406-2.038z" fill="#FEFEFE"/><path d="M190.166 281.328l11.132 14.667 37.359-33.764s-5.642-10.541-12.504-5.653c-6.862 4.89-19.67 11.153-19.67 11.153l-16.317 13.597z" fill="#040201"/><path fill="#B3B5B7" d="M113.313 53.613l9.606.229-1.296-3.895 2.832-.74-7.1-2.163-8.464 3.36z"/><path d="M111.33 51.035s26.838 8.766 38.122 21.294l-26.838-6.723-1.22-7.944-9.759 3.667-22.288-7.003 2.16-2.622 19.823-.669z" fill="#040201"/><path fill="#FEFEFE" d="M90.745 48.037l.762 3.666 28.21-.916-2.745-5.653z"/><path fill="#8ABBD1" d="M183.71 72.328l-4.269 10.185 10.573 11.408-20.332 2.852-9.555-11.204 5.285-8.352zm-22.567 25.26l-7.93-10.796-20.332 5.5 7.727 7.13-2.033 14.055-3.456 5.296 17.383 1.91 5.387-6.391zm6.912 2.648l-1.423 7.74 21.958-1.222 1.83-8.963zm-2.135 11.28l-.71 2.98-4.678 7.536 24.754 4.075 2.491-4.686.813-9.98zm-12.503-27.042l2.21-3.82-20.89 6.418-1.448 2.672z"/><path fill="#8ABBD1" d="M128.206 93.921l7.115 6.518-1.83 11.611-12.401.204.61-8.962-6.71 1.425-6.099-5.907zm-96.576 7.945l-2.033 7.333 3.457 7.333-13.826 2.24-5.286-9.166 2.44-8.556zM19.432 123.05l-4.88 9.371 10.573 7.334 38.833-10.797-7.93-6.723 1.83-5.702zm39.443-14.259l3.253 4.278-1.627 7.74 10.167-2.545 1.626-5.907-3.864-4.686z"/></g></svg>