<svg width="268" height="381" viewBox="0 0 268 381" xmlns="http://www.w3.org/2000/svg" xmlns:xlink="http://www.w3.org/1999/xlink"><title>?</title><defs><path id="a" d="M0 .137V35.51h27.708V.137z"/></defs><g transform="translate(-87 -46)" fill="none" fill-rule="evenodd"><path d="M259.886 115.57c27.581 15.29 36.33 40.898 24.98 61.375-16.91 30.506-65.585 38.488-122.753 45.04l-22.651 44.805 48.058 26.64 11.35-20.477c50.256-4.921 117.721-17.237 144.36-65.295 26.408-47.64 8.81-106.562-57.218-143.161-45.55-25.25-99.38-21.764-148.187-5.66l19.36 57.713c38.741-10.757 72.195-17.89 102.701-.98zM97.093 317.602c-10.192 18.388-3.673 41.122 14.714 51.314s41.121 3.673 51.314-14.714c9.96-17.97 3.441-40.703-14.946-50.896-18.387-10.192-41.121-3.673-51.082 14.296z" fill="#F6DE00"/><ellipse fill="#2A90D3" cx="183" cy="413" rx="66" ry="14"/><ellipse fill="#2A90D3" cx="209.5" cy="396.5" rx="122.5" ry="6.5"/><path d="M140.518 173.776l1.969 2.091 6.72-4.177-1.679 10.862 15.957 13.368s29.736-31.26 33.595-30.08c3.858 1.18 8.739 12.188 8.739 12.188l-45.352 32.585-22.179-27.226-1.692-4.21c1.31-1.799 2.622-3.595 3.922-5.401m38.746 84.65l7.56 80.216-9.8 49.165 7.047.584 14.093-39.142 1.175-35.052 1.762-36.553z" fill="#DE9576"/><path d="M209.5 260.933l-3.114 62.61s7.045 26.876 5.871 36.222c-1.175 9.347-11.994 41.544-11.994 41.544l-5.623-2.986s2.35-21.03 3.524-33.884c1.175-12.852-5.872-43.231-5.872-43.231l-16.44-65.825 33.648 5.55z" fill="#FDD09C"/><path d="M174.675 239.417l1.762-64.263 25.837-12.853 2.971.517c5.1 6.91 6.366 16.392 5.584 25.398l-9.142 30.753 2.348 19.28-29.36 1.168z" fill="#EA2C6E"/><path fill="#FDCF9C" d="M191.81 167.66l2.83-12.954-7.047-4.09.512-2.812-1.098-3.614 5.544-.639-3.359-4.178 2.512-2.193-3.523-5.258 7.047.583 18.983-13.457 12.097 18.038-18.162 26.968z"/><path d="M203.123 236.757s7.071 12.67 11.406 26.238c-2.5 4.926-4.688 10.06-6.441 15.313-8.116-1.286-16.467-1.322-24.632-1.038-2.128.074-4.253.179-6.375.297L174.5 236l28.623.757z" fill="#4BABE0"/><path d="M213.583 167.873c-5.674-.622-11.443-1.685-17.044-3.283l3.147-41.053s16.196-11.374 29.534 1.895c7.96 7.92 9.073 27.672 8.961 39.628-7.335 3.574-16.728 3.677-24.598 2.813" fill="#221F20"/><path fill="#78241C" d="M225.175 234.744l-40.032 14.491L200.263 286l36.069-18.54z"/><path d="M195.426 397.154s-7.83 14.02-14.094 16.357l-6.263 2.338v4.673l27.793-1.167-2.6-18.046-4.836-4.155z" fill="#504B43"/><path fill="#78241C" d="M195.815 247.596l6.459-78.284-4.11 3.505-7.047 74.779z"/><g transform="translate(123 145.486)"><mask id="b" fill="#fff"><use xlink:href="#a"/></mask><path fill="#BCD0DA" mask="url(#b)" d="M27.708 26.875L14.093 35.51-.001 7.467 16.791.137z"/></g><path fill="#78241C" d="M201.1 168.727l9.395 3.506 16.442 69.521-7.633-1.169-9.396-64.263z"/><path d="M148.74 170.27l1.968 2.092 6.72-4.178-1.679 10.863 20.1 11.88s23.155-22.212 27.013-21.032c3.859 1.182 8.22 9.932 8.22 9.932l-36.993 25.705-27.58-25.65-1.692-4.211c1.31-1.798 2.623-3.593 3.922-5.4" fill="#FDD09C"/><path d="M193.336 175.462c4.342-3.445 8.154-5.986 9.526-5.566 3.858 1.182 8.22 9.931 8.22 9.931l-8.96 6.226c-2.736-3.688-5.65-7.242-8.786-10.59" fill="#EA2C6E"/><path fill="#DEF2FC" d="M154.908 169.854l-16.797 4.179-9.239-24.232 10.92-4.178z"/><path d="M176.983 385.47s-3.916 14.02-9.396 16.357c-5.48 2.338-8.611 3.894-8.611 3.894l2.348 4.674 25.444-2.724-2.738-22.981-7.047.78z" fill="#2D2B26"/></g></svg>