<svg width="332" height="371" viewBox="0 0 332 371" xmlns="http://www.w3.org/2000/svg"><title>shutterstock_499324204</title><g fill="none" fill-rule="evenodd"><path d="M332 184c0 91.68-74.32 166-166 166S0 275.68 0 184 74.32 18 166 18s166 74.32 166 166" fill="#EEF2F5"/><path d="M175.729 276.561H176a.592.592 0 0 0-.133-.402.442.442 0 0 0-.34-.159l.002.315h-.001V276c-.256.002-.528.212-.528.52h.272c0 .058.022.116.104.173.03-.212.255-.096.347 0 .011-.053.006-.091.006-.132M253.382 96L2.492 154.888A164.202 164.202 0 0 0 0 183.413c0 8.356.634 16.565 1.846 24.587L255 98.387 253.382 96" fill="#FFF"/><path d="M301 354.5c0 9.113-67.381 16.5-150.5 16.5S0 363.613 0 354.5c0-9.112 67.381-16.5 150.5-16.5S301 345.388 301 354.5" fill="#BEBEBE"/><path d="M283 97.201s2.172-1.776 4.738-3.077c2.412-1.222 5.58-2.124 5.58-2.124L295 97.058s-2.095 1.155-5.54 2.11c-2.385.66-5.53.832-5.53.832l-.93-2.799" fill="#ADAFB2"/><path d="M282.843 99.322c.2.822.21 1.569.02 1.667-.189.099-.505-.49-.706-1.312-.201-.821-.21-1.568-.02-1.666.189-.099.505.488.706 1.31" fill="#D3D8E6"/><path fill="#DEDEDE" d="M278.015 88L262 76.793l3.146-.793L295 81.788 278.015 88"/><path d="M243 89.22s3.88-.945 4.385-1.144c.505-.197.912.121.912.121s9.29 3.981 9.861 3.867c.571-.115 26.347-9.845 32.118-12.053 5.772-2.208 13.815-4.366 19.088-4.872 5.273-.507 10.202.425 10.615 1.99.613 2.327-12.295 8.965-24.428 13.375-23.507 8.541-38.701 10.665-42.424 10.486L243 89.22" fill="#ADAFB2"/><path d="M280.868 90.822L271 118l4.342-1.124L298 86s-5.413.164-9.429 1.465c-4.015 1.301-7.703 3.357-7.703 3.357" fill="#DEDEDE"/><path fill="#ADAFB2" d="M261.146 75L260 72.102l.996-.102L264 74.206l-2.854.794m9.661 42L269 113.125l1.473-.125 4.527 3.029-4.193.971"/><path d="M69.794 76L57 100.034s.371 2.351 2.999 4.577C62.032 106.334 65.74 107 65.74 107L85 88.117 69.794 76" fill="#C68C3D"/><path fill="#ADAFB2" d="M68 74.7l2.152-2.7 17.95 14.34-2.152 2.7zm5-1.399L75.77 72 87 80.96 86.406 84 73 73.301"/><path d="M323.82 339.247l-29.553-94.443a3.856 3.856 0 0 0-3.166-2.665l-45.058-6.103a3.837 3.837 0 0 0-2.391.445L219 247.13 297.746 354l23.908-10.073-.001-.002c1.708-.734 2.795-2.671 2.168-4.678" fill="#51AAE5"/><path d="M84.31 100.687c-.517-1.48-1.432-3.443-1.997-4.63-.33-.694-1.008-2.206-1.833-3.872l-2.163 2.113-.036.236c-3.542-3.6-6.965-7.066-7.41-7.523-.885-.91-7.6-6.38-7.916-5.991-.316.389 4.247 5.498 5.25 6.614 1.002 1.115 6.386 6.904 5.922 7.163-.464.26-6.155-4.425-7.496-5.59-1.34-1.166-8.042-5.682-8.307-5.475-.264.207 5.38 5.775 6.442 6.802 1.06 1.026 7.51 6.703 7.104 6.875-.406.17-4.997-3.28-6.756-4.686-1.757-1.406-6.57-3.931-6.793-3.55-.223.383 3.46 3.48 5.187 5.12 1.728 1.64 6.912 5.292 6.486 5.568-.427.275-5.78-2.599-6.912-3.18-1.13-.582-5.88-2.38-6.078-2.09-.198.291 7.077 5.191 10.066 7.345 2.99 2.153 9.07 9.13 12.257 11.912 1.533 1.337 9.673-6.595 9.673-6.595s-2.951-3.406-4.69-6.566" fill="#FDCF9C"/><path d="M133.562 111c-4.128-3.708-9.345-17.957-8.464-32.74.382-6.41 2.783-15.172 2.807-15.26l.66.217c-.023.087-2.401 8.77-2.778 15.092-.867 14.545 4.2 28.504 8.213 32.108l-.438.583" fill="#262223"/><path d="M176.308 41.926L157 55.429 164.052 65l14.81-6.652L202.016 65l7.9-13.397-33.608-9.677z" fill="#BC1A5B"/><path d="M162.09 67.645c-.259 2.56-1.37 4.965-2.737 7.248-.245.897-.696 2.215-1.353 3.953l23.939-2.587 2.282-11.402S168.15 68.526 162.059 66c.062.7.072 1.248.031 1.645z" fill="#BC1A5B"/><path d="M138.253 82s-.478-4.946-1.202-8.599C136.327 69.748 135 66.98 135 66.98L155.811 41s1.026 5.89 2.112 10.486c1.086 4.595 3.077 12 3.077 12s-3.138 8.789-9.17 13.004c-6.032 4.216-13.577 5.51-13.577 5.51" fill="#FDCF9C"/><path d="M162.978 27.365l-3-13.15c-6.229 1.778-12.095 1.778-17.599 0-5.504-1.776-14.478-6.338-26.924-13.686l-6.838 25.866h23.88c2.359 0 23.916 9.605 23.916 9.605l6.565-8.635z" fill="#262223"/><path d="M216.277 344.496c.997 1.509 4.047 8.048 3.695 9.725-.235 1.117-15.785 4.5-46.65 10.15l-3.194-4.719c21.538-10.216 33.128-15.585 34.77-16.107 2.464-.782 8.279-1.545 8.279-1.545s2.103.986 3.1 2.496zm-116.28 6.199c-.073 1.794-1.454 8.88-2.755 10.081-.867.801-16.017-4.88-45.45-17.042l4-4.728c22.166 2.787 33.922 4.363 35.27 4.728 2.527.686 7.843 3.206 7.843 3.206s1.165 1.96 1.092 3.755z" fill="#3A1315"/><path d="M199 337.223s5.632 9.015 6.2 9.45c.567.436 2.925.436 4.496 0 1.573-.435 3.843-2.439 3.188-4.267-.655-1.83-4.41-8.406-4.41-8.406L199 337.223M91.528 333s-2.478 11.512-2.522 12.111c-.042.599.044 3.466 2.822 4.536 2.778 1.07 5.556-.47 6.496-2.225.94-1.755 3.676-10.057 3.676-10.057L91.528 333" fill="#FDCF9C"/><path d="M155.454 282.784c24.548 36.204 37.36 54.737 38.44 55.598 1.617 1.292 8.322.353 11.905-.94 3.584-1.29 5.201-3.874 5.201-3.874l-33-70.455.636-64.113L145 236.576l10.454 46.208z" fill="#8C7057"/><path d="M100.277 259.41c-7.743 48.027-11.498 72.275-11.263 72.744.351.705 1.113 3.695 7.328 5.982 6.214 2.288 8.617 2.054 9.145 1.467.351-.391 6.818-22.915 19.4-67.572 13.72-15.438 24.333-28.044 31.836-37.82C167.98 219.55 179 198.789 179 198.789L131.046 187l-30.77 72.41z" fill="#8C7057"/><path d="M207 176.808s1.629 9.19 1.804 11.468c.215 2.776.215 12.862 1.504 12.862.447 0 1.241-5.76 1.419-7.353.143-1.291.329-3.136.615-3.195.287-.06 2.32 6.39 3.008 8.54.687 2.151 3.467 8.93 3.867 8.87.402-.06-1.375-9.168-1.632-10.005-.258-.836-1.891-8.45-1.662-8.57.229-.12 3.122 7.525 3.495 8.6.372 1.076 3.209 9.139 3.868 9.198.659.06-1.663-8.869-1.977-10.153-.316-1.284-2.206-8.302-1.977-8.362.23-.06 3.036 6.929 3.868 8.87.83 1.941 2.806 6.151 3.551 6.211.745.06-2.09-8.66-2.435-10.154-.343-1.492-2.32-5.898-2.02-5.942.302-.045 4.9 10.302 5.459 10.079.923-.37-.954-5.401-2.408-10.124-1.4-4.547-6.402-14.648-6.402-14.648s-11.86 1.747-11.945 3.808" fill="#FDCF9C"/><path d="M193.817 147.363c5.026 8.063 12.156 29.526 12.156 29.526s2.978.514 7.712-.671c5.498-1.378 6.315-3.48 6.315-3.48s-1.52-11.383-5.494-25.02c-2.65-9.091-6.328-18.992-11.036-29.702L175 94l8.65 42.216s5.142 3.083 10.167 11.147z" fill="#51AAE5"/><path d="M134.238 130.288c-5.087 29.016-13.604 47.18-13.604 47.18s-.828 1.947-.592 3.009c.237 1.061 5.679 15.982 30.639 21.407 24.96 5.426 33.596-1.297 33.596-1.297.315-.865 4.02-21.36 11.113-61.487-14.191-34.105-22.667-53.712-25.427-58.823-4.14-7.667-9.7-16.277-9.7-16.277s-3.694 7.108-9.82 12.384c-6.09 5.249-12.306 6.427-12.306 6.427s1.187 18.461-3.9 47.477z" fill="#FEE800"/><path d="M126.83 26.511s-.837 3.045-1.672 9.254c-.835 6.211-1.373 11.94-1.075 13.266.299 1.326 6.46 6.366 16.3 2.592 9.838-3.774 14.716-10.52 14.716-10.52s.209.602 1.223.602c1.016 0 1.881-1.267 2.448-4.281.567-3.015.12-5.789-1.731-6.21-1.85-.423-2.015 3.074-2.747 3.105-.73.03-1.849-5.001-3.194-6.98-1.567-2.306-5.613-3.798-9.598-3.21-3.985.587-6.252 2.26-14.67 2.382" fill="#FDCF9C"/><path d="M149.279 56.437c-2.285 4.118-6.983 8.293-14.093 12.526l-11.646-1.946c-.48-13.557-.48-20.535 0-20.935.72-.6 4.783-4.385 9.14-4.34 2.904.03 7.733 1.477 14.486 4.34 3.093-6.282 5.017-9.303 5.772-9.063.337.107.144 1.206.666 2.196.523.99 1.396.93 1.396.93s-2.295 10.114-5.721 16.292z" fill="#262223"/><path d="M152.485 78.852l13.492-12.39-1.385-8.276-6.862-5.593L148 67.15c-10.886 2.678-16.731 4.213-17.537 4.603-1.385.671.471 11.526 3.794 12.246l18.228-5.148z" fill="#E9266F"/><path d="M156.872 37.84c-.334 1.367-1.22 2.324-1.978 2.137-.757-.188-1.1-1.449-.766-2.817.335-1.367 1.22-2.324 1.978-2.137.757.188 1.1 1.449.766 2.817" fill="#262223"/><path d="M134.937 112c-3.67-24.528 4.163-30.613 11.074-35.982 2.154-1.672 4.187-3.253 5.838-5.308 2.592-3.225 2.197-7.929 1.815-12.48-.154-1.84-.3-3.58-.263-5.241.132-5.832 1.861-13.909 1.879-13.989l.72.162c-.017.08-1.732 8.087-1.86 13.844-.037 1.62.107 3.34.26 5.16.394 4.702.801 9.562-1.98 13.025-1.708 2.121-3.775 3.729-5.963 5.429-7.077 5.497-14.395 11.182-10.791 35.266l-.73.114" fill="#262223"/><path d="M172.157 181l-2.767-.318c.092-.83 9.075-83.232-5.635-100.122-1.584-1.818-3.33-2.71-5.339-2.73h-.076c-18.75 0-41.476 67.8-48.657 93.963l-2.683-.76c.065-.239 6.666-24.16 16.116-47.74C135.957 91.247 147.809 75 158.343 75l.1.001c2.803.028 5.292 1.267 7.398 3.686 15.525 17.824 6.7 98.872 6.316 102.313" fill="#262223"/><path fill="#3A1315" d="M103.145 161L179 172.913 170.205 232 94 220.385 103.145 161"/><path d="M82.826 108.255c3.059-1.452 4.766-5.282 4.766-5.282s5.392 8.762 12.977 13.857c1.993 1.338 11.269 2.689 27.827 4.052 6.14-11.591 11.643-21.603 16.507-30.037 7.296-12.652 12.849-15.248 18.712-13.232 6.414 2.206 18.417 20.66-2 49.908-4.366 6.253-13.188 13.616-26.466 22.09-25.591-7.773-40.539-13.84-44.842-18.203C80.511 121.477 76 109.648 76 109.648s3.766.058 6.826-1.393z" fill="#51AAE5"/><path fill="#ADAFB2" d="M101.935 160L180 172.43 178.419 190l-40.797-1.195L99 178.526 101.935 160"/><path fill="#262223" d="M131 164.33l1.144-8.33L157 159.353 155.196 168l-2.848-.432 1.001-5.852-18.638-2.47-.703 5.54-3.008-.457"/><path fill="#ADAFB2" d="M143.717 194L140 218.706 163.674 222 167 197.44 143.717 194m-33.999-6L106 212.705 129.674 216 133 191.439 109.718 188"/><path d="M269.029 254.785a3.877 3.877 0 0 0-3.19-2.66l-45.418-6.089c-2.802-.376-5.062 2.224-4.256 4.894l26.59 88.038a3.868 3.868 0 0 0 2.763 2.62l48.618 12.288c2.951.746 5.589-1.99 4.683-4.856l-29.79-94.235" fill="#39758A"/><path d="M287.581 345c-.608 0-1.17-.395-1.356-1.008l-43.47-143.109a2.038 2.038 0 0 0-1.666-1.411l-33.856-4.622a.353.353 0 0 0-.312.119.339.339 0 0 0-.07.327l40.183 136.774a1.424 1.424 0 0 1-.959 1.766 1.42 1.42 0 0 1-1.762-.963L204.13 196.1a3.193 3.193 0 0 1 .64-2.984 3.145 3.145 0 0 1 2.844-1.083l33.858 4.621a4.886 4.886 0 0 1 3.993 3.395l43.473 143.115A1.421 1.421 0 0 1 287.58 345" fill="#262223"/><path d="M250.843 340.159c-2.297-.685-4.804.91-5.599 3.563-.796 2.653.42 5.36 2.716 6.044.018.005.035.004.053.009l4.108 1.225 2.879-9.6-4.157-1.241" fill="#4D4D5F"/><path d="M257.751 347.25c-.814 2.673-3.377 4.28-5.724 3.59-2.348-.69-3.591-3.416-2.778-6.09.813-2.673 3.376-4.28 5.724-3.59 2.347.69 3.591 3.417 2.778 6.09" fill="#25252E"/><path d="M281.843 349.159c-2.297-.685-4.804.91-5.599 3.562-.796 2.653.42 5.36 2.717 6.044.017.005.034.004.052.01l4.108 1.225 2.879-9.6-4.157-1.241" fill="#4D4D5F"/><path d="M288.75 356.25c-.812 2.673-3.375 4.28-5.723 3.59-2.347-.69-3.591-3.417-2.778-6.09.814-2.673 3.376-4.28 5.724-3.59 2.348.69 3.592 3.416 2.778 6.09" fill="#25252E"/></g></svg>