<svg width="372" height="376" viewBox="0 0 372 376" xmlns="http://www.w3.org/2000/svg"><title>bussinessman_2</title><g fill="none" fill-rule="evenodd"><path d="M59 198c0 75.663 61.337 137 137 137s137-61.337 137-137S271.663 61 196 61 59 122.337 59 198" fill="#EEF2F5"/><path d="M44 368.5c0 4.143 65.142 7.5 145.5 7.5s145.5-3.357 145.5-7.5-65.142-7.5-145.5-7.5S44 364.357 44 368.5" fill="#BEBEBE"/><path d="M.95 314.61l30.89-44.7a5.357 5.357 0 0 1 6.61-1.835l40.326 18.214 75.7-115.384a5.355 5.355 0 0 1 4.828-2.406l96.245 6.32 21.492-51.162a5.354 5.354 0 0 1 4.486-3.26l46.505-3.923 18.265-44.593-15.795-6.46L365.959 38 372 82.393l-15.794-6.46-19.507 47.623a5.35 5.35 0 0 1-4.503 3.303l-46.537 3.926-21.716 51.693a5.352 5.352 0 0 1-5.286 3.267l-96.94-6.366L85.22 295.98a5.357 5.357 0 0 1-6.682 1.942l-40.428-18.26L9.76 320.69A5.348 5.348 0 0 1 5.349 323a5.339 5.339 0 0 1-3.037-.948 5.346 5.346 0 0 1-1.363-7.442" fill="#E9266F"/><path d="M232.8 58L225 45.559 227.678 24l6.675 15.067c.163.367.706.223.67-.178l-.59-6.727c-.022-.524.722-.629.84-.118l2.766 12.558s2.441 6.925 2.94 7.487c.5.563-8.18 5.911-8.18 5.911" fill="#FDCF9C"/><path d="M170.503 289.379L167.762 369l15.576-5.777 15.3-73.844v-60.116l10.453-.452 10.212 60.568L215.481 369l15.654-8.084s5.97-23.846 17.913-71.537L236.503 201 161 202.761l1.128 12.622 8.375 73.996zm48.579-206.798c4.512 3.064 12.235 9.942 23.17 20.637l-9.28-42.61L244.952 53s4.092 7.075 7.859 16.617c4.175 10.578 8.384 26.206 12.627 46.884-8 4.419-13.404 6.371-16.213 5.858-25.96-4.745-37.35-17.212-39.425-20.99-3.618-6.585-6.782-13.284-3.279-17.485 0 0 5.792-5.898 12.56-1.303z" fill="#454243"/><path d="M210 74.197s-4.58-5.626-11.534-5.17C191.511 69.48 182 72.983 182 72.983L207.173 130 210 74.197" fill="#FFF"/><path fill="#DEDEDE" d="M245 52.612L243.43 50 232 57.148 233.636 60 245 52.612"/><path d="M227.858 24.293l9.956 22.477a2.168 2.168 0 0 1-.935 2.776l-7.56 4.182a2.175 2.175 0 0 1-3-.933l-11.091-22.296a2.169 2.169 0 0 1 .97-2.905l8.698-4.362a2.173 2.173 0 0 1 2.962 1.06" fill="#231F20"/><path fill="#ADAFB2" d="M235 44.066L225.956 24 216 28.877 225.5 49l9.5-4.934"/><path d="M247 58.5a1.5 1.5 0 1 0-3 0 1.5 1.5 0 0 0 3 0m1 4a1.5 1.5 0 1 0-2.998-.002A1.5 1.5 0 0 0 248 62.5m2 3a1.5 1.5 0 1 0-3 0 1.5 1.5 0 0 0 3 0" fill="#22313F"/><path d="M208.98 73.155l-1.724 55.526L183.108 72s-16.245 5.071-20.877 29.75C157.6 126.428 155 215 155 215l53.104-.677 4.971-9.127 5.085 8.677 23.84-.338s-3.05-31.89-6.892-58.936c-3.841-27.045-7.627-74.485-26.129-81.444" fill="#231F20"/><path d="M192.342 39.233h-3.857l-5.514-11.131 6.688-5.182 4.14 7.83S190.011 8 209.006 8c15.772 0 17.92 5.561 17.92 5.561S228 22.717 228 35.918c0 12.33-3.748 22.847-16.265 24.18-.59.063-1.518.11-2.786.143l-4.235 12.555c-1.765 2.848-3.268 4.272-4.51 4.272-1.863 0-8.44-.312-8.44-7.277l.578-30.558z" fill="#FDCF9C"/><path d="M199.22 32l2.832-15.368 17.625 3.45 15.083-6.783L202.975.282 189.71 10.484l1.467 15.778s2.534 3.917 2.505 5.738h5.538z" fill="#231F20"/><path d="M208 149.5a1.5 1.5 0 1 0-3 0 1.5 1.5 0 0 0 3 0m2 20a1.5 1.5 0 1 0-3 0 1.5 1.5 0 0 0 3 0m0 22a1.5 1.5 0 1 0-3 0 1.5 1.5 0 0 0 3 0" fill="#ABADB0"/><path fill="#FFF" d="M204.384 78L200 74.48l4.384-4.48L208 72.668 204.384 78M191.92 68l8.08 6.467L196.65 79 187 71.256 191.92 68"/><path d="M136.08 194s1.106 3.686 2.56 6.5c.822 1.593 2.504 4.7 3.283 5.83.263.38-.195.838-.61.608l-5.313-4.84.08-8.098" fill="#FDCF9C"/><path fill="#231F20" d="M119.584 221l2.728-.187-.403-6.044 18.944-1.753.421 5.343 2.726-.221-.642-8.138L119 212.254l.584 8.746"/><path d="M136.289 196.025S138 203.1 138 207.077a57.57 57.57 0 0 1-.39 6.57 1.136 1.136 0 0 1-.687.925c-1.656.68-6.475 2.322-11.412.804-1.051-.324-.29-12.655.583-16.291.856-3.567 10.195-3.06 10.195-3.06" fill="#FDCF9C"/><path d="M124.576 197s-1.502-9.485-2.212-21.013c-.457-7.415-.457-19.472 0-36.171l36.528-50.065c11.741-9.297 18.634-11.337 20.68-6.122 2.373 6.05-3.194 16.114-10.24 24.862-2.995 3.72-13.52 17.238-31.576 40.555v44.327L124.576 197z" fill="#454243"/><path d="M137.35 193c-.05.013.65 2.757.65 2.757L125.776 199l-.776-2.818L137.35 193" fill="#DEDEDE"/><path d="M127 189.5a1.5 1.5 0 1 0-3 0 1.5 1.5 0 0 0 3 0" fill="#22313F"/><path d="M127 186.5a1.5 1.5 0 1 0-3 0 1.5 1.5 0 0 0 3 0m0-4a1.5 1.5 0 1 0-3 0 1.5 1.5 0 0 0 3 0" fill="#22313F"/><path fill="#E9266F" d="M202 75.918L199.865 74 198 76.697 199.623 78l1.24-.128L202 75.918m5.636 35.566l.364 17.408-1.1.108-8.94-18.551 2.04-32.28 1.92-.169z"/><path fill="#454243" d="M207.368 72.11l-.723 56.175L187.217 71 181 73.32l7.21 21.812 3.762 1.495-2.175 1.866L207.425 135l3.234-37.972-2.26-2.047 3.43-1.082L213 76.036l-2.396-1.464-3.236-2.462"/><path fill="#231F20" d="M233.027 356L259 366.641 257.1 370H216l17.027-14m-48.029 0L211 366.671 209.03 370H168l16.998-14"/><path fill="#FFF" d="M190.627 109L173 112.558l.532 2.442L191 110.859l-.373-1.859"/><path fill="#ADAFB2" d="M159 215.292l-7 .708v-1.263l7-.737v1.292m-48 4l-7 .708v-1.263l7-.737v1.292"/><path fill="#8C7057" d="M175.395 214L178 275.975 92.79 281 90 220.631 175.395 214"/></g></svg>