<svg width="60" height="45" viewBox="0 0 60 45" xmlns="http://www.w3.org/2000/svg"><title>Cafe</title><g transform="translate(.298 1)" fill="none" fill-rule="evenodd"><circle fill="#EA2C6E" cx="55.202" cy="10.5" r="3.5"/><path d="M1.702.5h47v12.51c-.667 2.327-2 3.49-4 3.49s-3.667-1.167-5-3.5c-1 2.333-2.5 3.5-4.5 3.5s-3.667-1.167-5-3.5c-1.334 2.333-2.834 3.5-4.5 3.5-1.667 0-3.167-1.167-4.5-3.5-1.667 2.333-3.334 3.5-5 3.5-1.667 0-3.167-1.167-4.5-3.5-1.334 2.333-3 3.5-5 3.5-3 0-5-3.5-5-4.5V.5z" fill="#EA2C6E"/><path d="M42.449 41.644h4.926V16.01a5.322 5.322 0 0 1-3.083.973 5.333 5.333 0 0 1-4.7-2.782 5.333 5.333 0 0 1-4.697 2.782 5.333 5.333 0 0 1-4.7-2.782 5.334 5.334 0 0 1-4.698 2.782 5.333 5.333 0 0 1-4.699-2.782 5.333 5.333 0 0 1-4.698 2.782 5.333 5.333 0 0 1-4.699-2.782 5.333 5.333 0 0 1-4.698 2.782c-1.036 0-2.04-.3-2.894-.85v25.51h4.8V20.396c0-.353.29-.64.645-.64h32.55c.356 0 .645.287.645.64v21.249zm5.57 1.279h-6.215a.642.642 0 0 1-.644-.64V21.034H9.898v21.249c0 .353-.289.64-.644.64h-6.09a.642.642 0 0 1-.643-.64V14.741c0-.266.166-.505.417-.598a.647.647 0 0 1 .711.178 4.068 4.068 0 0 0 3.054 1.383 4.031 4.031 0 0 0 4.044-3.84.641.641 0 0 1 .644-.61c.344 0 .649.27.665.61a4.03 4.03 0 0 0 4.044 3.84 4.031 4.031 0 0 0 4.044-3.84.641.641 0 0 1 .644-.61c.344 0 .649.27.665.61a4.03 4.03 0 0 0 4.044 3.84 4.03 4.03 0 0 0 4.044-3.84c.016-.34.3-.61.644-.61.344 0 .65.27.665.61a4.031 4.031 0 0 0 4.045 3.84 4.03 4.03 0 0 0 4.043-3.84c.016-.34.3-.61.644-.61.344 0 .65.27.665.61a4.031 4.031 0 0 0 4.045 3.84c1.267 0 2.44-.577 3.216-1.582a.647.647 0 0 1 1.155.389v27.772c0 .353-.288.64-.644.64z" stroke="#000" stroke-width=".3" fill="#000"/><path d="M2.648 1.28v10.399c0 2.22 1.818 4.025 4.054 4.025s4.055-1.806 4.055-4.025v-10.4h-8.11zm4.054 15.703c-2.945 0-5.342-2.38-5.342-5.304V.639c0-.353.288-.639.644-.639h9.398c.355 0 .644.286.644.64v11.039c0 2.925-2.397 5.304-5.344 5.304z" stroke="#000" stroke-width=".3" fill="#000"/><path d="M12.046 1.28v10.399c0 2.22 1.818 4.025 4.054 4.025s4.054-1.806 4.054-4.025v-10.4h-8.108zM16.1 16.982c-2.946 0-5.343-2.38-5.343-5.304V.639c0-.353.289-.639.644-.639h9.397c.356 0 .645.286.645.64v11.039c0 2.925-2.397 5.304-5.343 5.304z" stroke="#000" stroke-width=".3" fill="#000"/><path d="M21.443 1.28v10.399c0 2.22 1.818 4.025 4.054 4.025s4.055-1.806 4.055-4.025v-10.4h-8.11zm4.054 15.703c-2.946 0-5.343-2.38-5.343-5.304V.639c0-.353.289-.639.644-.639h9.398c.355 0 .644.286.644.64v11.039c0 2.925-2.397 5.304-5.343 5.304z" stroke="#000" stroke-width=".3" fill="#000"/><path d="M30.84 1.28v10.399c0 2.22 1.818 4.025 4.054 4.025s4.055-1.806 4.055-4.025v-10.4h-8.11zm4.054 15.703c-2.945 0-5.342-2.38-5.342-5.304V.639c0-.353.288-.639.644-.639h9.397c.355 0 .644.286.644.64v11.039c0 2.925-2.397 5.304-5.343 5.304z" stroke="#000" stroke-width=".3" fill="#000"/><path d="M40.237 1.28v10.399c0 2.22 1.818 4.025 4.054 4.025s4.055-1.806 4.055-4.025v-10.4h-8.11zm4.054 15.703c-2.945 0-5.342-2.38-5.342-5.304V.639c0-.353.288-.639.644-.639h9.397c.356 0 .644.286.644.64v11.039c0 2.925-2.396 5.304-5.343 5.304zM9.898 41.644H41.16v-20.61H9.898v20.61zm31.907 1.279H9.254a.642.642 0 0 1-.644-.64V20.395c0-.353.288-.64.644-.64h32.55c.356 0 .645.287.645.64v21.888c0 .353-.289.64-.644.64z" stroke="#000" stroke-width=".3" fill="#000"/><path stroke="#000" stroke-width=".3" fill="#000" d="M17.642 42.283h1.289V24.457h-1.289zm11.753 0h1.288v-8.401h-1.288z"/><path stroke="#000" stroke-width=".3" fill="#000" d="M26.636 34.521h6.807v-1.279h-6.807zm1.078 3.331h-5.197a.643.643 0 0 1-.626-.49l-1.52-6.254 1.253-.3 1.4 5.765h4.69v1.279z"/><path stroke="#000" stroke-width=".3" fill="#000" d="M22.481 42.283h1.288v-4.849h-1.288zm3.252 0h1.288v-5.071h-1.288zm11.827-4.431h-5.196v-1.28h4.69l1.4-5.763 1.252.3-1.519 6.253a.643.643 0 0 1-.626.49"/><path stroke="#000" stroke-width=".3" fill="#000" d="M36.309 42.283h1.288v-4.849H36.31zm-3.252 0h1.288v-5.071h-1.288zM14.58 35.41h1.289v-4.07H14.58zM48.99 4.834h9.84V3.555h-9.84z"/><path stroke="#000" stroke-width=".3" fill="#000" d="M54.43 7.724h1.287V4.195H54.43z"/><path d="M55.073 7.937a2.57 2.57 0 0 0-2.576 2.558 2.57 2.57 0 0 0 2.576 2.558 2.57 2.57 0 0 0 2.577-2.558 2.57 2.57 0 0 0-2.577-2.558m0 6.395c-2.131 0-3.865-1.721-3.865-3.837 0-2.115 1.734-3.837 3.865-3.837 2.131 0 3.865 1.722 3.865 3.837 0 2.116-1.734 3.837-3.865 3.837M9.412 25.097h32.393v-1.28H9.412zM0 42.923h50.886v-1.28H0z" stroke="#000" stroke-width=".3" fill="#000"/></g></svg>