<svg width="60" height="48" viewBox="0 0 60 48" xmlns="http://www.w3.org/2000/svg"><title>Clubs</title><g fill="none" fill-rule="evenodd"><path fill="#EA2C6E" d="M16 1h28v9H16zM6 20h49v5H6z"/><path d="M6.379 24.096H54.25v-3.072H6.38v3.072zm-.647 1.274a.642.642 0 0 1-.647-.637v-4.346c0-.352.29-.637.647-.637h49.166c.357 0 .647.285.647.637v4.346c0 .352-.29.637-.647.637H5.732z" stroke="#000" stroke-width=".3" fill="#000" stroke-linecap="square" stroke-linejoin="round"/><path d="M6.379 19.75H54.25v-4.975H6.38v4.975zm-.647 1.274a.642.642 0 0 1-.647-.637v-6.25c0-.351.29-.637.647-.637h49.166c.357 0 .647.286.647.638v6.249c0 .352-.29.637-.647.637H5.732z" stroke="#000" stroke-width=".3" fill="#000" stroke-linecap="square" stroke-linejoin="round"/><path d="M6.379 19.75H54.25v-4.975H6.38v4.975zm-.647 1.274a.642.642 0 0 1-.647-.637v-6.25c0-.351.29-.637.647-.637h49.166c.357 0 .647.286.647.638v6.249c0 .352-.29.637-.647.637H5.732zm.647 18.079h15.875V25.37H6.379v13.733zm-.647 1.275a.642.642 0 0 1-.647-.637V24.733c0-.352.29-.637.647-.637H22.9c.358 0 .647.285.647.637V39.74c0 .351-.29.637-.647.637H5.732zm32.645-1.275H54.25V25.37H38.377v13.733zm-.647 1.275a.642.642 0 0 1-.647-.637V24.733c0-.352.29-.637.647-.637h17.168c.357 0 .647.285.647.637V39.74c0 .351-.29.637-.647.637H37.73z" stroke="#000" stroke-width=".3" fill="#000" stroke-linecap="square" stroke-linejoin="round"/><path d="M23.547 45.781h13.536V25.37H23.547v20.411zm-.647 1.275a.642.642 0 0 1-.647-.638V24.733c0-.352.29-.637.647-.637h14.83c.357 0 .647.285.647.637v21.685c0 .352-.29.638-.647.638H22.9z" stroke="#000" stroke-width=".3" fill="#000" stroke-linecap="square" stroke-linejoin="round"/><path d="M5.731 47.056a.642.642 0 0 1-.646-.638V20.387h1.293V45.78h47.873V20.387h1.294v26.031c0 .352-.29.638-.647.638H5.73z" stroke="#000" stroke-width=".3" fill="#000" stroke-linecap="square" stroke-linejoin="round"/><path stroke="#000" stroke-width=".3" fill="#000" stroke-linecap="square" stroke-linejoin="round" d="M29.668 46.418h1.294V24.733h-1.294zM17.089 8.867H43.54V2.056H17.09v6.81zm-.647 1.274a.642.642 0 0 1-.647-.637V1.419c0-.352.29-.637.647-.637h27.746c.357 0 .647.285.647.637v8.085c0 .352-.29.637-.647.637H16.442z"/><path stroke="#000" stroke-width=".3" fill="#000" stroke-linecap="square" stroke-linejoin="round" d="M21.473 14.138h1.294V9.504h-1.294zm16.389 0h1.294V9.504h-1.294zm5.472 18.721l-.915-.901 3.487-3.435.914.901zm.429 3.682l-.915-.9 7.226-7.118.915.901zm-32.35-3.682l-.914-.901 3.487-3.435.914.901zm.429 3.682l-.915-.9 7.227-7.118.914.901zM1 47.056h58.63V45.78H1z"/></g></svg>