<svg width="23" height="27" viewBox="0 0 23 27" xmlns="http://www.w3.org/2000/svg"><title>Group</title><g fill="#FFF"><path d="M10.803.249v16.448l-4.635-4.405-.94 1.03 5.784 5.507c.14.142.314.178.488.178a.823.823 0 0 0 .488-.178l5.785-5.507-.941-1.03-4.635 4.405V.25h-1.394z"/><path d="M22.756 24.975V7.461c0-.995-.767-1.777-1.742-1.777h-4.635v1.421h4.635c.209 0 .348.142.348.356v17.514c0 .213-.14.355-.348.355H1.986c-.209 0-.348-.142-.348-.355V7.461c0-.214.14-.356.348-.356h4.635v-1.42H1.986c-.975 0-1.742.78-1.742 1.776v17.514c0 .995.767 1.776 1.742 1.776h19.028c.975 0 1.742-.781 1.742-1.776z"/></g></svg>