<svg width="56" height="49" viewBox="0 0 56 49" xmlns="http://www.w3.org/2000/svg"><title>Hoteli</title><g fill="none" fill-rule="evenodd"><path d="M10.5 20H7v27h5V25h5v22h3V25h6v22h3V25h6v22h3V25h6v22h5V20H10.5z" fill="#EA2C6E"/><path d="M23.47 18.138h8.713v-5.162H23.47v5.162zm9.43 1.45H22.752a.721.721 0 0 1-.716-.725v-6.612c0-.4.32-.726.716-.726H32.9c.396 0 .717.325.717.726v6.612c0 .4-.321.726-.717.726zm2.855 28.01H34.32v-22.17h-4.149v22.17H28.74V24.703c0-.4.32-.726.717-.726h5.582c.396 0 .717.325.717.726v22.895z" stroke="#000" stroke-width=".3" fill="#000"/><path d="M26.214 18.138h3.223v-2.24h-3.223v2.24zm3.94 1.45h-4.657a.721.721 0 0 1-.716-.725v-3.69a.72.72 0 0 1 .716-.726h4.657c.395 0 .717.325.717.725v3.691c0 .4-.322.726-.717.726zm14.442 28.01h-1.434v-22.17h-4.148v22.17H37.58V24.703c0-.4.321-.726.717-.726h5.582c.395 0 .717.325.717.726v22.895zM27.11 12.25h1.433V1h-1.434z" stroke="#000" stroke-width=".3" fill="#000"/><path d="M48.494 18.67H7.158a.721.721 0 0 0-.716.725v28.203h1.433V20.12h39.902v27.477h1.434V19.395c0-.4-.322-.726-.717-.726" stroke="#000" stroke-width=".3" fill="#000"/><path d="M17.355 23.977h-5.582a.721.721 0 0 0-.717.726v22.895h1.434V25.429h4.148v22.169h1.434V24.703c0-.4-.321-.726-.717-.726m8.841 0h-5.582a.721.721 0 0 0-.717.726v22.895h1.434v-22.17h4.149v22.17h1.433V24.703c0-.4-.32-.726-.717-.726" stroke="#000" stroke-width=".3" fill="#000"/><path stroke="#000" stroke-width=".3" fill="#000" d="M1 47.901h53.944V46.29H1z"/></g></svg>