<svg width="34" height="34" viewBox="0 0 34 34" xmlns="http://www.w3.org/2000/svg"><title>Shape</title><path d="M17 34c9.389 0 17-7.611 17-17S26.389 0 17 0 0 7.611 0 17c.011 9.384 7.616 16.989 17 17zm0-30.53a13.53 13.53 0 0 1 10.19 22.419 38.111 38.111 0 0 0-6.19-3.88.094.094 0 0 1-.052-.082v-2.231a5.287 5.287 0 0 0 .642-1.707c.347-.108.656-.666.947-1.697.267-.943.27-1.554 0-1.866a.61.61 0 0 0-.42-.202c.06-.186.107-.376.143-.568.315-1.902.152-3.276-.49-4.09a1.69 1.69 0 0 0-1.002-.646 3.58 3.58 0 0 0-1.34-1.235 4.566 4.566 0 0 0-2.775-.59c-.38.018-.754.09-1.114.212-.431.149-.84.358-1.214.62a6.443 6.443 0 0 0-1.245 1.041 5.02 5.02 0 0 0-1.353 2.37 5.103 5.103 0 0 0 0 2.304c.038.197.09.392.152.582a.61.61 0 0 0-.427.216c-.26.315-.26.926 0 1.866.292 1.04.604 1.59.948 1.697.112.61.33 1.197.641 1.734v2.19c0 .035-.02.067-.052.083a38.108 38.108 0 0 0-6.179 3.879A13.53 13.53 0 0 1 17 3.469z" fill="#FFE300"/></svg>