<svg width="48" height="44" viewBox="0 0 48 44" xmlns="http://www.w3.org/2000/svg"><title>Magazines</title><g fill="none" fill-rule="evenodd"><path fill="#EA2C6E" d="M2 1h23v42H2z"/><path fill="#EA2C6E" d="M16 20h23v23H16z"/><path stroke="#000" stroke-width=".3" fill="#000" d="M28.587 20.358h1.259V1.07h-1.26zm-15.581-3.059c-3.856 0-6.994-3.198-6.994-7.13V5.148h1.26v5.023c0 3.223 2.572 5.846 5.734 5.846s5.734-2.623 5.734-5.846V5.147H20v5.023c0 3.93-3.138 7.129-6.994 7.129z"/><path d="M15.782 42.138h22.185V21H15.782v21.14zm22.814 1.284H15.152a.636.636 0 0 1-.629-.642V20.358c0-.355.282-.642.63-.642h23.443c.348 0 .63.287.63.642V42.78a.636.636 0 0 1-.63.642z" stroke="#000" stroke-width=".3" fill="#000"/><path d="M2.259 42.138h12.264v-21.78c0-.355.282-.642.63-.642h9.29V1.71H2.26v40.427zm12.893 1.284H1.63A.636.636 0 0 1 1 42.78V1.07c0-.355.282-.642.63-.642h23.443c.348 0 .63.287.63.642v19.288a.636.636 0 0 1-.63.641h-9.291v21.78a.636.636 0 0 1-.63.643z" stroke="#000" stroke-width=".3" fill="#000"/><path d="M25.703 19.716h7.1V1.71h-7.1v18.005zm7.73 1.283h-8.36a.636.636 0 0 1-.63-.641V1.07c0-.355.283-.642.63-.642h8.36c.348 0 .63.287.63.642v19.288a.636.636 0 0 1-.63.641zm5.793 21.139h7.1V21h-7.1v21.14zm7.73 1.284h-8.36a.636.636 0 0 1-.63-.642V20.358c0-.355.282-.642.63-.642h8.36c.347 0 .629.287.629.642V42.78a.636.636 0 0 1-.63.642z" stroke="#000" stroke-width=".3" fill="#000"/><path d="M40.153 42.138h5.297L42.802 39.4l-2.649 2.738zm6.802 1.284h-8.307a.629.629 0 0 1-.58-.394.65.65 0 0 1 .132-.699l4.154-4.293a.625.625 0 0 1 .896 0l4.153 4.293a.65.65 0 0 1 .133.699.63.63 0 0 1-.58.394z" stroke="#000" stroke-width=".3" fill="#000"/><path stroke="#000" stroke-width=".3" fill="#000" d="M42.11 38.487h1.259v-18.13h-1.26zm-15.581-3.924c-3.857 0-6.994-3.198-6.994-7.13v-2.998h1.259v2.999c0 3.223 2.572 5.846 5.735 5.846 3.162 0 5.734-2.623 5.734-5.846v-2.999h1.259v2.999c0 3.93-3.137 7.129-6.993 7.129"/></g></svg>