<svg width="54" height="40" viewBox="0 0 54 40" xmlns="http://www.w3.org/2000/svg"><title>Museum</title><g fill="none" fill-rule="evenodd"><path fill="#EA2C6E" d="M2 33h51v6H2zM2 1h51v6H2z"/><path fill="#EA2C6E" d="M47 2h5v37h-5zM2 2h5v37H2z"/><path d="M7.77 33.01h38.394V7.399H7.77V33.01zm39.267 1.708H6.897a.864.864 0 0 1-.872-.853V6.545c0-.473.39-.855.873-.855h40.139c.481 0 .872.382.872.854v27.32c0 .472-.39.854-.872.854z" fill="#000" fill-rule="nonzero"/><path d="M2.535 38.133H51.4V2.275H2.535v35.858zm49.737 1.708H1.662a.864.864 0 0 1-.873-.854V1.421c0-.472.391-.853.873-.853h50.61c.482 0 .873.381.873.853v37.566a.864.864 0 0 1-.873.854z" fill="#000" fill-rule="nonzero"/><path d="M6.898 7.397a.88.88 0 0 1-.617-.25L1.045 2.025a.84.84 0 0 1 0-1.208.885.885 0 0 1 1.234 0L7.515 5.94a.84.84 0 0 1 0 1.207.88.88 0 0 1-.617.25m40.139 0a.88.88 0 0 1-.617-.25.84.84 0 0 1 0-1.207L51.655.817a.885.885 0 0 1 1.234 0 .84.84 0 0 1 0 1.208l-5.235 5.122a.88.88 0 0 1-.617.25m5.235 32.443a.88.88 0 0 1-.617-.25l-5.235-5.122a.84.84 0 0 1 0-1.208.885.885 0 0 1 1.234 0l5.235 5.123a.84.84 0 0 1 0 1.207.88.88 0 0 1-.617.25m-50.61 0a.88.88 0 0 1-.617-.25.84.84 0 0 1 0-1.207l5.236-5.123a.885.885 0 0 1 1.234 0 .84.84 0 0 1 0 1.208L2.279 39.59a.88.88 0 0 1-.617.25m28.796-5.122a.879.879 0 0 1-.674-.31c-6.931-8.224-11-10.903-22.942-11.645a.861.861 0 0 1-.816-.905c.032-.47.44-.83.927-.799 12.496.776 16.996 3.742 24.178 12.262a.84.84 0 0 1-.118 1.201.882.882 0 0 1-.555.196" fill="#000" fill-rule="nonzero"/><path d="M26.967 30.449a.864.864 0 0 1-.872-.854c0-.471.39-.853.872-.853 8.163 0 14.596-.975 19.453-5.727a.885.885 0 0 1 1.234 0 .84.84 0 0 1 0 1.208c-5.282 5.167-12.09 6.226-20.687 6.226m1.745-14.514c.192-1.707 1.065-2.561 2.618-2.561h.973c.442-1.873 2.275-3.415 4.263-3.415 2.442 0 3.897 1.423 4.363 4.269h-1.746c-.115-1.708-.988-2.562-2.617-2.562-1.54 0-2.618 1.269-2.618 2.562 0 .47-.391.853-.873.853H31.33c-.553 0-.844.285-.872.854h-1.746zm-11.343-5.123c-2.406 0-4.363 1.915-4.363 4.27 0 2.353 1.957 4.268 4.363 4.268 2.405 0 4.363-1.915 4.363-4.269s-1.958-4.269-4.363-4.269m0 10.246c-3.368 0-6.108-2.681-6.108-5.977 0-3.295 2.74-5.976 6.108-5.976 3.368 0 6.108 2.68 6.108 5.976s-2.74 5.977-6.108 5.977" fill="#000" fill-rule="nonzero"/><path d="M16.752 17.392l-1.745-1.707 1.233-1.207 1.746 1.707a.84.84 0 0 1 0 1.207.88.88 0 0 1-.617.25.88.88 0 0 1-.617-.25z" fill="#000" fill-rule="nonzero"/><path d="M16.496 29.595V16.79c0-.471.391-.854.873-.854.481 0 .872.383.872.854v12.806h-1.745z" fill="#000" fill-rule="nonzero"/><path d="M16.752 17.392a.84.84 0 0 1 0-1.207l1.745-1.707 1.234 1.207-1.745 1.707a.88.88 0 0 1-.617.25.88.88 0 0 1-.617-.25zm24.323 10.116l-.447-.666c-1.905-2.843-3.876-5.785-9.298-5.785-3.979 0-7.197 1.704-8.83 4.674l-1.537-.809c1.948-3.541 5.726-5.572 10.367-5.572 6.366 0 8.8 3.636 10.757 6.557l.44.654-1.452.947z" fill="#000" fill-rule="nonzero"/></g></svg>