<svg width="61" height="47" viewBox="0 0 61 47" xmlns="http://www.w3.org/2000/svg"><title>Teatr</title><g fill="none" fill-rule="evenodd"><path fill="#EA2C6E" d="M15 21v3h-2l.5 13 1.5.5V40l3 .5-.5-3.5 1.5-.5V24h-1.5v-3zm-9-7L31 1l24 13zm19 26l-.5-3.5h-1l-.5-13 2-.5v-3h12l-.5 3 2 .5L38 36l-1.5.5v3H34V28c-.667-1.667-1.667-2.5-3-2.5-2 0-3.5 1.5-3.5 3.5 0 1.333-.167 4.833-.5 10.5l-2 .5zm19-19v3h-2l.5 13 1.5.5V40l3 .5-.5-3.5 1.5-.5V24h-1.5v-3z"/><path d="M19.554 35.9h3.249l-.39-11.848h-2.47L19.554 35.9zm3.915 1.267h-4.58a.65.65 0 0 1-.464-.193.626.626 0 0 1-.182-.46l.43-13.116a.64.64 0 0 1 .645-.613h3.72a.64.64 0 0 1 .645.613l.43 13.115a.626.626 0 0 1-.181.461.65.65 0 0 1-.463.193zM9.474 35.9h3.247l-.388-11.848h-2.47L9.472 35.9zm3.913 1.267h-4.58a.65.65 0 0 1-.463-.193.626.626 0 0 1-.181-.46l.43-13.116a.64.64 0 0 1 .645-.613h3.72a.64.64 0 0 1 .644.613l.43 13.115a.626.626 0 0 1-.181.461.65.65 0 0 1-.464.193zM48.756 35.9h3.249l-.39-11.848h-2.47L48.756 35.9zm3.915 1.267h-4.58a.65.65 0 0 1-.464-.193.626.626 0 0 1-.182-.46l.43-13.116a.64.64 0 0 1 .645-.613h3.72a.64.64 0 0 1 .645.613l.43 13.115a.626.626 0 0 1-.181.461.65.65 0 0 1-.463.193zM38.676 35.9h3.247l-.388-11.848h-2.471L38.676 35.9zm3.913 1.267h-4.58a.65.65 0 0 1-.463-.193.626.626 0 0 1-.181-.46l.43-13.116a.64.64 0 0 1 .645-.613h3.72a.64.64 0 0 1 .644.613l.43 13.115a.626.626 0 0 1-.182.461.65.65 0 0 1-.463.193zm-14.6 1.93h5.483v-9.969c0-1.485-1.23-2.693-2.742-2.693s-2.741 1.208-2.741 2.693v9.97zm6.128 1.268h-6.774a.64.64 0 0 1-.645-.634V29.128c0-2.183 1.81-3.96 4.032-3.96 2.223 0 4.032 1.777 4.032 3.96v10.603a.64.64 0 0 1-.645.634zM6.208 16.185h48.685v-1.783H6.208v1.783zm49.33 1.268H5.564a.64.64 0 0 1-.645-.634v-3.051a.64.64 0 0 1 .645-.634H55.54a.64.64 0 0 1 .645.634v3.051a.64.64 0 0 1-.645.634z" stroke="#000" stroke-width=".2" fill="#000"/><path d="M8.09 22.785h6.003v-1.93H8.089v1.93zm6.648 1.267H7.444a.64.64 0 0 1-.645-.634v-3.196a.64.64 0 0 1 .645-.634h7.294a.64.64 0 0 1 .645.634v3.196a.64.64 0 0 1-.645.634zm3.433-1.267h6.003v-1.93h-6.003v1.93zm6.648 1.267h-7.293a.64.64 0 0 1-.645-.634v-3.196a.64.64 0 0 1 .645-.634h7.293a.64.64 0 0 1 .646.634v3.196a.64.64 0 0 1-.646.634zM8.095 39.097H14.1v-1.93H8.095v1.93zm6.649 1.267H7.45a.64.64 0 0 1-.645-.633v-3.197a.64.64 0 0 1 .645-.634h7.294a.64.64 0 0 1 .645.634v3.197a.64.64 0 0 1-.645.633zm3.433-1.267h6.003v-1.93h-6.003v1.93zm6.648 1.267h-7.294a.64.64 0 0 1-.645-.633v-3.197a.64.64 0 0 1 .645-.634h7.294a.64.64 0 0 1 .645.634v3.197a.64.64 0 0 1-.645.633zM37.29 22.785h6.004v-1.93h-6.003v1.93zm6.65 1.267h-7.295a.64.64 0 0 1-.645-.634v-3.196a.64.64 0 0 1 .645-.634h7.294a.64.64 0 0 1 .645.634v3.196a.64.64 0 0 1-.645.634zm3.432-1.267h6.003v-1.93h-6.003v1.93zm6.648 1.267h-7.293a.64.64 0 0 1-.645-.634v-3.196a.64.64 0 0 1 .645-.634h7.293a.64.64 0 0 1 .645.634v3.196a.64.64 0 0 1-.645.634zM37.296 39.097H43.3v-1.93h-6.004v1.93zm6.649 1.267H36.65a.64.64 0 0 1-.645-.633v-3.197a.64.64 0 0 1 .645-.634h7.294a.64.64 0 0 1 .645.634v3.197a.64.64 0 0 1-.645.633zm3.433-1.267h6.003v-1.93h-6.003v1.93zm6.648 1.267h-7.293a.64.64 0 0 1-.645-.633v-3.197a.64.64 0 0 1 .645-.634h7.293a.64.64 0 0 1 .645.634v3.197a.64.64 0 0 1-.645.633z" stroke="#000" stroke-width=".2" fill="#000"/><path d="M4.75 42.216h51.61v-1.852H4.75v1.852zm52.254 1.267H4.106a.64.64 0 0 1-.646-.633v-3.12a.64.64 0 0 1 .646-.633h52.898a.64.64 0 0 1 .645.634v3.119a.64.64 0 0 1-.645.633z" stroke="#000" stroke-width=".2" fill="#000"/><path d="M2.29 45.335h56.53v-1.852H2.29v1.852zm57.174 1.267H1.645A.64.64 0 0 1 1 45.97v-3.12a.64.64 0 0 1 .645-.633h57.82a.64.64 0 0 1 .644.634v3.119a.64.64 0 0 1-.645.633zM8.14 13.134h44.821L30.551 1.378 8.14 13.134zm47.399 1.268H5.563a.643.643 0 0 1-.625-.48.63.63 0 0 1 .321-.713L30.247.101c.19-.1.417-.1.608 0l24.988 13.108a.63.63 0 0 1 .321.713.643.643 0 0 1-.625.48zM7.032 19.588H54.07l.616-2.135H6.416l.616 2.135zm47.526 1.268H6.544a.643.643 0 0 1-.62-.461l-.981-3.403a.625.625 0 0 1 .106-.555.648.648 0 0 1 .514-.252H55.54c.202 0 .392.093.514.252a.625.625 0 0 1 .106.555l-.98 3.403a.643.643 0 0 1-.62.46z" stroke="#000" stroke-width=".2" fill="#000"/></g></svg>