<svg width="63" height="32" viewBox="0 0 63 32" xmlns="http://www.w3.org/2000/svg"><title>Transport</title><g fill="none" fill-rule="evenodd"><path d="M2 13h41.5L60 17.5V26h-7.5c-1.412-3-2.912-4.5-4.5-4.5S44.746 23 43 26h-4.5l-.5-5.5H22l-.5 5.5H17c-1.5-2.667-3-4-4.5-4s-3 1.333-4.5 4H2V13z" fill="#EA2C6E"/><path d="M22.503 25.744h15.044v-4.673H22.503v4.673zm15.728 1.368H21.819a.684.684 0 0 1-.684-.684v-6.04c0-.378.306-.684.684-.684h16.412c.378 0 .684.306.684.684v6.04a.684.684 0 0 1-.684.684zm18.081-10.637h2.431C56.985 10.68 53.445 2.368 50.54 2.368h-6.46v9.981l12.231 4.126zm3.345 1.368H56.2a.67.67 0 0 1-.218-.036l-12.803-4.318a.685.685 0 0 1-.465-.649V1.684c0-.378.306-.684.684-.684h7.142c2.282 0 4.556 2.665 6.952 8.148 1.69 3.866 2.812 7.784 2.823 7.824a.686.686 0 0 1-.658.87z" stroke="#000" stroke-width=".3" fill="#000"/><path d="M2.368 12.157h40.346v-9.79H4.875a2.51 2.51 0 0 0-2.507 2.508v7.282zm41.03 1.367H1.684A.683.683 0 0 1 1 12.84V4.875A3.88 3.88 0 0 1 4.875 1h38.523c.377 0 .683.306.683.684V12.84a.684.684 0 0 1-.683.684z" stroke="#000" stroke-width=".3" fill="#000"/><path stroke="#000" stroke-width=".3" fill="#000" d="M29.341 12.84h1.368V1.684H29.34zm-14.968 0h1.368V1.684h-1.368zm-2.04 9.757A3.836 3.836 0 0 0 8.5 26.43a3.835 3.835 0 0 0 3.832 3.83 3.835 3.835 0 0 0 3.83-3.83 3.835 3.835 0 0 0-3.83-3.832m0 9.03a5.204 5.204 0 0 1-5.2-5.198 5.205 5.205 0 0 1 5.2-5.2 5.204 5.204 0 0 1 5.197 5.2 5.204 5.204 0 0 1-5.197 5.198"/><path d="M12.333 28.703a2.278 2.278 0 0 1-2.276-2.275 2.278 2.278 0 0 1 2.276-2.275 2.278 2.278 0 0 1 2.274 2.275 2.277 2.277 0 0 1-2.274 2.275m35.396-6.106a3.836 3.836 0 0 0-3.831 3.832 3.835 3.835 0 0 0 3.83 3.83 3.835 3.835 0 0 0 3.831-3.83 3.835 3.835 0 0 0-3.83-3.832m0 9.03a5.204 5.204 0 0 1-5.2-5.198 5.205 5.205 0 0 1 5.2-5.2 5.204 5.204 0 0 1 5.198 5.2 5.204 5.204 0 0 1-5.198 5.198" stroke="#000" stroke-width=".3" fill="#000"/><path d="M52.882 25.744h3.584a2.51 2.51 0 0 0 2.508-2.507v-5.394H56.2a.676.676 0 0 1-.219-.036l-12.696-4.283H2.368v9.713a2.51 2.51 0 0 0 2.507 2.507h2.304a5.206 5.206 0 0 1 5.153-4.514 5.206 5.206 0 0 1 5.154 4.514h25.089a5.206 5.206 0 0 1 5.154-4.514 5.206 5.206 0 0 1 5.153 4.514m3.584 1.368h-4.223a.684.684 0 0 1-.684-.684 3.835 3.835 0 0 0-3.83-3.83 3.835 3.835 0 0 0-3.832 3.83.683.683 0 0 1-.684.684H16.847a.683.683 0 0 1-.684-.684 3.835 3.835 0 0 0-3.83-3.83 3.836 3.836 0 0 0-3.832 3.83.684.684 0 0 1-.684.684H4.875A3.88 3.88 0 0 1 1 23.237V12.84c0-.377.306-.684.684-.684h41.714c.074 0 .148.013.218.037l12.696 4.282h3.346c.377 0 .683.306.683.684v6.078a3.88 3.88 0 0 1-3.875 3.875" stroke="#000" stroke-width=".3" fill="#000"/><path d="M47.729 28.703a2.278 2.278 0 0 1-2.276-2.275 2.278 2.278 0 0 1 2.276-2.275 2.278 2.278 0 0 1 2.275 2.275 2.277 2.277 0 0 1-2.275 2.275m8.661-7.632h3.267v-1.367H56.39zm4.027-18.703a.989.989 0 0 0-.988.987v2.66a.989.989 0 0 0 1.976 0v-2.66a.989.989 0 0 0-.988-.987m0 6.002a2.358 2.358 0 0 1-2.355-2.355v-2.66A2.358 2.358 0 0 1 60.417 1a2.358 2.358 0 0 1 2.356 2.355v2.66a2.358 2.358 0 0 1-2.356 2.355" stroke="#000" stroke-width=".3" fill="#000"/><path stroke="#000" stroke-width=".3" fill="#000" d="M43.398 2.367h17.02V1h-17.02zm-16.26 21.098h5.774v-1.368h-5.774z"/></g></svg>