<svg width="565" height="566" viewBox="0 0 565 566" xmlns="http://www.w3.org/2000/svg"><title>Page 1</title><path d="M282.285 195.054c-48.45 0-87.834 39.41-87.834 87.85 0 48.46 39.384 87.87 87.834 87.87s87.834-39.41 87.834-87.87c0-48.44-39.383-87.85-87.834-87.85m0 273.572C179.9 468.626 96.6 385.33 96.6 282.905c0-102.406 83.3-185.722 185.686-185.722 102.386 0 185.687 83.316 185.687 185.722 0 102.424-83.3 185.721-185.687 185.721m34.549-433.188c0 19.089-15.466 34.558-34.552 34.558-19.085 0-34.551-15.47-34.551-34.558 0-19.09 15.466-34.558 34.551-34.558 19.086 0 34.552 15.469 34.552 34.558m0 495.559c0 19.089-15.466 34.558-34.552 34.558-19.085 0-34.551-15.47-34.551-34.558 0-19.09 15.466-34.558 34.551-34.558 19.086 0 34.552 15.469 34.552 34.558M34.552 288.66c19.085 0 34.551 15.47 34.551 34.558 0 19.09-15.466 34.558-34.551 34.558C15.466 357.776 0 342.307 0 323.218s15.466-34.558 34.552-34.558m495.465-40c19.086 0 34.552 15.47 34.552 34.558 0 19.09-15.466 34.558-34.552 34.558-19.085 0-34.551-15.469-34.551-34.558s15.466-34.558 34.551-34.558M191.2 50.216c9.328 16.645 3.414 37.712-13.228 47.042-16.641 9.348-37.704 3.415-47.032-13.23-9.347-16.645-3.415-37.693 13.227-47.041 16.641-9.33 37.704-3.415 47.032 13.23m242.434 432.182c9.328 16.645 3.414 37.712-13.227 47.042-16.642 9.348-37.705 3.414-47.033-13.23-9.347-16.645-3.414-37.693 13.227-47.042 16.642-9.33 37.705-3.415 47.033 13.23M49.327 414.32c16.642-9.33 37.705-3.415 47.033 13.23 9.347 16.644 3.414 37.71-13.227 47.04-16.642 9.35-37.686 3.415-47.033-13.23-9.328-16.644-3.414-37.71 13.227-47.04M481.43 131.838c16.642-9.33 37.705-3.414 47.033 13.23 9.347 16.645 3.414 37.712-13.227 47.042-16.642 9.348-37.686 3.414-47.033-13.23-9.328-16.645-3.414-37.712 13.228-47.042M373.37 50.216c-9.329 16.645-3.415 37.712 13.227 47.042 16.641 9.348 37.704 3.415 47.032-13.23 9.347-16.645 3.414-37.693-13.227-47.041-16.642-9.33-37.705-3.415-47.033 13.23M130.936 482.399c-9.328 16.645-3.414 37.712 13.227 47.042 16.642 9.348 37.705 3.414 47.033-13.23 9.347-16.645 3.414-37.693-13.228-47.042-16.641-9.33-37.704-3.415-47.032 13.23M515.241 374.32c-16.641-9.33-37.704-3.415-47.032 13.23-9.347 16.644-3.414 37.71 13.227 47.04 16.642 9.35 37.686 3.415 47.033-13.23 9.328-16.644 3.414-37.71-13.228-47.04M83.14 171.838c-16.641-9.33-37.704-3.414-47.033 13.23-9.346 16.645-3.414 37.712 13.228 47.042 16.641 9.348 37.686 3.414 47.032-13.23 9.329-16.645 3.415-37.712-13.227-47.042" fill="#B2D000" fill-rule="evenodd"/></svg>