<svg width="425" height="426" viewBox="0 0 425 426" xmlns="http://www.w3.org/2000/svg"><title>Page 1</title><g fill="#FFE500" fill-rule="evenodd"><path d="M106.465.005v107.42H.004L105.512 212.86 212.49 105.97z"/><path d="M11.264 64.195h54.892V9.335H11.264zM0 318.327h106.461v107.42l106.025-105.965-106.978-106.904z"/><path d="M11.264 416.404h54.892v-54.86H11.264zM318.503.005L212.478 105.97l106.978 106.89L424.95 107.425H318.503z"/><path d="M358.803 64.182h54.892V9.322h-54.892zM212.478 319.78l106.025 105.963V318.324H424.95L319.456 212.876z"/><path d="M358.79 416.404h54.891v-54.86H358.79zM157.764 212.872l54.72-54.689 54.72 54.689-54.72 54.688z"/></g></svg>