<?xml version="1.0" encoding="UTF-8"?>
<svg width="247px" height="394px" viewBox="0 0 247 394" version="1.1" xmlns="http://www.w3.org/2000/svg" xmlns:xlink="http://www.w3.org/1999/xlink">
    <!-- Generator: Sketch 44.1 (41455) - http://www.bohemiancoding.com/sketch -->
    <title>Image ? </title>
    <desc>Created with Sketch.</desc>
    <defs>
        <polygon id="path-1" points="2.93849187e-20 0.136978571 2.93849187e-20 35.5098071 27.7082804 35.5098071 27.7082804 0.136978571"></polygon>
    </defs>
    <g id="Page-1" stroke="none" stroke-width="1" fill="none" fill-rule="evenodd">
        <g id="PRAVKI" transform="translate(-902.000000, -4835.000000)">
            <g id="Zalyshulus-zapytannya" transform="translate(324.000000, 4819.000000)">
                <g id="Image-?-" transform="translate(578.000000, 7.000000)">
                    <g id="Group-2" transform="translate(133.765477, 183.298591) rotate(26.000000) translate(-133.765477, -183.298591) translate(91.265477, 0.298591)" fill="#F6DE00">
                        <path d="M2,326.92156 C2,347.944821 18.7230486,364.667869 39.7463097,364.667869 C60.7695707,364.667869 77.4926193,347.944821 77.4926193,326.92156 C77.4926193,306.3761 60.7695707,289.653051 39.7463097,289.653051 C18.7230486,289.653051 2,306.3761 2,326.92156 Z" id="?-copy" transform="translate(39.746310, 327.160460) rotate(-1.000000) translate(-39.746310, -327.160460) "></path>
                        <path d="M0.69237269,10.1624548 C12.9243488,4.0345082 26.4913938,0.970534901 41.3935078,0.970534901 C56.2956217,0.970534901 70.5614113,4.0345082 84.1908764,10.1624548 L64.2601621,268.19192 L14.1268335,268.19192 L0.69237269,10.1624548 Z" id="Rectangle-19"></path>
                    </g>
                    <ellipse id="Oval-5" fill="#2A90D3" cx="96" cy="389" rx="66" ry="14"></ellipse>
                    <ellipse id="Oval-7" fill="#2A90D3" cx="122.5" cy="372.5" rx="122.5" ry="6.5"></ellipse>
                    <g id="Page-1" transform="translate(36.000000, 95.000000)">
                        <path d="M17.5182766,54.7757893 L19.4870243,56.8671393 L26.2074355,52.6898321 L24.5281458,63.552125 L40.4851925,76.9199393 C40.4851925,76.9199393 70.2213047,45.6597036 74.0796598,46.8407393 C77.938015,48.0206964 82.8186879,59.0275179 82.8186879,59.0275179 L37.4670243,91.6133179 L15.2882579,64.3869393 L13.5959589,60.1761964 C14.9055664,58.3782179 16.2184262,56.5823964 17.5182766,54.7757893" id="Fill-1" fill="#DE9576"></path>
                        <polygon id="Fill-5" fill="#DE9576" points="56.263686 139.425742 63.8232 219.642335 54.0239103 268.806856 61.0706393 269.391442 75.1640972 230.249006 76.3392748 195.196514 78.100957 158.643728"></polygon>
                        <path d="M86.5002243,141.932666 L83.3855701,204.543737 C83.3855701,204.543737 90.431215,231.418501 89.2571215,240.765401 C88.0819439,250.112301 77.2625047,282.308737 77.2625047,282.308737 L71.6402991,279.323251 C71.6402991,279.323251 73.9895701,258.292187 75.1636636,245.438851 C76.3388411,232.586594 69.2921121,202.207551 69.2921121,202.207551 L52.8526355,136.383416 L86.5002243,141.932666 Z" id="Fill-7" fill="#FDD09C"></path>
                        <path d="M51.6752897,120.416999 L53.436972,56.1535564 L79.2735327,43.3012993 L82.2450841,43.817935 C87.3458318,50.7283421 88.6109907,60.2100636 87.8293458,69.216135 L78.687028,99.9694421 L81.035215,119.248906 L51.6752897,120.416999 Z" id="Fill-9" fill="#EA2C6E"></path>
                        <polygon id="Fill-11" fill="#FDCF9C" points="68.809357 48.6593186 71.6399738 35.7056757 64.5932449 31.6168114 65.1049458 28.8038971 64.0067402 25.1896043 69.5508897 24.55109 66.1923103 20.3727043 68.7041981 18.1799686 65.1808336 12.9219329 72.2275626 13.50544 91.2114505 0.0481042857 103.307974 18.0861329 85.145843 45.0536543"></polygon>
                        <path d="M80.1226093,117.757458 C80.1226093,117.757458 87.1942729,130.427436 91.5285533,143.994786 C89.0285907,148.920622 86.8408523,154.055701 85.087843,159.308344 C76.9721794,158.021608 68.6212636,157.986015 60.4557308,158.269679 C58.3276187,158.344101 56.2027589,158.448722 54.0811514,158.567365 L51.5,117 L80.1226093,117.757458 Z" id="Fill-13" fill="#4BABE0"></path>
                        <path d="M90.582557,48.8731993 C84.9093981,48.2508636 79.1397533,47.1884707 73.5392299,45.5900279 L76.6864075,4.53744214 C76.6864075,4.53744214 92.8819589,-6.83717214 106.219791,6.43249214 C114.179342,14.3513636 115.292725,34.1043207 115.181062,46.060285 C107.845959,49.6335921 98.4532112,49.737135 90.582557,48.8731993" id="Fill-15" fill="#221F20"></path>
                        <polygon id="Fill-17" fill="#78241C" points="102.175402 115.743549 62.1434766 130.235235 77.2625047 166.999421 113.332 148.459856"></polygon>
                        <path d="M72.4258467,278.153864 C72.4258467,278.153864 64.5953047,292.174214 58.3323888,294.511479 L52.0694729,296.848743 L52.0694729,301.522193 L79.861772,300.355179 L77.262071,282.308521 L72.4258467,278.153864 Z" id="Fill-19" fill="#504B43"></path>
                        <polygon id="Fill-21" fill="#78241C" points="72.8154766 128.595806 79.2735327 50.3120136 75.1636636 53.8173707 68.1169346 128.595806"></polygon>
                        <g id="Group-25" transform="translate(0.000000, 26.486479)">
                            <mask id="mask-2" fill="white">
                                <use xlink:href="#path-1"></use>
                            </mask>
                            <g id="Clip-24"></g>
                            <polygon id="Fill-23" fill="#BCD0DA" mask="url(#mask-2)" points="27.7082804 26.8747643 14.0929159 35.5098071 -0.000542056075 7.46695 16.791271 0.136978571"></polygon>
                        </g>
                        <polygon id="Fill-26" fill="#78241C" points="78.1005234 49.7274279 87.4954393 53.232785 103.937084 122.754264 96.3038505 121.585092 86.9078505 57.3216493"></polygon>
                        <path d="M25.7390991,51.2704321 L27.7078467,53.3617821 L34.4282579,49.184475 L32.7489682,60.0467679 L52.8494916,71.9272321 C52.8494916,71.9272321 76.0039589,49.7151321 79.862314,50.8950893 C83.7206692,52.0772036 88.0820523,60.826575 88.0820523,60.826575 L51.0888935,86.5321679 L23.5090804,60.8815821 L21.8167813,56.6708393 C23.1263888,54.8728607 24.4403327,53.0781179 25.7390991,51.2704321" id="Fill-28" fill="#FDD09C"></path>
                        <path d="M70.3360037,56.4621357 C74.6778729,53.0171786 78.4896112,50.4760643 79.8620972,50.8956286 C83.7204523,52.0777429 88.0818355,60.8271143 88.0818355,60.8271143 L79.1227327,67.0526286 C76.3864336,63.3649929 73.4723402,59.8111 70.3360037,56.4621357" id="Fill-30" fill="#EA2C6E"></path>
                        <polygon id="Fill-32" fill="#DEF2FC" points="31.9082393 50.8544271 15.1110056 55.0328129 5.87220187 30.8005486 16.7913794 26.6232414"></polygon>
                        <path d="M53.9831178,266.4697 C53.9831178,266.4697 50.0673047,280.49005 44.5871178,282.827314 C39.1069308,285.164579 35.976015,286.720957 35.976015,286.720957 L38.3242019,291.395486 L63.768314,288.671014 L61.0298467,265.689893 L53.9831178,266.4697 Z" id="Fill-3" fill="#2D2B26"></path>
                    </g>
                </g>
            </g>
        </g>
    </g>
</svg>