<?xml version="1.0" encoding="UTF-8"?>
<svg width="256px" height="303px" viewBox="0 0 256 303" version="1.1" xmlns="http://www.w3.org/2000/svg" xmlns:xlink="http://www.w3.org/1999/xlink">
    <!-- Generator: Sketch 44.1 (41455) - http://www.bohemiancoding.com/sketch -->
    <title>Man</title>
    <desc>Created with Sketch.</desc>
    <defs>
        <polygon id="path-1" points="0.988024802 0.00488888889 28.297545 0.00488888889 28.297545 35.2825 0.988024802 35.2825 0.988024802 0.00488888889"></polygon>
    </defs>
    <g id="Page-1" stroke="none" stroke-width="1" fill="none" fill-rule="evenodd">
        <g id="FIN-Copy-3" transform="translate(-288.000000, -5443.000000)">
            <g id="Bajaete-staty-partnerom" transform="translate(288.000000, 5423.000000)">
                <g id="Man" transform="translate(0.000000, 20.000000)">
                    <g>
                        <ellipse id="Oval-6" fill="#2A90D3" cx="74" cy="292" rx="74" ry="11"></ellipse>
                        <ellipse id="Oval-6-Copy" fill="#2A90D3" cx="182" cy="292" rx="74" ry="11"></ellipse>
                        <path d="M114.290105,55.3450556 L117.281288,43.7632778 C117.281288,43.7632778 128.820277,44.0101667 129.83645,33.8327222 C130.852623,23.6577222 123.43078,10.5726111 123.43078,10.5726111 L104.134476,1.41572222 L80.7747016,16.6776111 L93.6421571,56.7445 L114.290105,55.3450556 Z" id="Fill-1" fill="#DE9576"></path>
                        <g id="Group-5" transform="translate(79.193717, 0.217333)">
                            <mask id="mask-2" fill="white">
                                <use xlink:href="#path-1"></use>
                            </mask>
                            <g id="Clip-4"></g>
                            <path d="M22.205388,15.3529444 C23.6851209,10.5263889 25.805299,5.86238889 28.297545,1.33405556 C28.297545,1.33405556 16.1766654,-2.9535 7.2299534,3.87016667 C-1.71553874,10.6938333 1.58183822,18.4659444 1.58183822,18.4659444 L6.49435654,35.2825 C8.31444031,34.7593889 9.81125183,33.9062778 10.4541366,32.4921667 C11.4385921,30.3276111 10.4041209,27.8428333 9.9491,25.6709444 C9.22936178,22.2438333 9.29157644,18.6468333 12.8256131,16.8513889 C15.7497021,15.3651667 18.9677859,15.0803889 22.205388,15.3529444" id="Fill-3" fill="#252223" mask="url(#mask-2)"></path>
                        </g>
                        <path d="M95.7767298,142.198856 L93.5601801,193.726522 L84.4207246,207.973967 L59.0298241,237.480856 L38.7197874,247.940633 L46.8442901,290.3933 L77.3111749,290.3933 C77.3111749,290.3933 76.296222,283.268967 73.2489236,282.252078 C70.202845,281.233967 64.1082482,278.1833 64.1082482,278.1833 L64.1082482,261.902078 L118.949861,219.165856 L135.200086,165.238967 L95.7767298,142.198856 Z" id="Fill-6" fill="#A9ABAD"></path>
                        <polygon id="Fill-8" fill="#040201" points="58.2649497 235.087744 74.1235885 257.494744 121.29328 221.032189 129.222599 197.198856 91.6217665 145.184744 94.353112 169.3933 88.9660545 198.421078"></polygon>
                        <path d="M111.940342,46.0506667 C111.940342,46.0506667 166.681924,54.3275556 165.666971,100.115667 C165.010667,129.687333 160.588547,134.713111 160.588547,134.713111 L94.155489,154.321222 L91.5302743,50.2563333 L111.940342,46.0506667 Z" id="Fill-10" fill="#302C2B"></path>
                        <polygon id="Fill-12" fill="#040201" points="116.209976 92.4951111 116.006253 67.8465556 103.807301 95.3465556"></polygon>
                        <path d="M127.477905,121.675667 C115.496093,115.186889 103.830235,108.060111 92.7865225,100.061889 L94.1564649,154.321222 L157.138439,135.731222 C146.973051,131.608667 137.060182,126.864 127.477905,121.675667" id="Fill-14" fill="#040201"></path>
                        <polygon id="Fill-16" fill="#DE9576" points="108.742265 128.349367 133.085275 131.096922 145.792925 124.985811 123.732338 120.606589"></polygon>
                        <polygon id="Fill-18" fill="#FEFEFE" points="6.4065911 93.6155222 100.744753 94.4307444 192.2369 66.3196333 187.764764 83.0225222 197.523926 94.0225222 193.456795 124.171078 187.764764 131.911411 111.62256 119.587744 23.0789 147.8003 6.00036597 133.541856 12.9122927 120.911411 6.00036597 110.319633 8.03271152 98.5044111"></polygon>
                        <polygon id="Fill-20" fill="#8ABBD1" points="116.41321 107.976633 115.193315 118.365522 102.994362 117.958522 99.538399 112.0503"></polygon>
                        <polygon id="Fill-22" fill="#8ABBD1" points="68.6340597 98.1988556 34.8832168 97.1807444 36.3068346 100.439189 34.2732691 108.994744 72.6999707 104.716967 73.3099183 98.6058556"></polygon>
                        <path d="M124.027919,187.621889 L201.213134,293.445556 L236.758442,261.901222 C236.758442,261.901222 233.712364,256.814333 229.650113,256.814333 C225.587861,256.814333 217.21816,269.282222 207.806668,268.850778 C198.395175,268.420556 167.69773,168.29 167.69773,168.29 L124.027919,187.621889 Z" id="Fill-24" fill="#FEFEFE"></path>
                        <polygon id="Fill-26" fill="#302C2B" points="160.583667 133.783367 202.822541 260.245478 185.439034 274.606589 94.155489 168.886811 91.5119759 145.053478"></polygon>
                        <path d="M92.3141791,59.5397222 C92.3141791,59.5397222 72.462823,82.6116111 71.6686712,100.9095 C70.8745194,119.207389 97.6609801,131.958833 108.742509,128.349611 C119.825258,124.741611 124.481598,121.687278 124.481598,121.687278 C124.481598,121.687278 97.8732419,108.866167 105.019388,97.7256111 C112.165535,86.5899444 115.342142,69.0865 115.342142,69.0865 C115.342142,69.0865 102.638153,46.8102778 92.3141791,59.5397222" id="Fill-28" fill="#302C2B"></path>
                        <path d="M115.299202,12.9730556 C115.732265,18.6282778 118.211092,22.9671667 121.209595,22.9671667 C124.515511,22.9671667 127.193181,17.7042778 127.193181,11.2130556 C127.193181,10.7229444 127.173663,10.2438333 127.144385,9.76961111 C123.154108,10.5310556 119.196768,11.6115 115.299202,12.9730556" id="Fill-30" fill="#252223"></path>
                        <polygon id="Fill-32" fill="#040201" points="49.4207089 240.995111 65.8892953 262.995111 65.2793476 277.356222 75.9534314 282.245111 78.393222 291.106222 46.8442901 291.106222 37.5267298 246.800667"></polygon>
                        <path d="M108.241132,51.6933 L116.271703,47.1099667 C116.271703,47.1099667 132.232813,50.3696333 141.077053,56.8877444 C149.921294,63.4058556 155.918299,67.3780778 160.187933,76.5447444 L154.470284,78.6714111 L149.445535,72.3256333 L141.279556,66.8696333 L117.796572,55.1558556 L108.647357,53.7307444 L108.241132,51.6933 Z" id="Fill-34" fill="#FEFEFE"></path>
                        <path d="M190.166006,281.328444 L201.29755,295.995111 L238.656843,262.231222 C238.656843,262.231222 233.014828,251.689556 226.152917,256.578444 C219.291006,261.467333 206.482105,267.731222 206.482105,267.731222 L190.166006,281.328444 Z" id="Fill-36" fill="#040201"></path>
                        <polygon id="Fill-38" fill="#B3B5B7" points="113.312725 53.6131667 122.9194 53.8417222 121.622651 49.9465 124.455248 49.2070556 117.354238 47.0437222 108.890604 50.4048333"></polygon>
                        <path d="M111.330395,51.0350111 C111.330395,51.0350111 138.168091,59.8007889 149.452123,72.3285667 L122.614426,65.6063444 L121.394531,57.6619 L111.635369,61.3285667 L89.3466618,54.3264556 L91.5070963,51.7035667 L111.330395,51.0350111 Z" id="Fill-40" fill="#040201"></path>
                        <polygon id="Fill-42" fill="#FEFEFE" points="90.7446618 48.0367778 91.5070963 51.7034444 119.717175 50.7867778 116.97241 45.134"></polygon>
                        <polygon id="Fill-44" fill="#8ABBD1" points="183.710808 72.3284444 179.441174 82.5132222 190.014007 93.9214444 169.682012 96.7728889 160.126572 85.5687778 165.412379 77.2173333"></polygon>
                        <polygon id="Fill-46" fill="#8ABBD1" points="161.142745 97.5877444 153.213426 86.7918556 132.881431 92.2918556 140.608248 99.4210778 138.574682 113.476633 135.118719 118.772522 152.502227 120.682856 157.889284 114.291856"></polygon>
                        <polygon id="Fill-48" fill="#8ABBD1" points="168.055404 100.235811 166.631786 107.976144 188.589901 106.753922 190.419744 97.7913667"></polygon>
                        <polygon id="Fill-50" fill="#8ABBD1" points="165.920587 111.515944 165.209388 114.495722 160.532309 122.031944 185.286425 126.106833 187.777451 121.420833 188.589901 111.440167"></polygon>
                        <polygon id="Fill-52" fill="#8ABBD1" points="153.416782 84.4742778 155.627232 80.6548333 134.736526 87.0715 133.28851 89.7445"></polygon>
                        <polygon id="Fill-54" fill="#8ABBD1" points="128.205572 93.9210778 135.321221 100.439189 133.491379 112.0503 121.089923 112.254411 121.699871 103.291856 114.990447 104.716967 108.89097 98.8099667"></polygon>
                        <polygon id="Fill-56" fill="#8ABBD1" points="31.630488 101.865522 29.5969225 109.198856 33.0541058 116.532189 19.2278126 118.772522 13.9420063 109.605856 16.3817969 101.0503"></polygon>
                        <polygon id="Fill-58" fill="#8ABBD1" points="19.4315351 123.050667 14.5519539 132.421444 25.1247864 139.754778 63.9577131 128.957667 56.0283937 122.235444 57.8582366 116.532556"></polygon>
                        <polygon id="Fill-60" fill="#8ABBD1" points="58.8748974 108.791367 62.1283581 113.069144 60.5010178 120.809478 70.6676251 118.263589 72.2937455 112.356589 68.4303372 107.670589"></polygon>
                    </g>
                </g>
            </g>
        </g>
    </g>
</svg>